<svg width="111" height="81" viewBox="0 0 111 81" fill="none" xmlns="http://www.w3.org/2000/svg">
<g clip-path="url(#clip0_8272_3752)">
<path d="M56.1055 26.8037C56.2433 25.6984 56.6736 25.7125 57.2305 25.1162C57.0336 25.4678 56.6483 26.8037 56.1055 26.8037Z" fill="white"/>
<path d="M61.4496 19.7722C62.0768 18.6725 63.2608 17.8456 63.559 17.241C63.8402 16.67 63.6433 15.8656 63.7615 15.1935C64.1412 13.0503 66.6246 11.2081 68.6918 10.8425C69.4708 10.7047 70.2668 10.9156 71.0037 10.6231C72.123 10.1816 74.4687 8.22689 75.7062 7.45064C76.5583 6.91627 78.3612 6.2272 78.9996 5.73502C79.3202 5.48752 79.0755 5.04595 79.1852 4.89127C79.233 4.82095 80.4115 4.85752 80.8755 4.7422C82.6502 4.29783 84.8412 3.06033 86.7621 2.47533C92.6768 0.675328 100.766 -0.323109 106.88 0.641578C107.215 0.695016 107.375 0.796266 107.569 1.06627L106.452 4.30064C107.639 4.32033 109.093 4.37377 110.249 4.5847C111.405 4.79564 110.441 5.76033 110.103 6.68845C106.076 17.7303 103.766 31.5931 102.265 43.2875C101.289 50.8728 100.602 58.5481 100.549 66.1813C99.3368 66.4006 98.1752 65.9366 97.0446 65.886C88.7562 65.5175 80.2877 67.6438 72.708 70.8275C66.6302 73.3813 61.0643 76.9841 55.7177 80.7922C54.9865 80.1088 54.2074 79.4591 53.3862 78.8881C42.3865 71.2213 28.5715 65.3066 14.8915 65.8888C13.6821 65.9394 12.408 66.4147 11.1058 66.1841C11.013 63.8019 11.2296 61.3803 11.1199 58.9981C10.9371 54.9566 10.4252 50.7097 9.95553 46.6625C8.32428 32.5578 5.66365 18.11 0.978027 4.72814L5.19959 4.30064C5.37396 3.24877 3.45303 0.860953 5.05615 0.641578C9.40428 0.0509533 14.433 0.295641 18.7587 1.01002C27.1174 2.39095 34.6127 6.0697 41.3908 11.0169C41.9365 11.0928 43.5733 8.9272 44.1555 8.5222L44.2933 10.7722H47.9524V13.0222C46.9765 13.0728 45.9696 12.9491 44.9965 13.0222C44.7687 13.0391 44.0177 12.8816 44.299 13.4413C44.8165 14.4763 47.9046 16.3156 48.813 17.66C49.0212 17.9638 49.0043 18.245 49.0774 18.366C47.463 16.971 46.0483 15.3791 44.2962 14.1472V19.0691C44.2962 19.1675 44.7293 20.0619 44.8587 20.1913C46.0624 21.3866 48.2477 19.4994 48.5121 19.7722C48.4277 20.99 48.9846 21.9041 47.6712 22.4441C46.1637 23.0656 43.8265 22.911 42.6874 21.6622C42.499 21.4569 41.7621 19.5444 41.7621 19.3503V13.0222C41.7621 12.9238 40.0549 13.0953 39.7933 13.0222L41.1968 11.4781C30.9733 3.46533 17.9121 -0.477797 4.91834 1.2097C7.64084 10.9635 9.22146 21.0716 10.2677 31.1572C11.1452 39.6313 11.6937 48.2488 11.9552 56.751C12.0508 59.8475 11.6008 62.8119 11.674 65.8944C11.7218 65.9506 12.124 65.6553 12.3883 65.6272C22.983 64.55 33.7127 67.5791 43.143 72.2506C47.5052 74.4106 51.6537 77.0488 55.5462 79.9569V43.1131C55.5462 43.0766 55.1215 43.0822 54.8458 42.8431C51.2908 39.7719 51.423 36.3069 54.6968 33.1119C54.9499 32.8644 55.5012 32.7547 55.5574 32.5185C55.6952 31.9335 55.6362 27.6416 55.4927 26.9947C55.3802 26.4969 53.0233 23.1106 52.6127 22.8435C51.9462 22.4075 50.8408 22.655 50.7649 22.5819C50.689 22.5088 50.8549 20.9928 50.7143 20.5231C50.5483 19.9635 49.5274 19.4544 49.2237 18.9144C49.1055 18.7035 49.128 18.4475 49.0774 18.3631C49.623 18.8356 50.1827 19.3419 50.7649 19.7694V4.86595H53.0149V12.1785C54.6377 10.8313 56.2465 10.0044 58.3333 10.9381C61.5902 12.3922 60.3921 17.4828 60.6115 20.3347C60.6621 20.3966 61.2808 19.896 61.4524 19.7722C61.2921 20.0535 60.6818 21.0125 60.6593 21.0885C60.5327 21.4991 60.6733 22.5313 60.6115 22.5847C60.5496 22.6381 59.5568 22.5566 58.924 22.866C58.8255 22.4778 58.1196 22.7366 58.0605 22.4216C57.8187 20.5231 58.699 14.2906 57.453 13.0897C56.2099 11.8916 53.1893 13.1572 53.0037 14.8363C52.7337 17.2775 53.2174 20.2025 53.1021 22.6775C53.583 23.2428 55.7374 26.8035 56.1115 26.8035C55.8949 28.536 56.269 30.6453 56.1115 32.4285C61.3146 30.0069 66.8552 35.4435 64.2171 40.6775C62.8249 43.4394 58.9183 44.7331 56.1087 43.3972V79.9597C57.6133 79.13 58.9155 77.9685 60.3499 77.0291C70.7449 70.2256 82.7796 65.5681 95.3571 65.3235L100.265 65.8972C100.189 65.3628 100.001 64.9381 99.9696 64.3672C99.604 58.0053 100.172 51.5197 100.552 45.2281C101.187 34.6419 102.093 24.0247 104.008 13.5285C104.765 9.3772 105.648 5.20345 107.018 1.21252C100.434 0.470016 93.7005 0.891891 87.3302 2.75658C86.5821 2.97595 81.7052 4.61564 81.7052 5.00658V22.5847H79.174V5.99095L71.299 10.9128C73.3999 11.2756 75.5008 13.1178 75.9537 15.2553C77.7396 23.6788 65.3083 25.7994 63.7024 17.8035C62.8643 18.3744 62.2821 19.1703 61.4552 19.7722H61.4496ZM5.4724 4.87439C5.06178 4.81252 1.42803 4.79564 1.55459 5.2822C5.30365 15.4325 7.4749 26.39 9.10053 37.1056C9.82053 41.8391 10.5658 46.9325 10.8218 51.6969C10.8415 52.0428 10.608 52.7403 11.103 52.6785C11.1508 47.3488 10.428 42.0978 10.2649 36.785C9.13146 26.075 7.86303 15.3763 5.4724 4.87439ZM100.822 54.366C100.979 50.2175 101.432 46.0072 101.978 41.8813C103.592 29.6553 106.073 17.165 110.066 5.51564C110.246 4.55377 106.641 4.7872 106.481 4.89689C105.735 5.4172 103.384 20.6778 103.103 22.7535C102.051 30.53 101.28 38.5569 100.822 46.3475C100.751 47.5625 100.889 48.7944 100.827 50.0094C100.771 51.14 100.484 52.071 100.543 53.3844C100.557 53.7303 100.33 54.4306 100.822 54.366ZM68.959 13.0785C66.3152 13.6831 65.1171 17.5503 67.0633 19.3644C68.658 20.8522 71.8727 20.7903 73.0371 18.8469C74.7724 15.9528 72.2918 12.3191 68.959 13.0813V13.0785ZM57.7174 34.1806C57.183 34.2735 56.3196 34.5856 56.1565 35.151C56.0158 35.6375 56.0046 40.236 56.148 40.686C56.2915 41.136 56.958 41.3525 57.3855 41.4144C64.338 42.4213 63.5083 33.1878 57.7174 34.1806ZM55.5433 40.0222V35.5222C55.1355 35.4575 55.158 36.0116 55.0652 36.3069C54.6658 37.6063 54.6658 37.941 55.0652 39.2375C55.1552 39.5328 55.1355 40.0869 55.5433 40.0222Z" fill="white"/>
<path d="M57.2305 25.1162C57.7086 24.264 57.8886 23.3696 58.918 22.8662C59.067 23.4484 57.6439 24.6746 57.2305 25.1162Z" fill="white"/>
<path d="M40.0731 63.6467C35.9696 65.1317 30.9718 66.0007 27.279 63.0814C19.0356 56.5592 25.9403 44.2432 36.9175 47.2554C39.3109 47.9107 40.1884 48.2201 39.789 50.9904C38.2731 50.5151 36.9878 49.5982 35.3593 49.3732C29.5571 48.5773 24.97 52.6498 27.0737 58.5026C28.5643 62.6482 33.5256 63.2107 37.2381 61.9367L37.2606 58.3001H33.8828C33.8884 57.8079 33.7168 55.7689 34.3046 55.7689H39.6484C39.6793 55.7689 40.0703 56.1598 40.0703 56.1907V63.6439L40.0731 63.6467Z" fill="white"/>
<path d="M26.5742 8.80368C24.732 8.39305 23.0361 7.30462 21.0617 7.1443C16.1933 6.75337 12.2389 10.7752 13.6564 15.6774C14.8489 19.8006 19.1126 20.9509 22.932 19.9271L26.5742 18.369C26.4448 18.9849 26.7739 21.1027 26.5433 21.429C26.3126 21.7552 21.8098 22.824 21.0954 22.869C11.4683 23.4765 6.61669 12.2518 14.2245 6.43837C16.9639 4.34305 20.232 4.22212 23.4917 5.00399C25.9864 5.60305 27.0045 5.91524 26.577 8.80649L26.5742 8.80368Z" fill="white"/>
<path d="M24.0418 29.8977L21.2405 28.3424C19.3505 27.7574 16.1555 28.483 17.2271 30.9524C18.2312 33.2699 23.8927 34.1755 24.5396 37.978C25.3637 42.8211 20.6865 44.9474 16.5774 43.4118C13.883 42.4049 14.4765 41.5189 14.4821 38.8977C16.1049 40.4333 17.7502 41.8368 20.1858 41.3671C21.4908 41.1168 22.2924 39.8905 21.9493 38.6108C21.1955 35.7927 15.039 35.1374 14.5018 31.1436C13.8971 26.6718 18.3577 24.8071 22.1377 26.0361C24.4693 26.7955 24.0868 27.6758 24.0418 29.8949V29.8977Z" fill="white"/>
<path d="M41.7617 25.96V33.2725C43.8514 31.1434 47.502 30.9353 48.852 33.9165C48.9448 34.1218 49.3555 35.3031 49.3555 35.3818V43.6787H46.8242V35.3818C46.8242 35.2046 45.9495 34.0993 45.6992 33.9784C45.0692 33.669 43.8936 33.7703 43.2411 34.0487C42.9711 34.164 41.7617 35.2834 41.7617 35.3818V43.6787C41.7617 43.8109 39.2305 43.7743 39.2305 43.2568V25.96H41.7617Z" fill="white"/>
<path d="M37.2624 20.8976C37.9205 21.0073 38.4014 20.5938 38.9471 20.3351C39.6446 22.3966 36.9418 23.3979 35.4736 22.5373C35.0293 22.2757 35.0574 21.7357 34.8689 21.7357C34.4471 21.7357 34.0842 22.2644 33.6089 22.4473C29.5646 24.011 27.0221 19.601 30.5293 17.1176C31.2858 16.5804 34.6833 15.6354 34.7452 15.3766C35.3049 13.0366 33.5555 12.6316 31.6289 13.1519C30.5602 13.4388 30.113 14.4991 29.1089 14.7073C28.2455 11.1269 31.958 9.86975 34.8014 10.8429C35.5608 11.1016 37.2652 12.3926 37.2652 13.1632V20.8976H37.2624ZM35.0124 16.9629C33.8143 17.2638 31.4546 17.9388 31.3589 19.3704C31.2296 21.2519 33.8171 21.3391 34.7621 20.2029C35.1024 19.7951 34.3149 17.7335 35.0152 16.9629H35.0124Z" fill="white"/>
<path d="M46.2609 52.9594V60.9751C46.2609 61.0566 46.829 62.4038 46.8852 62.4601C47.3774 62.9748 49.169 62.8791 49.8468 62.5895C50.1168 62.4741 51.3262 61.3548 51.3262 61.2563V52.9594C51.9224 53.0157 53.6971 52.6951 53.8349 53.4038C53.8715 53.5951 53.5705 54.3094 53.5621 54.7735C53.503 57.4819 53.5059 60.2495 53.5621 62.9579C53.5846 64.0154 54.3974 64.6145 52.8871 64.786C51.1602 64.9829 51.3712 64.8929 51.1855 63.3685C49.6724 65.1966 46.5421 65.6269 44.849 63.796C44.5368 63.4585 43.7324 61.6107 43.7324 61.2563V52.9594H46.2637H46.2609Z" fill="white"/>
<path d="M36.1052 32.4624C36.319 32.7633 36.0237 34.417 36.1362 34.9599C35.284 34.8333 34.623 34.2567 33.7258 34.1386C30.5112 33.7195 28.8574 35.843 29.5127 38.9142C30.2243 42.247 33.9255 41.5945 36.4174 40.8661C36.7268 43.2258 36.1699 43.5858 33.9593 43.8867C25.3193 45.068 24.4333 32.6283 31.8499 31.6552C32.5755 31.5595 35.7677 31.9842 36.1052 32.4624Z" fill="white"/>
<path d="M73.8246 47.0537V64.7725H67.4965C66.7821 64.7725 64.8921 63.4421 64.4196 62.7868C60.7662 57.7581 65.2887 50.724 71.2934 53.2412V47.0537H73.8246ZM71.2934 62.5225V55.9131C71.2934 55.8596 71.6252 55.6993 71.4621 55.4828C68.7368 53.9584 65.719 55.5503 65.6459 58.7228C65.5559 62.5112 68.1406 62.8009 71.2934 62.5225Z" fill="white"/>
<path d="M72.3472 31.9365C81.2516 30.654 82.4328 43.5212 73.6747 43.9712C65.9881 44.3649 64.6241 33.0503 72.3472 31.9365ZM72.6228 34.1809C68.3872 34.8896 68.9694 41.0462 72.5497 41.4371C73.6635 41.5581 74.7378 41.5384 75.6519 40.869C78.9341 38.4643 76.7347 33.4946 72.6228 34.1837V34.1809Z" fill="white"/>
<path d="M87.6058 59.147H79.4495C79.4945 62.1311 81.9555 62.9073 84.588 62.4573C85.5724 62.2886 86.3599 61.5433 87.3245 61.397C87.5608 63.4192 87.2655 64.0126 85.3614 64.6342C80.6336 66.1783 76.5245 63.1492 76.9099 58.1486C77.5117 50.3073 88.2133 51.3395 87.6086 59.147H87.6058ZM85.0745 57.7408C84.9199 53.8708 79.9024 54.152 79.4495 57.7408H85.0745Z" fill="white"/>
<path d="M96.0427 34.9596C94.8165 34.9681 93.7927 33.8206 92.5243 33.8206C92.0968 33.8206 91.0927 34.1384 90.9971 34.5659C90.7552 35.6374 94.4424 37.2659 95.2693 38.0506C98.3068 40.9306 95.2271 44.3843 91.4724 43.8893C88.9834 43.5603 88.0215 42.9893 88.4518 40.3062C89.1887 40.4328 89.6893 40.9953 90.4234 41.2849C91.3712 41.659 92.3921 42.0134 93.3456 41.4031C95.3087 40.1431 91.2137 38.4865 90.4431 37.8931C85.7602 34.2931 90.0746 30.2065 94.9993 32.2118C96.5349 32.839 95.9893 33.4634 96.0456 34.9596H96.0427Z" fill="white"/>
<path d="M100.26 13.8661C99.4082 13.7423 98.7473 13.1629 97.8501 13.0448C92.5232 12.3473 92.242 19.7329 96.4832 20.3123C98.0498 20.5261 99.0792 20.0508 100.539 19.7723C100.443 20.2617 100.691 22.0814 100.519 22.2811C100.249 22.5904 96.9107 22.8801 96.2498 22.7929C88.3242 21.7664 89.8486 9.71482 97.5604 10.5136C100.061 10.7723 100.581 11.2954 100.258 13.8633L100.26 13.8661Z" fill="white"/>
<path d="M85.3555 25.96H82.8242V43.6787H85.3555V25.96Z" fill="white"/>
<path d="M87.8867 10.7725H85.3555V22.585H87.8867V10.7725Z" fill="white"/>
<path d="M60.043 64.772H57.5117V52.9595C57.5117 52.8273 60.043 52.8639 60.043 53.3814V64.772Z" fill="white"/>
<path d="M100.176 2.95351C104.44 1.98883 104.727 8.53914 100.683 8.25508C97.6649 8.04414 97.4933 3.5582 100.176 2.95351ZM100.174 3.51039C97.9124 4.20508 98.6268 8.24101 101.467 7.6307C104.308 7.02039 103.085 2.61601 100.174 3.51039Z" fill="white"/>
<path d="M87.8215 6.3371C89.5315 8.05272 85.4759 10.2887 85.3297 7.54085C85.2453 5.93772 86.9581 5.47366 87.8215 6.3371Z" fill="white"/>
<path d="M58.2672 48.2265C60.6944 47.4868 60.6972 51.6831 58.2672 50.9462C56.9257 50.5384 56.9313 48.6343 58.2672 48.2265Z" fill="white"/>
<path d="M101.886 4.36264C102.5 4.97576 101.701 5.38076 101.681 5.83639C101.664 6.22732 102.066 6.65482 101.948 7.11607C101.335 6.95857 101.414 6.01357 100.686 5.98826C100.281 5.9742 101.015 7.40576 99.9824 7.11326V4.01951C100.497 4.00826 101.524 3.99701 101.886 4.36264ZM101.386 4.58482C100.939 4.13764 100.098 4.98139 100.545 5.42576C100.992 5.87014 101.833 5.0292 101.386 4.58482Z" fill="white"/>
</g>
<defs>
<clipPath id="clip0_8272_3752">
<rect width="109.831" height="80.5247" fill="white" transform="translate(0.978027 0.264648)"/>
</clipPath>
</defs>
</svg>
