<svg width="129" height="73" viewBox="0 0 129 73" fill="none" xmlns="http://www.w3.org/2000/svg">
<g clip-path="url(#clip0_8272_3776)">
<path d="M70.3149 0.433594C70.0486 4.73672 70.4855 8.48859 71.7642 12.578C72.323 14.363 73.6561 16.8342 73.8567 18.548C74.2355 21.7898 73.0524 24.878 73.1199 28.0992C73.1574 29.9142 73.7086 33.8555 74.3049 35.5486C74.5355 36.2048 75.0117 36.3605 75.6249 36.6586C80.2355 38.9067 84.1711 39.6098 89.1136 37.5155C92.3461 36.1448 89.2224 34.1761 91.1292 32.0311C93.458 30.8817 96.8836 27.3773 99.4692 27.4205C100.57 27.4392 102.023 27.9755 103.212 28.0055C105.398 28.0598 107.927 27.5536 110.164 27.803C110.445 27.8348 110.742 27.8423 110.813 28.1836C107.584 28.853 104.46 29.9461 101.26 30.7261C99.143 31.2417 96.4242 31.2886 94.5117 32.603C93.4692 33.3192 94.373 34.3186 94.3242 35.408C94.133 39.8236 86.7605 43.0617 82.9655 43.3711C80.2374 43.5923 79.3599 42.8855 76.8136 44.5317C75.7655 45.2086 73.8661 46.2492 73.0374 46.943C71.8149 47.963 70.5549 49.8286 69.3811 50.9742C67.5511 52.7592 65.7455 53.6592 64.1574 55.8755C61.5924 59.4605 60.863 64.073 58.7199 67.688C57.7242 69.368 55.8567 70.958 54.7505 72.6248H53.6255C53.9574 72.1767 54.4786 71.9161 54.8855 71.5542C55.0092 71.4436 55.2474 71.5655 55.1255 71.1267L53.6555 71.0986L53.5167 70.3748L55.313 69.5311L54.9511 69.1786C55.5061 68.228 55.9824 67.0542 56.6574 66.1898C57.4205 65.2148 58.5136 64.9392 59.2186 63.8761C60.9942 61.1967 61.1574 56.5242 62.8167 54.3492C63.0661 54.023 65.8936 51.1298 65.6255 50.8786L63.1261 52.4086C59.2017 54.9023 58.283 60.1242 55.6561 63.5011C55.3017 63.9567 53.438 65.4436 53.438 65.5955V68.5017C51.6024 68.8336 51.9792 68.1061 51.278 67.3617C51.113 67.1873 50.8374 67.388 50.8242 67.3673C50.768 67.2755 50.8167 66.8442 50.6405 66.518C48.9905 63.4617 46.2661 60.4955 44.5299 57.4373L44.2411 59.0236L44.3911 68.228L44.1305 68.4736L43.1255 68.4998V55.8436C43.4592 55.4198 44.3274 55.4461 44.7324 55.7367L50.9124 64.9411L51.2424 65.0967L52.3111 64.7498V55.5623H53.4361V62.6873C53.9255 62.4736 54.0586 61.8736 54.4617 61.5567C55.1105 61.0448 55.8886 61.0655 56.5205 60.2405C58.6805 57.4186 58.5342 53.2467 61.883 51.353L63.3736 49.3767L57.1899 52.3767C56.9911 51.3755 56.903 50.0405 58.1255 49.748L57.7505 49.0055C58.7217 48.9642 58.3411 48.0342 58.5324 47.723C58.5924 47.6255 60.1505 46.9973 60.3886 46.6748C60.9736 45.8836 60.1055 45.1355 59.7361 44.4848C59.6105 44.2617 59.468 43.6261 59.4136 43.5886C59.2467 43.4742 58.7292 43.6223 58.4424 43.5623C58.253 43.523 55.9036 41.8223 55.4855 41.6105C55.1274 41.4286 54.0736 41.3461 54.023 41.2917C53.9292 41.1923 54.083 40.628 53.738 40.3561C53.4605 40.1386 52.9261 40.2267 52.883 40.1836C52.7799 40.0805 52.9955 39.383 52.8342 39.1036C52.8005 39.0455 52.313 38.8411 52.1142 38.6086C50.7342 36.9755 49.7761 35.0517 48.6324 33.2573L49.1236 31.943C48.5892 31.8586 47.6536 31.823 47.4736 31.2417C47.4005 31.0036 47.4999 30.6117 47.4099 30.4692C47.3067 30.308 46.5961 30.4261 46.3467 29.9367C46.2267 29.7023 45.9905 28.4198 45.9474 28.0692C45.8986 27.6867 46.1386 27.3455 46.0917 27.0098C46.028 26.5673 45.4055 26.1023 45.278 25.7405C45.1299 25.3223 45.3511 25.0186 45.2724 24.8048C45.143 24.4448 44.1399 24.1036 44.438 23.3161L47.4361 23.6892L45.7505 21.5367C46.0149 21.1617 46.0092 21.338 46.2642 21.3886C46.8699 21.5048 47.498 22.0636 48.1861 22.0017C48.2742 21.9323 47.0649 20.3517 47.5317 20.3142L50.0592 21.4411L49.3111 19.193C49.748 18.7786 51.5855 20.9367 52.1236 21.0661V18.4411C52.5755 18.3417 52.4274 18.5198 52.5417 18.6867C53.8824 20.6292 54.5349 23.3536 56.7549 24.593C56.9799 24.7186 57.0774 24.923 57.2836 24.6323L57.188 19.0055L58.4986 18.8142L57.3792 16.013L58.1349 15.6905L57.7336 12.9342L58.8736 12.6267L57.9361 10.3805L59.8111 10.1911V7.56609L62.9967 9.25359L62.6236 4.00547C62.9367 3.65484 64.3336 5.73234 64.5924 5.87859L64.8736 3.25359C65.4455 2.72297 66.5105 4.76672 67.1217 4.94109L67.313 1.94297L68.8092 2.87859L69.9361 0.441094H70.3111L70.3149 0.433594Z" fill="white"/>
<path d="M128.441 68.8711H119.628V55.3711H127.785C127.824 55.3711 127.997 55.0917 128.064 55.1836V57.0586H121.316V60.9961H127.691V62.6836H121.597L121.316 62.9648V66.9023C121.481 67.1705 121.689 67.1611 121.963 67.193C123.956 67.4273 126.397 66.9998 128.441 67.1836V68.8711Z" fill="white"/>
<path d="M0.190918 60.0583C1.37029 55.4851 7.42467 53.5408 10.6759 57.1783C10.7172 57.422 10.2165 57.887 9.99904 57.9676C9.43467 58.1758 9.58279 57.6564 9.29217 57.4333C5.38279 54.4408 0.796543 58.067 1.15092 62.567C1.53529 67.4214 7.07779 69.6601 10.2222 65.687L11.0547 66.527C7.94029 70.5695 1.41529 68.8539 0.190918 63.9958V60.0583Z" fill="white"/>
<path d="M41.6295 68.4937L40.3395 68.4731L39.0795 65.1094L32.562 65.1469L31.1107 68.475L29.8188 68.4956C30.6907 67.0481 34.7763 55.9762 35.442 55.6519C35.8826 55.4381 36.432 55.485 36.612 55.9837L41.6295 68.4956V68.4937ZM38.6295 63.9956L36.0026 57.0581C35.6613 57.165 35.5489 57.5812 35.4082 57.8681C34.4857 59.7544 33.7788 62.0269 33.0045 63.9956H38.6295Z" fill="white"/>
<path d="M28.8784 55.5586V56.6836H22.5034V61.0898L22.7847 61.3711H28.5034V62.3086H22.5034V67.3711H29.2534V68.4961H21.3784V55.5586H28.8784Z" fill="white"/>
<path d="M14.0659 67.3711H19.8784V68.4961H12.9409V55.5586L14.0659 55.8398V67.3711Z" fill="white"/>
<path d="M106.813 67.3051C105.09 69.0526 102.268 69.6133 99.9376 68.9683C92.5333 66.9189 93.5833 54.2233 102.853 54.9883C108.724 55.4739 110.687 63.3733 106.811 67.3033L106.813 67.3051ZM100.83 56.7283C95.147 57.692 95.8408 68.1583 102.45 67.5395C108.921 66.9339 108.298 55.4608 100.83 56.7283Z" fill="white"/>
<path d="M85.5034 60.996H92.2534V55.371L93.8547 55.2285L94.1284 55.4648V68.871H92.2534V62.6835H85.5034V68.871H83.6284V55.371L85.2297 55.2285L85.5034 55.4648V60.996Z" fill="white"/>
<path d="M115.972 55.3703C116.97 55.5372 118.147 56.6041 118.449 57.581C119.248 60.1572 117.977 62.0547 115.505 62.7747L119.064 68.8703L116.844 68.8403L113.724 63.056L111.566 62.8703V68.8703H109.878V55.1828C110.015 55.1322 110.103 55.3703 110.16 55.3703C111.77 55.3703 114.532 55.1303 115.972 55.3703ZM111.566 61.1828H115.41C115.592 61.1828 116.392 60.4535 116.52 60.2303C117.29 58.8672 116.46 56.8703 114.847 56.8703H111.566V61.1828Z" fill="white"/>
<path d="M77.3937 55.0414C79.0812 54.7583 81.3537 55.0114 82.5012 56.4027L81.0987 57.8052C80.1856 56.2433 76.7524 56.2527 76.2143 57.9852C74.9637 62.0146 82.3999 60.2071 82.6493 64.7108C82.9118 69.4489 76.5124 70.6902 73.8931 67.4389L75.2881 66.0927C76.7637 68.5321 81.5187 67.6452 80.5906 64.5027C80.2549 63.3664 76.8499 62.7758 75.7662 62.0146C73.0156 60.0814 74.0731 55.5983 77.3918 55.0396L77.3937 55.0414Z" fill="white"/>
<path d="M70.1284 55.3712V64.1837H72.0053L72.0072 65.7625L70.1284 65.8712V68.8712H68.2534V65.8712H62.8159L62.9209 63.6325L68.1503 55.2568L70.1284 55.3712ZM68.2534 64.1837V58.09C68.2534 57.9812 68.5909 57.7618 68.0678 57.6212L64.3159 64.1837H68.2534Z" fill="white"/>
</g>
<defs>
<clipPath id="clip0_8272_3776">
<rect width="128.25" height="72.1875" fill="white" transform="translate(0.190918 0.433594)"/>
</clipPath>
</defs>
</svg>
