<svg width="195" height="58" viewBox="0 0 195 58" fill="none" xmlns="http://www.w3.org/2000/svg">
<g clip-path="url(#clip0_8272_3678)">
<path d="M93.5399 36.5701C93.855 39.2844 94.9727 41.9054 95.2927 44.6423L95.7528 43.9713L97.5705 36.9763C97.9081 36.2498 99.3033 36.6761 100.041 36.5752L102.169 44.6449L104.299 36.5777L107.044 36.5726C107.337 36.8627 105.807 41.4891 105.589 42.2938C105.337 43.2322 104.226 48.2723 103.801 48.5624C103.531 48.7466 101.621 48.7466 101.161 48.686C100.936 48.6558 100.803 48.6381 100.658 48.4363L99.4958 43.8074L98.7907 41.87C98.2006 44.1353 97.4555 46.3728 97.0379 48.6785H93.795L90.5345 36.9561C90.4945 36.4692 90.527 36.5903 90.9146 36.5726C91.7872 36.5323 92.6698 36.6004 93.5399 36.5726V36.5701Z" fill="white"/>
<path d="M175.052 41.8672C175.44 45.4467 173.36 48.61 169.687 48.9405C166.076 49.2634 163.013 46.5945 162.548 43.0099C162.416 41.9933 163.051 40.1292 163.586 39.2538C165.143 36.701 168.526 35.639 171.314 36.6884C172.217 37.0289 173.702 38.0657 174.047 38.9789C174.217 39.4254 173.907 39.3017 173.72 39.385C173.182 39.6196 172.389 40.3688 171.929 40.3738C171.579 40.3764 170.589 39.2841 169.897 39.1327C168.664 38.8628 167.101 39.2185 166.299 40.2301C165.188 41.625 165.208 44.0694 166.556 45.2777C167.904 46.486 170.469 46.4986 171.679 45.1541C171.904 44.9019 172.152 44.8211 172.054 44.3973H169.054V41.8748H175.055L175.052 41.8672Z" fill="white"/>
<path d="M70.5381 36.569L72.7784 36.579C73.276 37.8353 74.3536 38.978 75.1612 40.1031C75.7463 40.9179 76.2214 41.9874 77.039 42.6231V36.569C77.7116 36.68 79.8319 36.2562 80.0269 36.96V48.2863C79.8644 48.869 78.3167 48.7429 77.7816 48.5587L74.9112 44.3914L73.2885 42.3709V48.6773H70.5381V36.569Z" fill="white"/>
<path d="M134.765 38.1133C134.833 38.1814 134.8 38.4387 134.918 38.58C136.033 39.9397 136.221 40.7923 136.518 42.5379C136.558 42.77 136.326 42.9793 136.293 43.2493C136.256 43.5646 136.341 43.8799 136.261 44.223C135.598 46.9928 132.48 49.2454 129.667 48.9326C128.787 48.8342 127.294 48.3272 126.547 47.7924C126.222 47.5578 125.422 46.738 125.174 46.4025C122.671 43.0424 124.139 38.1612 128.037 36.683C129.457 36.1457 130.677 36.2012 132.125 36.6124C133.268 36.9353 133.485 37.2102 134.3 37.9569C134.43 38.078 134.693 38.0402 134.763 38.1108L134.765 38.1133ZM129.205 39.1249C126.819 39.6496 126.074 43.0222 127.422 44.8915C129 47.076 133.175 46.2713 133.553 43.5116C133.935 40.709 132.088 38.4892 129.205 39.1249Z" fill="white"/>
<path d="M184.053 36.5693V39.3442H179.302V41.11H183.553V43.8848H179.302V45.9028H184.053V48.6777H176.552V36.5693H184.053Z" fill="white"/>
<path d="M161.802 36.5693V39.3442H157.051V41.11H161.302V43.8848H157.051V45.9028H161.802V48.6777H154.301V36.5693H161.802Z" fill="white"/>
<path d="M191.306 40.3504C191.286 40.3277 191.326 40.0477 191.184 39.8484C190.744 39.2304 189.906 38.9882 189.171 39.084C188.123 39.2203 188.231 39.6214 188.313 40.5925C188.746 40.5345 188.896 40.928 189.216 41.0693C190.064 41.4401 191.206 41.5915 192.059 41.985C193.537 42.6661 193.897 43.5187 194.274 45.06C194.037 46.4172 193.867 47.3455 192.644 48.1401C190.999 49.2096 188.156 49.1996 186.551 48.0442C186.168 47.7693 184.58 46.0791 185.053 45.6528C185.57 45.62 187.208 44.2452 187.546 44.6438C187.568 44.669 187.536 44.9415 187.671 45.1433C188.341 46.1346 190.071 46.5181 191.056 45.7815C191.524 45.4334 191.396 44.7296 190.896 44.4168C189.256 43.3901 187.258 43.8315 185.925 41.8639C184.48 39.7323 186.083 36.7683 188.463 36.3521C190.391 36.0166 192.121 36.6624 193.304 38.2011C193.699 38.7158 193.719 39.2077 193.147 39.5633C192.876 39.7323 191.401 40.4639 191.304 40.3479L191.306 40.3504Z" fill="white"/>
<path d="M89.7829 39.3337C89.1028 39.4195 88.3352 40.3352 87.6676 40.3554C87.5426 40.3579 87.4551 39.8534 87.17 39.5885C86.6224 39.079 85.9148 38.9932 85.1947 39.1244C84.2871 39.2883 84.5247 39.7626 84.5472 40.595C84.9797 40.537 85.1297 40.9305 85.4498 41.0718C86.2974 41.4426 87.4401 41.594 88.2927 41.9875C89.9954 42.772 90.468 43.9223 90.293 45.7865C90.2105 46.6719 89.6279 47.6456 88.8778 48.1426C87.255 49.2197 84.3746 49.192 82.7869 48.0467C82.4044 47.7717 80.8166 46.0816 81.2892 45.6553C81.8068 45.6225 83.4445 44.2477 83.782 44.6463C83.8046 44.6715 83.772 44.9439 83.9071 45.1457C84.5772 46.1371 86.3074 46.5205 87.2925 45.784C88.3427 44.9969 86.735 44.1443 86.1224 43.9273C84.6622 43.4077 84.1321 43.6297 82.7819 42.497C82.6369 42.376 82.3769 42.4113 82.3143 42.3482C82.2343 42.27 81.5392 40.4336 81.5242 40.2318C81.5092 40.03 81.7493 38.9755 81.8268 38.7586C82.2368 37.6209 83.7145 36.4732 84.9072 36.3168C85.8073 36.1982 87.5376 36.4404 88.2877 36.9524C88.9303 37.3914 90.0354 38.5265 89.7804 39.3413L89.7829 39.3337Z" fill="white"/>
<path d="M123.294 39.3394C122.629 39.3949 121.802 40.361 121.171 40.3661C120.819 40.3661 119.834 39.2763 119.139 39.125C116.166 38.4716 114.08 41.2011 115.086 43.9708C115.278 44.5006 115.713 44.8235 115.828 45.3658C117.231 46.2285 118.659 46.5035 120.141 45.6181C120.691 45.2901 120.809 44.6595 121.654 44.9143C121.749 44.942 123.272 45.941 123.297 46.0368C123.494 46.7482 121.659 48.0271 121.056 48.3071C115.901 50.7011 110.545 45.9157 112.338 40.52C113.698 36.4208 119.001 34.9577 122.297 37.7073C122.779 38.1084 123.277 38.6734 123.299 39.3419L123.294 39.3394Z" fill="white"/>
<path d="M140.798 36.5693V45.9028H145.049V48.6777H137.798V36.5693H140.798Z" fill="white"/>
<path d="M148.798 36.5693V45.9028H153.049V48.6777H146.048V36.5693H148.798Z" fill="white"/>
<path d="M84.291 6.29883L86.2813 6.30892C86.6213 7.20695 87.2289 8.12769 87.794 8.945C88.0666 9.34105 88.1566 10.0575 88.6691 9.32591C89.2767 8.46067 89.9468 7.28515 90.2994 6.30387L92.2947 6.29883V14.6233C91.8646 14.6284 90.2944 14.7494 90.2944 14.2449V10.3349L88.4191 13.1098C87.9415 13.2536 87.2064 11.6366 87.0114 11.2506L86.2938 10.3349V14.2449C86.2938 14.7494 84.7236 14.6284 84.2935 14.6233V6.29883H84.291Z" fill="white"/>
<path d="M105.544 10.3352V6.2991C106.101 6.34956 107.359 6.0746 107.531 6.6901V14.2326C107.399 14.7043 106.444 14.7623 106.036 14.505C105.069 13.8996 104.103 11.3367 103.043 10.5875V14.2452C103.043 14.7497 101.473 14.6286 101.043 14.6236V6.2991L102.556 6.41262C103.548 7.70418 104.316 9.28583 105.544 10.3352Z" fill="white"/>
<path d="M117.077 19.9517C117.774 19.7524 118.434 19.0057 119.164 18.9048C120.69 18.6929 122.627 19.2555 123.515 20.5823C124.905 22.6635 124.49 25.3021 122.39 26.6971C121.727 27.136 120.222 27.5926 119.457 27.4488C116.867 26.9644 115.104 24.1039 116.094 21.6065C116.376 20.8926 116.884 20.6227 117.079 19.9517H117.077ZM119.697 20.706C118.024 21.097 117.169 22.9964 118.169 24.4621C118.292 24.6412 119.052 25.408 119.192 25.4484C120.237 25.7536 122.02 25.2037 122.262 24.0509C122.422 23.2966 122.35 22.3254 121.92 21.6872C121.49 21.049 120.417 20.5395 119.697 20.706Z" fill="white"/>
<path d="M108.543 6.29883H112.669C112.799 6.29883 113.949 6.87902 114.174 7.05055C114.411 7.22966 114.994 7.82246 115.166 8.06715C116.329 9.70682 115.924 12.5371 114.291 13.7404C113.124 14.6031 110.573 14.8276 109.161 14.6309C108.953 14.6031 108.543 14.4089 108.543 14.2449V6.29883ZM110.543 12.6053C112.326 12.7818 113.944 12.6128 114.051 10.4686C114.151 8.5086 112.211 7.84516 110.543 8.06463V12.6053Z" fill="white"/>
<path d="M76.4131 6.29883H80.1637C80.2937 6.29883 81.4438 6.87902 81.6689 7.05055C84.2843 9.02573 83.8142 13.2611 80.6237 14.3332C79.8161 14.6031 77.1707 14.8276 76.4256 14.6132C76.3381 14.588 76.0381 14.2752 76.0381 14.2474V6.67974C76.0381 6.61163 76.3306 6.43 76.4131 6.30135V6.29883ZM78.0384 12.6053C82.9266 13.4604 82.654 7.4466 78.0384 8.06463V12.6053Z" fill="white"/>
<path d="M76.0381 19.29C76.0531 19.232 76.3456 18.947 76.4256 18.9243C76.8132 18.8107 78.651 18.8562 79.1685 18.9066C79.4061 18.9293 80.4162 19.1311 80.6312 19.1967C83.8042 20.1679 84.2643 24.5269 81.6714 26.4844C81.4439 26.6559 80.2937 27.2361 80.1662 27.2361H76.4156C76.3881 27.2361 76.0406 26.8855 76.0406 26.8577V19.29H76.0381ZM78.0384 20.9297V25.4703C78.4834 25.4249 78.991 25.5384 79.4186 25.4754C79.6186 25.4476 80.9588 25.0062 81.0188 24.9456C81.1313 24.8321 81.5264 23.6062 81.5464 23.3337C81.7139 21.018 79.9386 20.738 78.0384 20.9297Z" fill="white"/>
<path d="M163.05 19.2896C163.065 19.2316 163.357 18.9466 163.437 18.9239C164.297 18.6741 167.075 18.9617 167.893 19.4486C168.386 19.7437 168.818 20.3037 169.013 20.841C169.326 21.7088 169.238 22.4908 168.771 23.293C168.588 23.6058 168.131 23.8933 168.071 24.1002C167.783 25.0815 169.106 26.1737 169.303 27.1096L167.445 27.2181C167.283 27.1727 166.505 25.8609 166.335 25.5633C165.9 24.7939 166.28 24.5543 165.053 24.7132V27.2357H163.052V19.2896H163.05ZM165.05 22.9474C168.091 23.3131 168.121 20.4828 165.05 20.9293V22.9474Z" fill="white"/>
<path d="M129.546 22.9479V19.1641H131.546V27.2363L130.033 27.1228L127.918 23.9595L127.045 22.9479V27.2363H125.295V19.1641L126.808 19.2776C127.718 20.496 128.45 21.8884 129.546 22.9479Z" fill="white"/>
<path d="M123.422 6.29882C123.47 6.30639 124.21 6.61667 124.305 6.66964C125.557 7.40371 125.992 9.38645 125.172 10.5872C124.94 10.9303 124.235 11.2885 124.307 11.6996C124.39 12.1714 126.097 14.3357 125.795 14.6233C123.409 14.9134 123.857 14.3811 122.912 12.8651C122.664 12.4665 122.427 11.9292 121.919 11.8485C121.362 11.7602 121.552 12.0831 121.544 12.4791C121.507 14.4265 121.887 14.8125 119.544 14.6233V6.29882C120.734 6.43756 122.287 6.10711 123.419 6.29882H123.422ZM123.53 8.33454C123.329 8.13021 121.664 7.94354 121.547 8.06462V10.0827C122.234 10.0978 123.542 10.2567 123.782 9.43185C123.84 9.23762 123.592 8.3976 123.53 8.33201V8.33454Z" fill="white"/>
<path d="M177.304 27.2361H175.057L174.799 25.9799H171.806L171.549 27.2311L169.553 27.2361C169.476 26.9284 169.613 26.719 169.673 26.4743C170.118 24.6505 171.131 21.578 171.851 19.8425C171.941 19.6255 172.039 19.3304 172.174 19.1589C172.474 18.7704 174.439 18.7704 174.689 19.1563L177.304 27.2387V27.2361ZM174.304 24.209L173.304 21.4342L172.554 24.209H174.304Z" fill="white"/>
<path d="M106.793 27.2353L104.93 27.2227C104.335 26.8645 104.76 26.0774 103.925 25.9664C103.518 25.9135 102.01 25.8958 101.68 25.9866C101.262 26.1027 101.365 26.5971 101.262 26.8266C100.947 27.5405 99.7396 27.1394 99.042 27.2353L101.567 19.3169C101.81 18.6964 103.873 18.767 104.173 19.158L106.793 27.2353ZM103.793 24.2082C103.935 24.0669 103.368 22.4601 103.243 22.1145C103.15 21.8546 103.113 21.3703 102.793 21.4334L102.042 24.2082H103.793Z" fill="white"/>
<path d="M193.554 27.2358L191.559 27.2307L191.301 25.977H188.308L188.051 27.2333H186.053C186.051 26.9533 186.031 26.6732 186.091 26.3907C186.553 24.2213 187.891 21.8198 188.341 19.5798C188.633 18.8028 189.981 18.7347 190.664 18.9315C190.964 19.0172 191.366 19.9985 191.509 20.3492C192.109 21.8173 193.202 24.9024 193.519 26.3932C193.579 26.6758 193.559 26.9558 193.557 27.2383L193.554 27.2358ZM190.054 21.6861C189.456 21.6105 189.656 21.6811 189.521 22.0267C189.263 22.6876 189.028 23.4746 189.053 24.2087H190.554C190.699 23.3107 190.026 22.5816 190.054 21.6861Z" fill="white"/>
<path d="M142.799 27.2363L140.936 27.2237C140.341 26.8655 140.766 26.0785 139.931 25.9675C139.523 25.9145 138.016 25.8968 137.686 25.9876C137.268 26.1037 137.371 26.5981 137.268 26.8277C136.953 27.5415 135.745 27.1405 135.048 27.2363L137.573 19.318C137.813 18.6873 139.939 18.7832 140.181 19.1565L142.796 27.2388L142.799 27.2363ZM139.799 24.2092C139.941 24.068 139.373 22.4611 139.248 22.1155C139.156 21.8557 139.118 21.3713 138.798 21.4344L138.048 24.2092H139.799Z" fill="white"/>
<path d="M75.2888 6.29883V8.31688H72.0384V9.32591C74.0562 9.39654 75.4414 8.6423 75.0388 11.344H72.0384V12.6053H75.2888C75.2938 13.0391 75.4138 14.6233 74.9138 14.6233H70.4131C70.3856 14.6233 70.0381 14.2727 70.0381 14.2449V6.29883H75.2888Z" fill="white"/>
<path d="M142.675 6.29886C143.2 6.44265 143.25 8.13781 142.662 8.3043C142.142 8.45061 139.937 8.1807 139.799 8.31692V9.32594H142.55V11.344L139.799 11.4727V12.6053H143.05C143.055 13.0392 143.175 14.6233 142.675 14.6233H138.174C138.146 14.6233 137.799 14.2727 137.799 14.245V6.29886C139.114 6.53094 141.519 5.98606 142.675 6.29886Z" fill="white"/>
<path d="M74.9138 18.9114C75.4839 19.0653 75.2513 20.3947 75.2888 20.9295H72.0384V22.1908H75.0388V23.9566H72.0384V25.2178H75.2888V27.2359H70.0381V19.2898C70.0381 19.2621 70.3856 18.9114 70.4131 18.9114C71.4533 18.9114 74.1462 18.702 74.9138 18.9114Z" fill="white"/>
<path d="M95.5403 6.29883V12.2269C95.5403 12.7667 97.7906 12.7667 97.7906 12.2269V6.29883H99.7909V12.7314C99.7909 12.7692 99.5009 13.2384 99.4159 13.362C98.4082 14.8377 96.1329 15.0395 94.6977 14.086C94.3952 13.8842 93.54 12.9988 93.54 12.7314V6.29883H95.5403Z" fill="white"/>
<path d="M152.549 20.9293C152.449 21.0277 152.524 21.6155 152.794 21.8148C153.33 22.2108 154.197 22.289 154.805 22.5614C155.26 22.7632 155.53 23.1542 156.02 23.2249C156.935 24.6552 156.525 26.595 154.882 27.1954C153.96 27.5334 152.884 27.5334 151.959 27.1954C151.314 26.9583 149.682 25.7121 150.542 25.0865C150.829 24.8797 151.837 24.2137 152.039 24.4609C152.077 24.5063 152.014 24.8544 152.284 25.0991C152.584 25.3716 153.27 25.5305 153.677 25.475C154.352 25.3842 154.727 25.1546 154.545 24.4635C154.092 24.4786 153.775 24.1355 153.382 23.9943C153.177 23.9211 152.902 23.9943 152.709 23.9161C152.022 23.6386 150.639 22.8238 150.537 22.0721C150.149 19.2165 153.157 17.9855 155.295 19.5419C155.755 19.8749 156.442 20.5913 155.8 21.058C155.582 21.2144 154.82 21.7214 154.682 21.6836C154.467 21.623 154.182 21.0353 153.9 20.952C153.697 20.894 152.594 20.8814 152.547 20.9293H152.549Z" fill="white"/>
<path d="M98.7911 25.2232C98.9261 25.816 98.4885 26.2802 98.041 26.6056C96.8183 27.4935 94.7755 27.7533 93.4503 26.9512C93.0378 26.7014 92.8577 26.2348 92.3227 26.1969C92.1777 25.5612 91.4576 24.9155 91.325 24.3025C91.14 23.4448 91.275 21.9691 91.6651 21.1795C92.9578 18.5737 96.7033 17.986 98.5436 20.2966C98.9811 20.8466 98.6486 21.0862 98.1335 21.399C96.8683 22.1659 96.9783 21.1215 96.3958 20.9525C95.4756 20.6826 94.2279 20.8592 93.6679 21.6866C92.7677 23.0185 93.2203 25.1299 94.9555 25.4326C96.5133 25.705 96.7283 24.7641 97.4134 24.7036C98.0985 24.643 98.156 25.2081 98.7911 25.2232Z" fill="white"/>
<path d="M86.0393 19.1641V24.8398C86.0393 24.8752 86.4544 25.304 86.5319 25.3519C87.077 25.6925 88.5397 25.3645 88.5397 24.8398V19.1641H90.2899V25.5966C90.2899 25.7732 89.5248 26.6965 89.2898 26.8579C88.6172 27.3195 87.9471 27.1783 87.207 27.4583C86.5419 27.1202 85.9668 27.3221 85.2892 26.8579C84.4891 26.308 84.4316 25.7202 84.2541 24.8752C84.2191 24.7087 84.0391 24.6179 84.0391 24.5876V19.1641H86.0393Z" fill="white"/>
<path d="M145.049 19.1641V24.8398C145.049 25.3519 146.537 25.7127 147.059 25.3544C147.137 25.3015 147.549 24.633 147.549 24.5876V19.1641H149.3V25.5966C149.3 25.8136 148.652 26.5249 148.392 26.699C148.047 26.9336 146.517 27.5138 146.217 27.4583C146.084 27.433 145.924 27.2741 145.674 27.2338C144.804 27.0875 144.254 27.0849 143.674 26.2273C143.559 26.0557 143.049 24.9155 143.049 24.8398V19.1641H145.049Z" fill="white"/>
<path d="M137.046 8.31727C136.629 8.22646 135.528 9.36918 135.301 9.06899C135.248 8.99836 135.361 8.70827 135.271 8.60232C135.231 8.55439 134.238 8.12051 134.138 8.09528C133.413 7.92122 132.005 8.38033 131.66 9.06395C131.605 9.17242 131.28 10.3782 131.28 10.4615C131.28 10.6582 131.768 11.9397 131.913 12.1087C132.383 12.6536 134.001 12.7721 134.648 12.5829C134.933 12.4997 135.198 11.9245 135.438 11.8539C135.643 11.7934 137.179 12.5249 137.046 12.9815C137.026 13.0496 136.193 13.8896 136.046 13.9905C135.176 14.5909 133.466 14.8104 132.453 14.5884C131.343 14.3437 129.683 12.6233 129.54 11.473C129.288 9.44738 129.823 7.54284 131.705 6.58426C132.265 6.29921 132.433 6.39255 132.921 6.29669C133.206 6.24119 133.443 6.0293 133.671 6.0293C133.736 6.0293 134.728 6.28408 134.881 6.33453C135.553 6.56156 136.366 7.10896 136.796 7.68158C136.961 7.90104 137.141 7.92375 137.046 8.31222V8.31727Z" fill="white"/>
<path d="M112.294 18.9111V20.9292H110.294V27.2356H108.293V20.9292H106.293V18.9111H112.294Z" fill="white"/>
<path d="M179.804 18.9118V25.2182C181.819 25.2888 183.207 24.5346 182.804 27.2362H177.804V19.2901C177.804 18.7856 179.374 18.9067 179.804 18.9118Z" fill="white"/>
<path d="M162.553 19.1641C162.825 21.2376 162.025 20.9854 160.302 20.9299V27.2363H158.552V20.9299H156.552V19.1641H162.553Z" fill="white"/>
<path d="M128.546 6.29883H126.546V14.6233H128.546V6.29883Z" fill="white"/>
<path d="M185.303 18.9118V27.2362H183.303V19.2901C183.303 18.7856 184.873 18.9067 185.303 18.9118Z" fill="white"/>
<path d="M115.043 19.1641V26.8579C115.043 27.3624 113.473 27.2413 113.043 27.2363V19.1641H115.043Z" fill="white"/>
<path d="M16.0306 24.7136C16.0456 24.9987 16.0356 25.2711 15.9906 25.5562C15.8631 26.3836 15.358 27.5187 15.2755 28.3663C14.7329 33.8907 17.3933 39.2058 22.7015 41.07C22.8891 41.1356 23.0866 41.1078 23.2791 41.1154C23.4616 42.2884 22.9141 43.2394 22.5765 44.3115C22.4365 44.7554 22.369 46.0167 21.8989 46.1504C21.6539 46.2211 20.3287 45.9436 19.9461 45.8629C8.3545 43.4235 4.0914 29.6705 8.3945 19.4087C12.8151 8.85927 23.2816 1.52112 34.4132 0.249741C55.3587 -2.14418 66.6178 15.2515 57.2514 34.1379C48.1751 52.4417 24.7093 62.8246 5.76913 53.6046C3.77885 52.636 1.47353 51.0896 0.0283203 49.4323C0.513389 49.3339 0.785928 49.4878 1.19599 49.6417C3.85636 50.6255 6.51174 52.3433 9.26963 53.3524C27.7848 60.1204 50.438 48.5368 56.2388 29.5847C58.9142 20.8465 56.1788 11.3566 48.3752 6.33166C33.1505 -3.47105 12.6126 10.1382 10.2498 26.825C10.2273 26.9789 10.0297 27.0647 10.0297 27.1075V31.522L10.5348 29.3829C10.3473 28.5353 10.6798 27.824 10.7848 27.1126C10.8424 26.7165 10.9274 24.7111 11.4049 24.7111H16.0306V24.7136ZM10.5298 33.0381V32.0291H10.2798V33.0381H10.5298Z" fill="white"/>
<path d="M51.0357 25.2178C51.4107 25.5835 49.9855 29.5515 49.6705 30.273C46.7201 37.0184 39.8666 43.0044 32.8631 45.1007C31.8705 45.3983 30.8253 45.7212 29.7827 45.6506C29.5751 45.4437 30.7953 42.2703 30.5353 41.617C31.6704 41.3774 33.0206 41.0015 34.1108 40.5575C39.6016 38.3225 44.4348 32.9343 45.7449 27.0693C45.88 26.4614 45.7599 25.8156 46.035 25.2178H51.0357ZM42.7845 35.8126C42.0869 35.6234 42.3119 36.4256 41.7919 36.703C41.4868 36.8645 41.0643 36.7964 41.0343 36.8216C40.8942 36.9452 41.2793 37.485 41.2993 37.7045C41.3393 38.1157 41.0293 38.3225 41.1593 38.5874C41.5418 37.8256 42.7245 38.4032 42.7845 38.3351C42.8195 38.2973 42.7395 37.9542 42.817 37.7398C42.947 37.3791 43.4546 37.2075 43.5346 36.8216H42.7845V35.8126Z" fill="white"/>
<path d="M31.5319 5.79408C31.907 6.18003 30.2992 11.3841 30.2692 12.3427C27.6414 12.9203 25.181 14.1463 23.0332 15.7633C22.6056 16.0862 20.8279 17.8267 20.6329 17.8822C19.8803 18.1017 19.4102 17.6855 18.9101 17.6476C18.2 17.5947 14.687 17.8066 14.5295 17.6527C14.277 17.4055 14.9671 16.4267 15.1571 16.1417C17.4574 12.6883 22.1756 8.70513 26.0211 7.17393C26.7587 6.88131 31.2544 5.51155 31.5319 5.7966V5.79408Z" fill="white"/>
<path d="M50.7865 17.6473C49.7989 17.9677 48.8687 17.8088 47.9061 17.8971C47.6361 17.9223 47.426 18.1418 47.166 18.1594C46.3459 18.2124 45.5008 18.1292 44.6781 18.1367L42.7929 15.4981C41.2076 14.2721 39.6224 12.8191 37.5346 12.6047C37.2471 12.3474 38.5423 9.03781 38.7398 8.39707C38.9373 7.75634 39.0423 6.96678 39.2899 6.30334C39.5849 5.98045 42.0378 6.93398 42.5453 7.17363C45.0207 8.3441 47.6011 10.6548 49.0037 13.0184C49.3763 13.6465 51.1966 17.2841 50.7865 17.6499V17.6473Z" fill="white"/>
<path d="M49.0364 19.668V20.9293H50.2866L49.3089 22.0871C49.1339 22.69 49.654 23.4821 48.6763 23.187C48.4813 23.1264 48.3438 22.7657 48.1387 22.7077C47.8262 22.6194 47.0211 23.4266 46.7886 23.1996C46.5235 22.9397 47.4487 22.405 47.2886 21.8147C47.1711 21.3909 46.306 21.6381 46.5385 20.9293L48.0262 20.9192L48.1563 20.4273L49.0364 19.6705V19.668Z" fill="white"/>
<path d="M36.5333 8.31597C36.7233 9.03491 35.6707 9.04247 35.5507 9.46879C35.4581 9.7942 35.5707 10.2331 35.5332 10.5863C35.0106 10.7402 34.8581 10.0111 34.428 10.0893C34.1405 10.1423 33.7254 10.7124 33.2828 10.5863C33.2528 10.1448 33.5829 9.93042 33.5454 9.44861C33.5054 8.934 32.9253 8.86589 33.0328 8.31597L34.528 8.31093C34.583 7.8493 34.798 7.21109 35.2831 7.05469C35.1431 8.11669 35.4956 8.45724 36.5333 8.31597Z" fill="white"/>
<path d="M15.7812 20.6773H17.0314C17.2164 21.3306 16.4713 21.3256 16.0362 21.4391L16.0312 22.9476C15.4936 23.0788 15.3836 22.4204 14.9061 22.428C14.581 22.433 14.226 22.8492 13.7809 22.6954C13.6934 22.3271 14.0434 22.1202 14.0459 21.8125C14.0509 21.3281 13.4008 21.2197 13.5309 20.6773C14.9986 21.0229 14.8361 20.0113 15.7812 19.416V20.6773Z" fill="white"/>
<path d="M28.5337 43.3804C27.8136 44.2179 26.9835 44.2507 27.2835 45.6507C26.7509 45.787 26.6559 45.1361 26.1584 45.1336C25.7783 45.1336 25.2807 45.9055 25.0332 45.6507C24.8057 45.4161 25.6208 44.5913 25.5333 44.2658C25.4208 43.8421 24.5481 44.0867 24.7832 43.3804L26.2784 43.3754C26.3334 42.9137 26.5484 42.2755 27.0335 42.1191C26.861 43.3855 27.431 43.4914 28.5337 43.3804Z" fill="white"/>
</g>
<defs>
<clipPath id="clip0_8272_3678">
<rect width="194.25" height="57" fill="white" transform="translate(0.0283203 0.0273438)"/>
</clipPath>
</defs>
</svg>
