<svg width="144" height="91" viewBox="0 0 144 91" fill="none" xmlns="http://www.w3.org/2000/svg">
<path d="M43.6333 43.6025C43.9897 44.0505 44.3462 44.4989 44.7026 44.8574C48.7543 49.1919 54.7242 52.0168 61.1597 52.7646L61.0083 53.2822C60.2875 53.19 59.5749 53.0711 58.8726 52.9229C52.9909 51.6682 46.5741 48.6211 43.6333 43.6025ZM80.1714 0.855469H80.5278C87.3897 0.855469 93.6285 3.63322 97.104 8.83105C97.4605 9.3687 97.8171 9.90692 98.0845 10.5342C104.411 22.7222 95.8558 40.3764 81.8647 48.6211C78.3421 50.6876 74.6414 52.0979 70.9585 52.8545C70.9697 52.8177 70.9834 52.7816 70.9927 52.7441L71.1167 52.2012C75.9251 51.1014 80.7312 48.858 84.9839 45.6641C97.7277 35.9854 102.183 18.3303 93.5386 8.74121C88.9936 3.72292 81.2409 1.66137 73.3989 3.99121C66.2697 6.05237 59.6749 11.6089 56.021 18.3301C55.6392 19.0355 55.2953 19.7535 54.9888 20.4775C54.2856 20.7707 53.7192 21.4069 53.5259 22.1846L51.8345 26.5293C52.403 20.0186 55.9241 12.983 61.6353 7.93457C67.1604 3.09531 73.9334 0.675802 80.1714 0.675781V0.855469ZM60.5317 29.4697C61.0675 32.8714 63.2119 35.4911 66.3403 36.6602C66.0543 37.1313 65.7644 37.5662 65.4683 37.957L63.9126 43.3027C62.0063 42.9477 60.2128 42.2862 58.605 41.3623C54.4009 38.8671 52.2499 34.7638 51.8306 30.1045C52.036 30.1979 52.2766 30.25 52.5454 30.25L53.2505 30.1807C53.4919 33.3712 54.6203 36.2869 56.7339 38.4941C57.1794 38.9422 57.6253 39.3007 58.0708 39.6592C55.6345 37.2812 54.1199 33.9765 53.8979 30.1172L60.5317 29.4697ZM90.2866 29.3516C87.1021 36.114 80.5076 41.6058 73.1685 43.2432L74.3794 37.957C74.2777 37.582 74.1921 37.1742 74.1245 36.7373C76.5837 35.9892 78.9562 34.5406 80.9731 32.5801C81.9357 31.6121 82.775 30.5567 83.4673 29.4424H89.7075C89.8996 29.4423 90.0945 29.4094 90.2866 29.3516ZM72.5347 6.7002C72.4881 6.80956 72.4493 6.92272 72.4204 7.03906L70.9507 13.3564C68.8549 14.1652 66.8503 15.4742 65.1108 17.165C64.1484 18.1329 63.3099 19.1886 62.6177 20.3027H55.9722C59.1189 13.7673 65.4499 8.44677 72.5347 6.7002ZM82.3228 6.79297C88.0209 8.51073 91.8729 13.2546 92.2808 19.4902L85.5259 20.1992C84.9817 17.0752 83.0677 14.631 80.2808 13.3945L82.3228 6.79297Z" fill="white"/>
<path d="M89.7974 29.4433H82.4007C82.4007 29.4433 82.4007 29.3537 82.4007 29.264C82.4007 29.1744 82.4897 29.0848 82.4897 28.9952V27.9198V27.7405V27.1133C82.4007 27.1133 81.4204 21.0192 81.4204 21.0192C82.0442 20.84 82.4897 20.6608 82.9354 20.3918L93.1837 19.3164C93.7184 19.3164 94.1641 19.4957 94.4314 19.8542C94.6988 20.2126 94.7879 20.7504 94.6988 21.288L92.2926 27.4717C92.0252 28.5471 90.9559 29.4433 89.8865 29.4433H89.7974ZM82.4897 29.264H89.7974C90.7776 29.264 91.7579 28.4575 92.0252 27.4717L94.4314 21.288C94.5205 20.84 94.4314 20.3918 94.1641 20.0334C93.8967 19.675 93.5403 19.4957 93.0946 19.4957L82.9354 20.5712C82.5789 20.7504 82.1333 20.9296 81.5095 21.1088V21.557L82.5788 27.5613C82.5788 27.5613 82.5788 27.7405 82.5788 27.8302V28.9056C82.5788 28.9952 82.5789 29.1744 82.4897 29.264Z" fill="white"/>
<path d="M52.6348 30.4296C52.1001 30.4296 51.6545 30.2503 51.3872 29.8919C51.1198 29.5335 51.0307 28.9957 51.1198 28.458L53.526 22.2744C53.7933 21.1989 54.8627 20.3027 55.9321 20.3027H64.933C65.2894 20.5717 65.9132 20.8405 66.6261 21.0197H66.7153L66.537 21.2885L62.7941 27.3826C62.7941 27.3826 62.7051 27.4722 62.7051 27.5618L62.2594 28.6373C62.2594 28.7269 62.2594 28.9061 62.2594 28.9957V29.0853C62.1703 29.0853 62.0813 29.2645 62.0813 29.3541V29.5335H61.903L52.7239 30.4296H52.6348ZM55.9321 20.5717C54.9519 20.5717 53.9716 21.3782 53.7042 22.364L51.2981 28.5476C51.209 28.9957 51.2981 29.4438 51.5654 29.8023C51.8328 30.1607 52.1892 30.3399 52.6348 30.3399L61.7247 29.4438C61.7247 29.2645 61.8139 29.0853 61.9921 29.0853C61.9921 28.9061 61.9921 28.8165 61.9921 28.7269L62.4377 27.6514C62.4377 27.6514 62.4377 27.4722 62.5268 27.4722L62.8832 26.8449L66.2697 21.3782C65.5568 21.1989 65.0221 20.9301 64.6657 20.6613H55.754L55.9321 20.5717Z" fill="white"/>
<path d="M74.5603 18.7786C74.1147 18.4202 73.4018 18.0616 72.1541 18.0616H72.065C71.4412 18.0616 70.8174 18.0616 70.1044 18.3306H69.9263V18.241L72.5107 7.12829C72.778 6.05288 73.8473 5.24631 74.9168 5.24631L81.3332 4.1709C81.8679 4.1709 82.3135 4.35013 82.5809 4.7086C82.8482 5.06708 82.9373 5.60479 82.8482 6.14249L79.0161 18.3306C78.4814 18.241 77.9468 18.1513 77.5012 18.1513C76.1644 18.1513 75.2732 18.5098 74.7385 18.8682L74.5603 18.7786ZM72.065 17.7928C73.3126 17.7928 74.1147 18.1513 74.4711 18.5098C75.0059 18.1513 75.897 17.7928 77.2338 17.7928C77.6794 17.7928 78.2141 17.7928 78.7488 17.972L82.4917 5.96326C82.5809 5.51517 82.4917 5.06708 82.2243 4.7086C81.9571 4.35013 81.6005 4.1709 81.155 4.1709L74.7385 5.24631C73.7583 5.24631 72.778 6.05288 72.5107 7.03867L70.0154 17.972C70.7282 17.8824 71.263 17.7928 71.8868 17.7928H72.065Z" fill="white"/>
<path d="M61.9952 56.7767C61.4605 56.7767 61.0149 56.5975 60.7476 56.2391C60.4802 55.8805 60.391 55.3429 60.4802 54.8051L65.3816 37.8674C66.8966 35.8957 68.2334 33.028 69.1245 29.8018C69.3919 29.8018 69.6593 29.8018 69.9266 29.8018C70.1048 29.8018 70.2831 29.8018 70.3721 29.8018C70.4612 30.0706 70.6395 30.2498 70.9069 30.3394C71.2633 30.5187 71.5307 30.5187 71.798 30.5187H71.9763C72.2437 30.5187 72.511 30.5187 72.8675 30.3394C73.1348 30.2498 73.4022 30.0706 73.5803 29.8018C73.7586 29.8018 73.8477 29.8018 74.026 29.8018H74.1151V29.8914C73.5803 33.1176 73.5803 35.9854 74.1151 37.957L70.7286 52.744C70.4612 53.8194 69.481 54.6259 68.4116 54.7155L61.7278 56.7767H61.9952ZM65.5598 38.0466L60.6584 54.8948C60.5693 55.3429 60.6584 55.7909 60.9258 56.1495C61.1931 56.5079 61.5496 56.5975 61.9952 56.5975L68.6789 54.5363C69.6593 54.5363 70.6395 53.7297 70.9069 52.744L74.2933 37.957C73.6695 35.9854 73.6695 33.1176 74.2933 29.8914C74.2041 29.8914 74.1151 29.8914 74.026 29.8914C73.8477 30.1602 73.5803 30.3394 73.313 30.4291C72.9565 30.6083 72.6001 30.6083 72.3327 30.6083H72.1545C71.9763 30.6083 71.6197 30.6083 71.2633 30.4291C70.9959 30.3394 70.8178 30.1602 70.6395 29.8914C70.5504 29.8914 70.3721 29.8914 70.194 29.8914C70.0157 29.8914 69.7483 29.8914 69.481 29.8914C68.5898 33.1176 67.253 35.9854 65.7381 37.957L65.5598 38.0466Z" fill="white"/>
<path d="M89.7974 29.4433H82.4007C82.4007 29.4433 82.4007 29.3537 82.4007 29.264C82.4007 29.1744 82.4897 29.0848 82.4897 28.9952V27.9198V27.7405V27.1133C82.4007 27.1133 81.4204 21.0192 81.4204 21.0192C82.0442 20.84 82.4897 20.6608 82.9354 20.3918L93.1837 19.3164C93.7184 19.3164 94.1641 19.4957 94.4314 19.8542C94.6988 20.2126 94.7879 20.7504 94.6988 21.288L92.2926 27.4717C92.0252 28.5471 90.9559 29.4433 89.8865 29.4433H89.7974ZM82.4897 29.264H89.7974C90.7776 29.264 91.7579 28.4575 92.0252 27.4717L94.4314 21.288C94.5205 20.84 94.4314 20.3918 94.1641 20.0334C93.8967 19.675 93.5403 19.4957 93.0946 19.4957L82.9354 20.5712C82.5789 20.7504 82.1333 20.9296 81.5095 21.1088V21.557L82.5788 27.5613C82.5788 27.5613 82.5788 27.7405 82.5788 27.8302V28.9056C82.5788 28.9952 82.5789 29.1744 82.4897 29.264Z" fill="white"/>
<path d="M74.5603 18.7786C74.1147 18.4202 73.4018 18.0616 72.1541 18.0616H72.065C71.4412 18.0616 70.8174 18.0616 70.1044 18.3306H69.9263V18.241L72.5107 7.12829C72.778 6.05288 73.8473 5.24631 74.9168 5.24631L81.3332 4.1709C81.8679 4.1709 82.3135 4.35013 82.5809 4.7086C82.8482 5.06708 82.9373 5.60479 82.8482 6.14249L79.0161 18.3306C78.4814 18.241 77.9468 18.1513 77.5012 18.1513C76.1644 18.1513 75.2732 18.5098 74.7385 18.8682L74.5603 18.7786ZM72.065 17.7928C73.3126 17.7928 74.1147 18.1513 74.4711 18.5098C75.0059 18.1513 75.897 17.7928 77.2338 17.7928C77.6794 17.7928 78.2141 17.7928 78.7488 17.972L82.4917 5.96326C82.5809 5.51517 82.4917 5.06708 82.2243 4.7086C81.9571 4.35013 81.6005 4.1709 81.155 4.1709L74.7385 5.24631C73.7583 5.24631 72.778 6.05288 72.5107 7.03867L70.0154 17.972C70.7282 17.8824 71.263 17.7928 71.8868 17.7928H72.065Z" fill="white"/>
<path d="M61.9952 56.7767C61.4605 56.7767 61.0149 56.5975 60.7476 56.2391C60.4802 55.8805 60.391 55.3429 60.4802 54.8051L65.3816 37.8674C66.8966 35.8957 68.2334 33.028 69.1245 29.8018C69.3919 29.8018 69.6593 29.8018 69.9266 29.8018C70.1048 29.8018 70.2831 29.8018 70.3721 29.8018C70.4612 30.0706 70.6395 30.2498 70.9069 30.3394C71.2633 30.5187 71.5307 30.5187 71.798 30.5187H71.9763C72.2437 30.5187 72.511 30.5187 72.8675 30.3394C73.1348 30.2498 73.4022 30.0706 73.5803 29.8018C73.7586 29.8018 73.8477 29.8018 74.026 29.8018H74.1151V29.8914C73.5803 33.1176 73.5803 35.9854 74.1151 37.957L70.7286 52.744C70.4612 53.8194 69.481 54.6259 68.4116 54.7155L61.7278 56.7767H61.9952ZM65.5598 38.0466L60.6584 54.8948C60.5693 55.3429 60.6584 55.7909 60.9258 56.1495C61.1931 56.5079 61.5496 56.5975 61.9952 56.5975L68.6789 54.5363C69.6593 54.5363 70.6395 53.7297 70.9069 52.744L74.2933 37.957C73.6695 35.9854 73.6695 33.1176 74.2933 29.8914C74.2041 29.8914 74.1151 29.8914 74.026 29.8914C73.8477 30.1602 73.5803 30.3394 73.313 30.4291C72.9565 30.6083 72.6001 30.6083 72.3327 30.6083H72.1545C71.9763 30.6083 71.6197 30.6083 71.2633 30.4291C70.9959 30.3394 70.8178 30.1602 70.6395 29.8914C70.5504 29.8914 70.3721 29.8914 70.194 29.8914C70.0157 29.8914 69.7483 29.8914 69.481 29.8914C68.5898 33.1176 67.253 35.9854 65.7381 37.957L65.5598 38.0466Z" fill="white"/>
<path d="M89.7974 29.4433H82.4007C82.4007 29.4433 82.4007 29.3537 82.4007 29.264C82.4007 29.1744 82.4897 29.0848 82.4897 28.9952V27.9198V27.7405V27.1133C82.4007 27.1133 81.4204 21.0192 81.4204 21.0192C82.0442 20.84 82.4897 20.6608 82.9354 20.3918L93.1837 19.3164C93.7184 19.3164 94.1641 19.4957 94.4314 19.8542C94.6988 20.2126 94.7879 20.7504 94.6988 21.288L92.2926 27.4717C92.0252 28.5471 90.9559 29.4433 89.8865 29.4433H89.7974ZM82.4897 29.264H89.7974C90.7776 29.264 91.7579 28.4575 92.0252 27.4717L94.4314 21.288C94.5205 20.84 94.4314 20.3918 94.1641 20.0334C93.8967 19.675 93.5403 19.4957 93.0946 19.4957L82.9354 20.5712C82.5789 20.7504 82.1333 20.9296 81.5095 21.1088V21.557L82.5788 27.5613C82.5788 27.5613 82.5788 27.7405 82.5788 27.8302V28.9056C82.5788 28.9952 82.5789 29.1744 82.4897 29.264Z" fill="white"/>
<path d="M74.5603 18.7786C74.1147 18.4202 73.4018 18.0616 72.1541 18.0616H72.065C71.4412 18.0616 70.8174 18.0616 70.1044 18.3306H69.9263V18.241L72.5107 7.12829C72.778 6.05288 73.8473 5.24631 74.9168 5.24631L81.3332 4.1709C81.8679 4.1709 82.3135 4.35013 82.5809 4.7086C82.8482 5.06708 82.9373 5.60479 82.8482 6.14249L79.0161 18.3306C78.4814 18.241 77.9468 18.1513 77.5012 18.1513C76.1644 18.1513 75.2732 18.5098 74.7385 18.8682L74.5603 18.7786ZM72.065 17.7928C73.3126 17.7928 74.1147 18.1513 74.4711 18.5098C75.0059 18.1513 75.897 17.7928 77.2338 17.7928C77.6794 17.7928 78.2141 17.7928 78.7488 17.972L82.4917 5.96326C82.5809 5.51517 82.4917 5.06708 82.2243 4.7086C81.9571 4.35013 81.6005 4.1709 81.155 4.1709L74.7385 5.24631C73.7583 5.24631 72.778 6.05288 72.5107 7.03867L70.0154 17.972C70.7282 17.8824 71.263 17.7928 71.8868 17.7928H72.065Z" fill="white"/>
<path d="M61.9952 56.7767C61.4605 56.7767 61.0149 56.5975 60.7476 56.2391C60.4802 55.8805 60.391 55.3429 60.4802 54.8051L65.3816 37.8674C66.8966 35.8957 68.2334 33.028 69.1245 29.8018C69.3919 29.8018 69.6593 29.8018 69.9266 29.8018C70.1048 29.8018 70.2831 29.8018 70.3721 29.8018C70.4612 30.0706 70.6395 30.2498 70.9069 30.3394C71.2633 30.5187 71.5307 30.5187 71.798 30.5187H71.9763C72.2437 30.5187 72.511 30.5187 72.8675 30.3394C73.1348 30.2498 73.4022 30.0706 73.5803 29.8018C73.7586 29.8018 73.8477 29.8018 74.026 29.8018H74.1151V29.8914C73.5803 33.1176 73.5803 35.9854 74.1151 37.957L70.7286 52.744C70.4612 53.8194 69.481 54.6259 68.4116 54.7155L61.7278 56.7767H61.9952ZM65.5598 38.0466L60.6584 54.8948C60.5693 55.3429 60.6584 55.7909 60.9258 56.1495C61.1931 56.5079 61.5496 56.5975 61.9952 56.5975L68.6789 54.5363C69.6593 54.5363 70.6395 53.7297 70.9069 52.744L74.2933 37.957C73.6695 35.9854 73.6695 33.1176 74.2933 29.8914C74.2041 29.8914 74.1151 29.8914 74.026 29.8914C73.8477 30.1602 73.5803 30.3394 73.313 30.4291C72.9565 30.6083 72.6001 30.6083 72.3327 30.6083H72.1545C71.9763 30.6083 71.6197 30.6083 71.2633 30.4291C70.9959 30.3394 70.8178 30.1602 70.6395 29.8914C70.5504 29.8914 70.3721 29.8914 70.194 29.8914C70.0157 29.8914 69.7483 29.8914 69.481 29.8914C68.5898 33.1176 67.253 35.9854 65.7381 37.957L65.5598 38.0466Z" fill="white"/>
<path d="M89.7974 29.4433H82.4007C82.4007 29.4433 82.4007 29.3537 82.4007 29.264C82.4007 29.1744 82.4897 29.0848 82.4897 28.9952V27.9198V27.7405V27.1133C82.4007 27.1133 81.4204 21.0192 81.4204 21.0192C82.0442 20.84 82.4897 20.6608 82.9354 20.3918L93.1837 19.3164C93.7184 19.3164 94.1641 19.4957 94.4314 19.8542C94.6988 20.2126 94.7879 20.7504 94.6988 21.288L92.2926 27.4717C92.0252 28.5471 90.9559 29.4433 89.8865 29.4433H89.7974ZM82.4897 29.264H89.7974C90.7776 29.264 91.7579 28.4575 92.0252 27.4717L94.4314 21.288C94.5205 20.84 94.4314 20.3918 94.1641 20.0334C93.8967 19.675 93.5403 19.4957 93.0946 19.4957L82.9354 20.5712C82.5789 20.7504 82.1333 20.9296 81.5095 21.1088V21.557L82.5788 27.5613C82.5788 27.5613 82.5788 27.7405 82.5788 27.8302V28.9056C82.5788 28.9952 82.5789 29.1744 82.4897 29.264Z" fill="white"/>
<path d="M67.3374 47.457L67.5156 49.1597L69.298 49.2494L67.6047 50.3249L67.783 52.0275L66.5353 50.9521L64.8421 52.0275L65.7332 50.3249L64.5747 49.2494L66.3571 49.1597L67.3374 47.457Z" fill="white"/>
<path d="M77.3217 6.94922L77.5 8.65196L79.2823 8.74158L77.6782 9.817L77.7673 11.5198L76.5197 10.4443L74.8264 11.5198L75.7176 9.817L74.5591 8.74158L76.3414 8.65196L77.3217 6.94922Z" fill="white"/>
<path d="M89.0868 21.915L89.3541 23.6178H91.1364L89.4433 24.6932L89.5324 26.3959L88.2847 25.4101L86.5916 26.3959L87.5718 24.6932L86.3242 23.6178H88.1956L89.0868 21.915Z" fill="white"/>
<path d="M82.5802 33.835L82.7585 35.2688H84.2734L82.8476 36.165L82.9367 37.6885L81.8673 36.7923L80.4415 37.6885L81.2435 36.165L80.2632 35.2688H81.7781L82.5802 33.835Z" fill="white"/>
<path d="M57.9814 22.9014L58.1596 24.6042H59.942L58.2488 25.7692L58.4269 27.4719L57.1793 26.3965L55.4861 27.4719L56.3773 25.7692L55.2188 24.6042H57.0011L57.9814 22.9014Z" fill="white"/>
<path d="M77.4116 18.0557C78.2678 18.0557 79.3078 18.2283 80.5317 18.668L80.5435 18.6719L80.5562 18.6748C80.6784 18.7055 80.813 18.7877 80.9165 18.9004C81.0211 19.0143 81.0707 19.1329 81.0708 19.2266V19.2471L81.0737 19.2666L81.4302 21.5967V21.5996L82.3179 27.042V27.4248L82.3315 27.4648L82.4067 27.6914V33.1348L81.4888 32.458L81.0522 32.1064L80.6899 31.8477C79.8349 31.2724 78.818 30.8114 77.8169 30.4824C76.6737 30.1068 75.531 29.8975 74.6489 29.8975H74.0054L73.9282 29.9746C73.6802 30.2241 73.4466 30.3763 73.229 30.4492L73.2222 30.4512L73.2144 30.4541C72.8184 30.6134 72.5049 30.6143 72.2437 30.6143C71.9823 30.6143 71.6683 30.6135 71.272 30.4541L71.2642 30.4512L71.2573 30.4492L71.189 30.4219C71.0343 30.3523 70.9114 30.2304 70.769 30.0156L70.6909 29.8975H70.0151L70.0015 29.8984C68.2659 29.9903 65.1094 30.8084 62.5835 32.1689L60.4038 33.333L62.2349 29.1924L63.0259 27.4209L63.3716 26.8994L63.3726 26.9004L63.3765 26.8926L66.7632 21.4268L66.7642 21.4248L68.1841 19.1035C68.3244 18.8918 68.5387 18.7452 68.7573 18.6709C70.1648 18.2285 71.2961 18.0557 72.1538 18.0557C73.2532 18.0557 74.0057 18.3949 74.5034 18.7285L74.6489 18.8262L74.7954 18.7285C75.2822 18.4022 76.2104 18.0557 77.4116 18.0557Z" stroke="white" stroke-width="0.525261"/>
<path d="M71.9824 30.8701L71.0811 34.6406L71.8418 30.8594C71.8905 30.8642 71.9373 30.8679 71.9824 30.8701ZM71.9727 34.6406L72.3984 30.874C72.4443 30.8731 72.492 30.8703 72.542 30.8672L71.9727 34.6406ZM71.2871 30.7393C71.3209 30.751 71.3541 30.7617 71.3867 30.7715L70.1006 34.4619L71.2871 30.7393ZM72.9531 34.4619L73 30.7998C73.0461 30.7881 73.0932 30.7743 73.1416 30.7588L72.9531 34.4619ZM73.9326 34.1934L73.5957 30.5645C73.6427 30.5375 73.6903 30.5091 73.7373 30.4766L73.9326 34.1934ZM70.7939 30.4629C70.8327 30.5005 70.8725 30.5349 70.915 30.5654L69.2988 34.1035L70.7939 30.4629ZM68.4971 33.6553L70.332 30.1602H70.4834L68.4971 33.6553ZM74.9131 33.6553L74.168 30.1602H74.2861L74.9131 33.6553ZM74.8418 30.165C74.8946 30.1668 74.9484 30.1677 75.0029 30.1709L75.8936 33.0283L74.8418 30.165ZM67.7842 32.9385L69.6025 30.1943C69.6546 30.1889 69.7057 30.1841 69.7559 30.1797L67.7842 32.9385ZM75.8457 30.2666L76.7852 32.2217L75.7363 30.249C75.7726 30.2544 75.809 30.2607 75.8457 30.2666ZM67.1602 32.1318L68.6494 30.334C68.6931 30.326 68.7364 30.318 68.7793 30.3105L67.1602 32.1318ZM77.0664 30.5322L77.5869 31.3252L76.9668 30.5049C77 30.5136 77.0331 30.5232 77.0664 30.5322ZM66.626 31.2354L67.2412 30.6494C67.2581 30.645 67.2751 30.6411 67.292 30.6367L66.626 31.2354ZM74.4492 18.3848C74.418 18.3663 74.3853 18.3492 74.3525 18.3311L74.9131 15.5527L74.4492 18.3848ZM75.2139 18.2129C75.1715 18.2309 75.1298 18.248 75.0898 18.2666L75.8936 15.6416L75.2139 18.2129ZM73.7773 18.0693C73.7585 18.0624 73.7399 18.0546 73.7207 18.0479L73.9326 15.6416L73.7773 18.0693ZM70.2725 18.0039C70.267 18.005 70.2614 18.0057 70.2559 18.0068L70.1006 17.6133L70.2725 18.0039ZM75.9502 17.9688C75.9266 17.9746 75.9031 17.9802 75.8799 17.9863L76.6953 15.9111L75.9502 17.9688ZM78.7793 17.9209C78.7754 17.9202 78.7715 17.9196 78.7676 17.9189L79.0127 17.6133L78.7793 17.9209ZM73.0586 17.874C73.032 17.8692 73.0056 17.8628 72.9785 17.8584L72.9531 15.8213L73.0586 17.874ZM71.2949 17.8438C71.2777 17.8456 71.2605 17.8476 71.2432 17.8496L70.9922 16.8066L71.2949 17.8438ZM76.8584 17.8174C76.8325 17.8196 76.8068 17.8217 76.7812 17.8242L77.5869 16.2695L76.8584 17.8174ZM77.7637 17.8018C77.7497 17.801 77.7356 17.8014 77.7217 17.8008L78.2998 16.8965L77.7637 17.8018ZM72.2217 17.7939C72.2 17.7937 72.1782 17.793 72.1562 17.793L71.9727 16.2695L72.2217 17.7939Z" fill="white"/>
<path d="M71.6176 28.5464C70.8156 28.188 69.9244 28.0088 68.855 28.0088C69.8353 28.0088 70.8156 28.188 71.6176 28.5464Z" fill="#317F3E"/>
<path d="M77.4058 18.6885C78.2077 18.6885 79.1884 18.7784 80.436 19.2266C80.5229 19.2269 80.5249 19.3973 80.5249 19.4053L80.8813 21.7354L81.7729 27.2021L81.8618 27.9189V28.9941C81.7728 28.9046 81.6834 28.8154 81.5942 28.8154C80.2576 28.1882 78.3861 27.8291 77.0493 27.8291C75.7126 27.8291 74.3758 28.009 73.2173 28.457V28.6357C74.1083 28.2774 75.1776 28.0987 76.1577 28.0986C78.1183 28.0986 80.2578 28.7259 81.8618 29.6221H82.0396V31.7725L81.5942 31.4141C79.5446 29.8906 76.6034 29.084 74.7319 29.084C74.2866 29.084 73.9299 29.1738 73.6626 29.1738C73.5734 29.4426 73.3957 29.7118 73.1284 29.7119C72.8611 29.8015 72.6827 29.8008 72.4155 29.8008C72.1483 29.8008 71.9698 29.8014 71.7026 29.7119C71.5244 29.6223 71.3462 29.4427 71.3462 29.1738C71.0788 29.0842 72.1478 29.084 70.2769 29.084C68.4054 29.084 65.1078 29.8906 62.3452 31.4141L61.7212 31.7725L62.7017 29.6221C64.7513 28.7259 67.1572 28.0987 69.1177 28.0986C70.0978 28.0986 71.0785 28.2774 71.8804 28.6357V28.457C70.9002 28.009 70.0089 27.8291 68.4048 27.8291C66.8009 27.8291 65.0188 28.1882 63.3257 28.8154C63.2366 28.9049 63.0585 28.9939 62.9692 28.9941L63.4146 27.9189L63.8599 27.2021L67.2466 21.7354L68.6724 19.4053C68.6726 19.2263 68.8511 19.2266 68.8511 19.2266C68.9249 19.208 68.9979 19.1905 69.0698 19.1729L67.7808 21.1982C67.7443 21.2571 64.4016 26.6544 64.395 26.7539H64.8403C64.9295 26.6644 65.1079 26.665 65.1079 26.665H67.9595C68.8506 26.665 69.6531 26.7543 70.2769 26.9336C71.0788 27.1128 71.7027 27.3814 72.0591 27.5605L72.2368 26.9336L72.5044 26.127L74.0835 19.1553C74.4153 19.368 74.5542 19.5905 74.5542 19.6748C74.6433 19.4956 75.5343 18.6885 77.4058 18.6885ZM77.228 19.1367C75.8024 19.2263 75.089 19.6742 74.9106 19.8535L73.3062 26.9336L73.9302 28.0986C74.7321 27.8297 76.6035 27.2022 78.564 27.2021H80.5249C80.6139 27.2021 80.7921 27.3816 80.9702 27.3818H81.2378L80.3472 21.915L79.9907 19.6748C78.8324 19.2268 77.9409 19.1368 77.228 19.1367ZM70.0112 21.5566C70.1004 21.8254 70.3681 23.7965 70.5464 24.5137C70.5931 24.7489 70.6402 24.8854 70.687 24.9619H70.1001V24.873L69.9224 23.8867H68.853L68.4077 24.6035C68.2294 24.6931 68.229 24.873 68.229 24.873C68.229 25.0518 68.2296 25.0518 68.4077 25.0518H67.4272C67.6944 25.0516 67.7832 24.8724 67.9614 24.6035L69.8335 21.5566C69.9205 21.3817 70.0072 21.377 70.0112 21.377C70.0112 21.377 70.0112 21.4671 70.0112 21.5566ZM71.3481 24.9619L70.813 25.0518C70.7708 25.0516 70.7292 25.031 70.687 24.9619H71.3481ZM78.0298 21.377C79.1883 21.377 79.7229 22.0943 79.4556 23.0801C79.2773 23.7074 78.8322 24.1555 78.2085 24.6035H78.5649C78.8321 24.6035 79.01 24.6032 79.0991 24.5137C79.1882 24.4241 79.2778 24.3347 79.2778 24.2451V24.335C79.211 24.4022 79.0938 24.7218 79.0396 24.915L79.3667 24.9619C79.3667 25.0515 79.4556 25.0518 79.0991 25.0518H77.8521V24.7832C78.3866 24.5143 78.8321 24.0659 79.0103 23.1699C79.1885 22.3633 79.099 21.6465 78.1187 21.6465C77.1387 21.6467 76.6933 22.4528 76.5151 23.0801C76.3369 23.7074 76.5151 24.5143 76.8716 24.7832V25.0518H75.5347C75.2673 25.0518 75.2671 25.0515 75.2671 24.9619C75.2673 24.8714 75.3569 24.3346 75.3569 24.2451V24.4248C75.4461 24.6036 75.6242 24.6035 75.8022 24.6035H76.1587C75.6241 24.3347 75.5344 23.7077 75.6235 23.1699C75.8908 21.9153 76.8713 21.377 78.0298 21.377ZM68.853 23.708H69.7437L69.5659 22.543L68.853 23.708ZM72.1479 18.4199C72.8609 18.4199 73.574 18.5991 73.8413 18.7783C74.0194 18.8679 74.1088 18.9573 74.1089 19.0469L74.0835 19.1553C73.71 18.9159 73.0918 18.6885 72.1479 18.6885C71.3876 18.6885 70.3869 18.8505 69.0698 19.1729L69.2075 18.957C70.4549 18.5987 71.4352 18.4199 72.1479 18.4199Z" fill="white"/>
<path d="M2.41886 63.1699L0.190918 74.8203H5.00325L5.27061 73.2968H2.24059L2.95358 69.4432H5.62705L5.89441 68.0094H3.22094L3.84474 64.6935H6.69648L6.96384 63.1699H2.41886Z" fill="white"/>
<path d="M8.83407 63.3492C9.36878 63.2595 10.0818 63.1699 10.7947 63.1699C12.1314 63.1699 13.0226 63.6181 13.5573 64.335C14.1811 65.1415 14.3594 66.1274 14.3594 67.2924C14.3594 70.1602 13.2009 72.7591 11.9532 73.7449C10.9729 74.5515 9.99259 74.9099 8.56682 74.9099C7.14095 74.9099 7.14094 74.9099 6.69531 74.7307L8.83407 63.4389V63.3492ZM8.6559 73.2968C8.83406 73.2968 9.01234 73.2968 9.2797 73.2968C10.0818 73.2968 10.8839 72.7591 11.4185 71.7733C12.0424 70.6979 12.577 68.9056 12.577 67.0236C12.577 65.1415 12.1314 64.5143 10.8838 64.5143C9.63614 64.5143 10.4382 64.5143 10.3491 64.5143L8.6559 73.2071V73.2968Z" fill="white"/>
<path d="M21.8478 74.8196L22.5608 69.3529C22.6499 68.3671 22.9172 67.2916 23.0955 65.9474C22.6499 67.2916 22.1151 68.5463 21.7587 69.4425L19.4417 74.73H18.1941L17.9267 69.3529C17.9267 68.4567 17.9267 67.2916 17.9267 65.9474C17.6594 67.2916 17.392 68.4567 17.2137 69.4425L15.9661 74.9092H14.4512L17.3029 63.2588H19.1743L19.4417 69.3529C19.4417 70.2491 19.4417 71.2349 19.4417 72.131C19.709 71.2349 20.1547 70.2491 20.5111 69.3529L23.0063 63.2588H24.8778L23.3629 74.9092H21.8478V74.8196Z" fill="white"/>
<path d="M28.9756 63.1699L27.5497 70.7875C27.4606 71.3252 27.4606 71.7733 27.4606 72.1317C27.4606 72.9383 27.9062 73.3865 28.53 73.3865C29.1538 73.3865 29.8668 72.7591 30.2232 70.9667L31.7383 63.2595H33.4314L32.0055 70.7875C31.4708 73.5657 30.4015 74.9995 28.2626 74.9995C26.1239 74.9995 25.6782 74.0137 25.6782 72.4006C25.6782 70.7875 25.6782 71.3252 25.8565 70.6979L27.2824 63.2595H28.9756V63.1699Z" fill="white"/>
<path d="M33.3425 74.8203L35.5705 63.1699H37.1745L38.1548 68.547C38.4222 69.8913 38.6004 71.0563 38.6896 72.0421C38.8677 70.7875 39.046 69.0848 39.3134 67.382L40.1154 63.1699H41.6304L39.4024 74.8203H37.8875L36.8181 69.712C36.5507 68.2782 36.3725 67.382 36.2833 65.9481C36.1052 67.1132 35.9269 68.8158 35.5705 70.5186L34.7684 74.7307H33.2534L33.3425 74.8203Z" fill="white"/>
<path d="M43.9485 63.3492C44.4833 63.2595 45.1966 63.1699 45.9088 63.1699C47.2461 63.1699 48.137 63.6181 48.6717 64.335C49.2957 65.1415 49.4732 66.1274 49.4732 67.2924C49.4732 70.1602 48.3156 72.7591 47.0675 73.7449C46.0874 74.5515 45.1073 74.9099 43.6807 74.9099C42.2552 74.9099 42.2552 74.9099 41.8096 74.7307L43.9485 63.4389V63.3492ZM43.6807 73.2968C43.8592 73.2968 44.0378 73.2968 44.3047 73.2968C45.1073 73.2968 45.9088 72.7591 46.4435 71.7733C47.0675 70.6979 47.6023 68.9056 47.6023 67.0236C47.6023 65.1415 47.1568 64.5143 45.9088 64.5143C44.6618 64.5143 45.4634 64.5143 45.3741 64.5143L43.6807 73.2071V73.2968Z" fill="white"/>
<path d="M54.7639 63.4381C55.3868 63.3484 56.1894 63.2588 56.8134 63.2588C57.4374 63.2588 58.5951 63.4381 59.1298 63.9758C59.5753 64.4238 59.8431 65.0512 59.8431 65.8578C59.8431 67.5605 58.863 68.9944 57.5257 69.3529C58.1497 69.7113 58.5058 70.4283 58.5058 71.7725C58.5058 73.2064 58.5058 74.461 58.6844 74.8196H56.991C56.991 74.461 56.991 73.3856 56.9027 71.9518C56.9027 70.4283 56.5455 69.8905 55.6547 69.8905H55.2093L54.3174 74.73H52.625L54.7639 63.2588V63.4381ZM55.4761 68.6359H56.0108C57.2589 68.6359 58.0604 67.3812 58.0604 66.037C58.0604 64.6928 57.7043 64.6031 56.8134 64.6031C55.9215 64.6031 56.368 64.6031 56.1894 64.6031L55.4761 68.6359Z" fill="white"/>
<path d="M64.1197 63.2588L61.8915 74.9092H60.1099L62.337 63.2588H64.1197Z" fill="white"/>
<path d="M69.2895 74.7307C68.9334 74.9099 68.3987 74.9995 67.7747 74.9995C65.1011 74.9995 64.5664 72.5799 64.5664 70.9667C64.5664 68.3678 65.3679 66.0377 66.7946 64.6038C67.7747 63.6181 68.9334 63.1699 70.0911 63.1699C71.2498 63.1699 71.1605 63.2595 71.3391 63.4387L70.8044 64.9623C70.5365 64.8727 70.2697 64.7831 69.8243 64.7831C69.111 64.7831 68.3987 65.1415 67.9522 65.7688C67.0614 66.8442 66.4374 68.6366 66.4374 70.6082C66.4374 72.5799 66.8828 73.3864 68.1308 73.3864C69.3788 73.3864 69.0217 73.3863 69.2895 73.2071V74.7307Z" fill="white"/>
<path d="M76.1498 69.5321H73.387L72.6747 73.3857H75.7937L75.4365 74.9092H70.7134L72.8522 63.2588H77.4861L77.13 64.7824H74.3671L73.6548 68.0982H76.4177L76.1498 69.5321Z" fill="white"/>
<path d="M86.0731 69.5331H83.3995L82.6873 73.3867H85.717L85.4501 74.9102H80.6377L82.8648 63.2598H87.4104L87.1425 64.7833H84.2914L83.6674 68.0992H86.341L86.0731 69.5331Z" fill="white"/>
<path d="M89.2859 63.4391C89.8206 63.3494 90.5339 63.2598 91.3355 63.2598C92.6728 63.2598 93.5636 63.7079 94.0983 64.4248C94.7223 65.2314 94.8999 66.2172 94.8999 67.3822C94.8999 70.25 93.7422 72.8489 92.4942 73.8347C91.5141 74.6413 90.4446 74.9998 89.1073 74.9998C87.771 74.9998 87.6817 74.9998 87.2363 74.8205L89.3752 63.5287L89.2859 63.4391ZM89.1073 73.3867C89.2859 73.3867 89.4645 73.3867 89.7313 73.3867C90.5339 73.3867 91.3355 72.8489 91.8702 71.8631C92.4942 70.7877 93.0289 68.9954 93.0289 67.1134C93.0289 65.2314 92.5835 64.6041 91.3355 64.6041C90.0885 64.6041 90.89 64.6041 90.8008 64.6041L89.1073 73.297V73.3867Z" fill="white"/>
<path d="M99.088 63.2598L97.6624 70.8773C97.5731 71.4151 97.4838 71.8631 97.4838 72.2216C97.4838 73.0281 97.9292 73.4763 98.5533 73.4763C99.1773 73.4763 99.8906 72.8489 100.247 71.0565L101.762 63.3494H103.455L102.029 70.8773C101.495 73.6555 100.425 75.0894 98.2864 75.0894C96.1476 75.0894 95.7021 74.1036 95.7021 72.4905C95.7021 70.8773 95.7021 71.4151 95.8797 70.7877L97.3063 63.3494H98.9987L99.088 63.2598Z" fill="white"/>
<path d="M108.533 74.7317C108.177 74.9109 107.642 75.0005 106.929 75.0005C104.255 75.0005 103.721 72.5808 103.721 70.9677C103.721 68.3688 104.523 66.0387 105.949 64.6048C106.929 63.619 108.088 63.1709 109.246 63.1709C110.405 63.1709 110.316 63.2605 110.493 63.4397L109.96 64.9633C109.692 64.8737 109.425 64.7841 108.979 64.7841C108.266 64.7841 107.553 65.1425 107.018 65.7698C106.127 66.8452 105.503 68.6376 105.503 70.6092C105.503 72.5808 105.949 73.3873 107.197 73.3873C108.444 73.3873 108.088 73.3873 108.356 73.2081V74.7317H108.533Z" fill="white"/>
<path d="M112.277 71.8631L111.118 74.9102H109.425L114.148 63.2598H116.108L116.376 74.9102H114.683V71.8631H112.277ZM114.683 70.5189V67.7407C114.683 67.0238 114.683 65.8588 114.683 64.9626C114.416 65.8588 114.059 67.0238 113.792 67.7407L112.722 70.5189H114.683Z" fill="white"/>
<path d="M120.03 64.8729H117.98L118.247 63.2598H124.129L123.773 64.8729H121.722L119.851 74.9102H118.069L120.03 64.8729Z" fill="white"/>
<path d="M127.248 63.2598L125.02 74.9102H123.237L125.465 63.2598H127.248Z" fill="white"/>
<path d="M130.277 74.9993C127.96 74.9993 127.604 72.49 127.604 71.2353C127.604 68.9052 128.405 65.679 130.009 64.0659C130.633 63.4385 131.435 63.0801 132.327 63.0801C134.643 63.0801 134.911 65.4101 134.911 66.7544C134.911 69.0845 134.108 72.4004 132.593 73.9239C131.881 74.6409 131.079 74.9993 130.188 74.9993H130.277ZM130.544 73.4758C130.812 73.4758 131.168 73.2965 131.435 73.0277C132.683 71.773 133.218 68.0091 133.218 66.7544C133.218 65.4997 133.218 64.6933 132.148 64.6933C131.079 64.6933 131.524 64.8725 131.257 65.1413C130.099 66.3063 129.475 69.7118 129.475 71.4146C129.475 73.1173 129.475 73.5654 130.544 73.5654V73.4758Z" fill="white"/>
<path d="M135.357 74.9102L137.585 63.2598H139.19L140.17 68.6369C140.438 69.9811 140.615 71.1461 140.704 72.1319C140.883 70.8773 141.062 69.1746 141.328 67.4718L142.131 63.2598H143.646L141.418 74.9102H139.903L138.833 69.8019C138.566 68.368 138.388 67.4718 138.299 66.038C138.12 67.203 137.943 68.9057 137.585 70.6085L136.784 74.8205H135.269L135.357 74.9102Z" fill="white"/>
<path d="M47.408 88.0502L46.6065 90.2906H44.8237L48.7453 80.4326H50.8842V90.2906C50.9735 90.2906 49.1907 90.2906 49.1907 90.2906V88.0502H47.408ZM49.28 86.7059V84.5551C49.28 83.9278 49.4586 82.942 49.4586 82.1354C49.1908 82.8524 48.9239 83.9278 48.7453 84.4655L47.9427 86.6163H49.3693L49.28 86.7059Z" fill="white"/>
<path d="M55.6083 80.4326L54.3613 86.7955C54.272 87.2437 54.272 87.6021 54.272 87.8709C54.272 88.4087 54.5388 88.7671 54.9842 88.7671C55.4307 88.7671 55.9654 88.3191 56.2323 86.8851L57.4803 80.4326H59.262L58.1043 86.6163C57.6578 88.9464 56.767 90.3802 54.8067 90.3802C52.8464 90.3802 52.4893 89.4841 52.4893 88.0502C52.4893 86.6163 52.4893 87.0644 52.6679 86.5267L53.8266 80.4326H55.6976H55.6083Z" fill="white"/>
<path d="M59.5302 88.4075C59.8874 88.5867 60.3328 88.7659 60.8675 88.7659C61.6691 88.7659 62.2931 88.3179 62.2931 87.5113C62.2931 86.7047 61.9369 86.4359 61.3129 85.8982C60.5996 85.1812 60.1542 84.3746 60.1542 83.4784C60.1542 81.5965 61.4915 80.3418 63.3625 80.3418C65.2345 80.3418 64.6105 80.5211 64.788 80.7003L64.2533 82.2238C63.9865 82.0446 63.6304 81.955 63.1849 81.955C62.3824 81.955 61.8476 82.4926 61.8476 83.2096C61.8476 83.9266 62.0262 84.0162 62.8278 84.7331C63.6304 85.4501 63.9865 86.3463 63.9865 87.1529C63.9865 89.214 62.6502 90.3791 60.7782 90.3791C58.9072 90.3791 59.1741 90.1998 58.9072 90.0206L59.3527 88.4075H59.5302Z" fill="white"/>
<path d="M66.1247 80.4326L65.7686 82.1354H67.462L65.9471 90.2906H67.7288L69.2437 82.1354H70.9371L71.2933 80.4326H66.1247Z" fill="white"/>
<path d="M72.5421 80.6119C73.165 80.5223 73.8783 80.4326 74.5024 80.4326C75.1264 80.4326 76.1958 80.6119 76.6412 81.1496C77.0866 81.508 77.2652 82.1354 77.2652 82.7628C77.2652 84.1966 76.3733 85.3617 75.3039 85.7201C75.8386 85.9889 76.0172 86.5267 76.1065 87.6917C76.1065 88.7671 76.1065 90.0218 76.284 90.3802H74.5024C74.5024 90.1114 74.5024 89.1256 74.5024 88.0502C74.5024 86.9747 74.2345 86.4371 73.6115 86.4371H73.3436L72.6303 90.3802H70.8486L72.7196 80.7016L72.5421 80.6119ZM73.5222 84.9135H73.9676C74.8585 84.9135 75.4825 83.9278 75.4825 82.942C75.4825 81.9562 75.3039 81.8666 74.5916 81.8666C73.8783 81.8666 74.2345 81.8666 74.1462 81.8666L73.6115 84.9135H73.5222Z" fill="white"/>
<path d="M79.5804 88.0502L78.7788 90.2906H76.9961L80.9177 80.4326H83.0566V90.2906C83.1458 90.2906 81.3631 90.2906 81.3631 90.2906V88.0502H79.5804ZM81.4524 86.7059V84.5551C81.4524 83.9278 81.5417 82.942 81.631 82.1354C81.3631 82.8524 81.0963 83.9278 80.9177 84.4655L80.1151 86.6163H81.5417L81.4524 86.7059Z" fill="white"/>
<path d="M86.2666 80.4326L84.3945 90.2906H88.583L88.9401 88.6775H86.5334L88.1375 80.4326H86.2666Z" fill="white"/>
<path d="M91.6997 80.4326L89.8276 90.2906H91.6104L93.4813 80.4326H91.6997Z" fill="white"/>
<path d="M95.535 88.0502L94.7324 90.2906H92.9507L96.8712 80.4326H99.0101V90.2906C99.0994 90.2906 97.3177 90.2906 97.3177 90.2906V88.0502H95.535ZM97.4059 86.7059V84.5551C97.4059 83.9278 97.4952 82.942 97.5845 82.1354C97.3177 82.8524 97.0498 83.9278 96.783 84.4655L95.9804 86.6163H97.4059V86.7059Z" fill="white"/>
</svg>
