<svg width="1380" height="134" viewBox="0 0 1380 134" fill="none" xmlns="http://www.w3.org/2000/svg">
<path d="M12.9063 130.527V5.92734H105.306V28.8523H39.5063V130.527H12.9063ZM22.4438 80.8711V58.3398H93.9313V80.8711H22.4438ZM111.269 130.527V5.92734H137.869V130.527H111.269ZM153.234 130.527V5.92734H201.972C215.447 5.92734 226.866 8.36276 236.228 13.2336C245.62 18.0753 252.722 25.1482 257.534 34.4523C262.376 43.7273 264.797 54.9857 264.797 68.2273C264.797 80.8273 262.434 91.794 257.709 101.127C252.984 110.432 245.839 117.665 236.272 122.827C226.705 127.961 214.864 130.527 200.747 130.527H153.234ZM197.859 107.996C206.551 107.996 213.843 106.684 219.734 104.059C225.655 101.404 230.176 97.1461 233.297 91.2836C236.418 85.3919 237.978 77.7065 237.978 68.2273C237.978 58.6315 236.403 50.9023 233.253 45.0398C230.103 39.1773 225.611 34.9482 219.778 32.3523C213.974 29.7565 206.857 28.4586 198.428 28.4586H179.834V107.996H197.859ZM276.89 130.527V5.92734H373.14V28.2836H303.49V107.777H374.758V130.527H276.89ZM290.233 77.8086V56.2398H365.702V77.8086H290.233ZM413.849 130.527L461.537 5.92734H489.099L536.524 130.527H508.087L483.63 58.0773C482.201 53.644 480.845 49.2398 479.562 44.8648C478.278 40.4607 477.024 36.0419 475.799 31.6086C474.574 27.1753 473.364 22.7273 472.168 18.2648H478.205C477.009 23.0773 475.843 27.569 474.705 31.7398C473.568 35.9107 472.314 40.2419 470.943 44.7336C469.601 49.2253 468.201 53.6732 466.743 58.0773L441.805 130.527H413.849ZM443.599 102.79L446.487 83.1023H505.812L508.524 102.79H443.599ZM595.901 133.984C583.68 133.984 572.918 131.257 563.613 125.802C554.309 120.319 547.12 112.619 542.045 102.702C536.97 92.7857 534.432 81.3669 534.432 68.4461C534.432 55.4961 536.984 44.1065 542.088 34.2773C547.222 24.4482 554.411 16.8357 563.657 11.4398C572.932 6.04401 583.622 3.34609 595.726 3.34609C605.672 3.34609 614.728 5.16901 622.895 8.81484C631.091 12.4315 637.799 17.594 643.02 24.3023C648.27 31.0107 651.566 38.8711 652.907 47.8836H626.307C625.17 43.1586 623.23 39.1482 620.488 35.8523C617.747 32.5273 614.32 30.0336 610.207 28.3711C606.095 26.7086 601.486 25.8773 596.382 25.8773C589.061 25.8773 582.761 27.5398 577.482 30.8648C572.203 34.1607 568.149 38.9878 565.32 45.3461C562.52 51.7044 561.12 59.3607 561.12 68.3148C561.12 77.4732 562.52 85.2753 565.32 91.7211C568.149 98.1669 572.188 103.067 577.438 106.421C582.718 109.775 589.032 111.452 596.382 111.452C602.157 111.452 607.218 110.417 611.563 108.346C615.909 106.275 619.438 103.184 622.151 99.0711C624.863 94.9586 626.628 89.869 627.445 83.8023H653.738C652.572 94.069 649.436 102.979 644.332 110.534C639.257 118.088 632.563 123.892 624.251 127.946C615.968 131.971 606.518 133.984 595.901 133.984Z" fill="white"/>
<path d="M723.936 133.035C710.894 133.035 702.199 129.691 697.016 126.849C693.505 124.842 693.17 123.338 693.672 120.83C695.846 110.463 697.685 102.27 699.691 94.9131C700.527 91.569 701.531 89.7298 702.534 89.7298C703.537 89.7298 704.039 91.2346 704.206 94.0771C706.212 115.145 712.064 127.35 727.28 127.35C739.318 127.35 747.679 119.325 750.187 109.627C754.032 93.9099 744.669 83.7105 732.965 70.6687C721.261 57.6268 711.897 47.4275 716.077 30.7072C720.257 13.8197 735.473 2.95146 757.042 2.95146C766.74 2.95146 774.765 5.12509 779.614 7.96755C781.286 8.97076 781.955 10.4756 781.621 12.1476C780.785 18.6685 778.277 31.0416 776.605 38.0641C775.936 40.7393 774.765 41.9098 773.762 41.9098C772.926 41.9098 772.257 41.0737 772.09 38.7329C770.418 17.3309 764.566 8.63636 753.865 8.63636C743.833 8.63636 734.637 13.9869 731.627 26.0255C728.617 38.2313 736.142 47.0931 745.839 57.4596C757.376 69.6655 771.254 81.7041 765.904 102.939C761.222 121.666 744.836 133.035 723.936 133.035ZM823.428 133.035C793.833 133.035 778.45 106.283 788.148 66.823C797.679 28.3663 824.264 2.61705 854.528 2.61705C864.894 2.61705 873.087 5.2923 878.939 8.97076C881.448 10.4756 882.785 12.3148 882.618 15.1573C882.785 19.3374 881.448 32.8808 879.943 38.7329C879.441 40.7393 878.939 41.7426 877.936 41.7426C876.933 41.7426 876.431 41.0737 875.763 38.3985C871.248 17.6653 864.393 8.80356 852.02 8.80356C835.467 8.80356 816.74 26.1927 806.875 67.659C797.177 107.955 806.373 127.016 825.769 127.016C838.142 127.016 851.853 115.479 862.888 96.4179C864.226 94.0771 864.894 93.4083 865.898 93.4083C866.901 93.4083 867.402 94.4115 866.901 96.4179C863.724 107.119 860.046 116.482 857.872 121.498C856.534 124.675 855.197 126.347 851.017 128.187C843.66 131.196 835.132 133.035 823.428 133.035ZM868.718 130.527C866.043 130.527 865.207 129.357 865.374 128.354C865.541 127.518 866.711 126.514 868.718 126.347C878.081 125.01 882.261 121.498 885.104 112.135C887.11 105.28 890.789 91.0674 896.306 69.331C900.821 50.9387 906.339 28.3663 907.342 23.3502C909.014 14.4885 906.339 10.4756 898.313 9.30517C895.638 8.80356 894.802 7.96755 894.969 6.96433C895.136 5.96111 896.474 4.95789 899.149 5.12509C905.503 5.2923 910.017 6.29552 920.049 6.29552C930.917 6.29552 936.435 5.4595 941.786 5.12509C944.461 4.95789 945.297 5.96111 945.13 6.96433C944.962 7.96755 943.625 8.97076 941.284 9.30517C931.252 10.6428 927.573 15.4917 925.232 23.3502C921.052 38.0641 917.04 53.1124 913.027 69.331C907.843 90.0642 904.667 104.109 902.994 112.469C901.322 119.994 902.66 125.01 912.358 126.347C914.699 126.849 915.535 127.685 915.368 128.688C915.2 129.691 913.863 130.695 911.522 130.527C905.67 130.026 900.319 129.357 890.789 129.357C880.088 129.357 874.57 130.527 868.718 130.527ZM922.811 130.527C920.135 130.527 919.299 129.357 919.467 128.354C919.634 127.518 920.804 126.514 922.811 126.347C931.84 125.344 936.354 121.498 939.197 112.135C941.203 105.28 944.881 91.0674 950.399 69.331C954.914 50.9387 960.431 28.1991 961.435 23.183C963.274 14.4885 960.431 10.3084 952.406 9.30517C949.73 8.80356 948.894 7.96755 949.062 6.96433C949.229 5.96111 950.566 4.95789 953.242 5.12509C959.595 5.2923 964.779 6.46272 973.975 6.46272C991.531 6.46272 1000.23 5.12509 1008.25 5.12509C1014.77 5.12509 1019.62 5.79391 1023.8 6.79713C1026.81 7.29873 1027.98 9.80678 1027.31 13.9869C1025.97 23.183 1024.64 31.7104 1023.3 38.5657C1022.8 41.2409 1021.79 42.2442 1020.62 42.077C1019.96 42.077 1019.29 41.5754 1019.12 39.7361C1017.11 21.6782 1013.27 9.80678 997.216 9.97399C986.181 10.1412 981.499 14.8229 979.158 23.3502C976.984 30.8744 973.139 46.0898 970.296 56.958C968.791 62.8101 970.798 64.4822 976.316 64.4822C981.666 64.315 982.502 64.315 985.177 63.9805C993.203 62.9773 999.557 57.794 1003.9 47.9291C1004.74 45.5882 1006.24 44.2506 1007.08 44.2506C1007.92 44.2506 1008.59 45.5882 1008.08 47.9291C1006.24 55.286 1002.73 63.9805 1002.06 66.9902C1000.89 71.5047 999.557 79.6976 998.386 86.553C997.885 88.8938 996.882 89.7298 995.878 89.7298C994.875 89.7298 994.039 88.5594 994.206 86.553C995.21 74.0127 990.528 70.1671 984.174 69.6655C979.66 69.331 978.322 69.1638 974.978 69.1638C969.627 69.1638 966.618 71.1703 965.28 76.688C961.936 89.897 958.927 102.604 957.087 112.302C955.415 119.826 957.087 125.846 968.457 126.013C985.345 126.18 999.222 116.315 1011.76 103.273C1013.77 101.267 1015.61 99.9292 1016.44 99.9292C1017.61 99.762 1017.45 101.601 1015.94 104.611C1006.24 123.839 1001.73 130.527 988.521 130.527C957.756 130.527 964.11 129.357 944.213 129.357C933.679 129.357 928.663 130.527 922.811 130.527ZM1017.56 130.527C1014.89 130.527 1014.05 129.357 1014.22 128.354C1014.38 127.518 1015.39 126.514 1017.56 126.347C1027.43 125.01 1033.28 115.813 1040.47 89.3954C1045.32 72.0063 1053.84 35.556 1055.85 26.1927C1058.02 16.8293 1055.68 10.9772 1047.16 9.30517C1044.82 8.80356 1043.81 7.63315 1043.98 6.79713C1044.15 5.96111 1045.65 5.12509 1047.99 5.12509H1070.23C1073.74 5.12509 1075.25 6.46272 1076.42 9.80678C1086.78 41.4081 1094.64 64.315 1103 87.5562C1103.84 89.7298 1104.67 90.733 1105.68 90.733C1106.68 90.733 1107.52 89.5626 1108.19 86.8874C1114.87 62.6429 1116.88 53.2796 1119.22 43.5818C1123.74 23.8518 1122.9 11.4788 1111.7 9.30517C1109.36 8.80356 1108.35 7.96755 1108.52 6.96433C1108.69 5.96111 1110.19 5.12509 1112.53 5.12509C1120.56 5.2923 1125.24 6.46272 1131.76 6.46272C1135.61 6.46272 1141.96 5.4595 1146.98 5.12509C1149.48 4.95789 1150.32 5.96111 1150.15 6.96433C1149.99 7.80035 1148.82 8.80356 1146.31 9.30517C1136.28 10.81 1130.09 25.3567 1125.24 43.5818L1118.55 69.1638C1114.87 84.3793 1108.85 104.945 1102.83 129.19C1102.17 132.032 1101.5 132.701 1100.66 132.701C1099.66 132.701 1099.16 131.865 1098.65 130.36C1090.63 104.109 1067.39 37.8969 1064.55 31.0416C1063.71 29.0351 1063.21 28.5335 1062.54 28.5335C1061.87 28.5335 1061.37 29.5367 1061.03 31.0416C1054.01 58.9645 1051.34 69.331 1046.49 89.7298C1040.64 114.643 1042.64 124.842 1054.18 126.682C1056.19 127.016 1057.19 127.852 1057.02 128.855C1057.02 129.691 1055.52 130.695 1053.18 130.527C1045.82 130.026 1038.29 129.19 1034.11 129.19C1029.93 129.19 1023.58 130.527 1017.56 130.527ZM1176.79 133.035C1147.2 133.035 1131.82 106.283 1141.51 66.823C1151.05 28.3663 1177.63 2.61705 1207.89 2.61705C1218.26 2.61705 1226.45 5.2923 1232.31 8.97076C1234.81 10.4756 1236.15 12.3148 1235.98 15.1573C1236.15 19.3374 1234.81 32.8808 1233.31 38.7329C1232.81 40.7393 1232.31 41.7426 1231.3 41.7426C1230.3 41.7426 1229.8 41.0737 1229.13 38.3985C1224.61 17.6653 1217.76 8.80356 1205.39 8.80356C1188.83 8.80356 1170.11 26.1927 1160.24 67.659C1150.54 107.955 1159.74 127.016 1179.14 127.016C1191.51 127.016 1205.22 115.479 1216.25 96.4179C1217.59 94.0771 1218.26 93.4083 1219.26 93.4083C1220.27 93.4083 1220.77 94.4115 1220.27 96.4179C1217.09 107.119 1213.41 116.482 1211.24 121.498C1209.9 124.675 1208.56 126.347 1204.38 128.187C1197.03 131.196 1188.5 133.035 1176.79 133.035ZM1222.08 130.527C1219.41 130.527 1218.57 129.357 1218.74 128.354C1218.91 127.518 1220.08 126.514 1222.08 126.347C1231.45 125.01 1235.63 121.498 1238.47 112.135C1240.48 105.28 1244.16 91.0674 1249.67 69.331C1254.19 50.9387 1259.71 28.3663 1260.71 23.3502C1262.38 14.4885 1259.71 10.4756 1251.68 9.30517C1249 8.80356 1248.17 7.96755 1248.34 6.96433C1248.5 5.96111 1249.84 4.95789 1252.52 5.12509C1258.87 5.2923 1263.38 6.29552 1273.42 6.29552C1284.28 6.29552 1289.8 5.4595 1295.15 5.12509C1297.83 4.95789 1298.66 5.96111 1298.5 6.96433C1298.33 7.96755 1296.99 8.97076 1294.65 9.30517C1284.62 10.6428 1280.94 15.4917 1278.6 23.3502C1274.42 38.0641 1270.41 53.1124 1266.39 69.331C1261.21 90.0642 1258.03 104.109 1256.36 112.469C1254.69 119.994 1256.03 125.01 1265.72 126.347C1268.07 126.849 1268.9 127.685 1268.73 128.688C1268.57 129.691 1267.23 130.695 1264.89 130.527C1259.04 130.026 1253.69 129.357 1244.16 129.357C1233.45 129.357 1227.94 130.527 1222.08 130.527ZM1270.85 130.527C1268.34 130.527 1267.17 129.691 1267.34 128.688C1267.67 127.685 1268.67 127.016 1270.85 126.347C1280.38 123.17 1289.24 108.289 1294.25 99.4276C1301.44 86.7202 1320 50.9387 1333.38 25.0223C1335.05 22.0126 1336.22 19.0029 1335.55 14.6557C1335.39 12.8164 1335.72 10.9772 1337.56 9.30517C1340.74 6.96433 1345.75 4.12188 1350.94 1.44663C1351.77 0.777821 1352.61 0.610621 1353.11 0.610621C1353.78 0.610621 1354.45 1.11222 1354.45 2.44985L1356.62 72.3407C1356.96 81.2025 1358.29 102.939 1358.96 112.302C1359.63 119.826 1362.31 125.01 1367.82 126.18C1370.33 126.682 1371.17 128.019 1370.83 129.023C1370.5 130.026 1369.16 130.527 1366.49 130.36C1362.14 129.859 1358.8 129.357 1349.93 129.357C1341.07 129.357 1333.38 130.527 1324.69 130.527C1322.18 130.527 1321.17 129.524 1321.51 128.521C1321.68 127.685 1322.68 126.682 1325.02 126.514C1337.56 125.344 1341.41 121.498 1341.41 112.135L1340.74 89.3954C1340.57 86.2185 1338.56 85.7169 1335.22 85.7169H1311.14C1308.97 85.7169 1307.97 86.0513 1306.46 88.5594C1304.45 91.9035 1302.28 95.7491 1300.78 98.926C1296.09 108.624 1291.08 124.174 1303.79 126.514C1306.63 127.016 1307.3 128.019 1306.96 129.023C1306.79 129.859 1305.62 130.527 1303.28 130.527C1295.76 130.527 1291.25 129.357 1285.06 129.357C1279.54 129.357 1273.69 130.36 1270.85 130.527ZM1314.82 80.7009H1334.22C1338.06 80.7009 1340.24 79.196 1340.07 75.3504C1340.07 72.0063 1339.4 46.5914 1338.9 34.5528C1338.9 31.8776 1338.56 30.8744 1337.56 30.7072C1336.72 30.7072 1336.06 31.376 1334.89 33.5496C1328.87 44.9194 1320.34 61.9741 1312.65 76.5208C1311.31 79.196 1312.31 80.7009 1314.82 80.7009Z" fill="white"/>
</svg>
