<svg width="156" height="63" viewBox="0 0 156 63" fill="none" xmlns="http://www.w3.org/2000/svg">
<g clip-path="url(#clip0_8272_3730)">
<path d="M23.9706 2.26227C23.9706 2.98227 24.4956 3.58227 25.1856 3.68727C34.4406 4.99227 41.5806 13.0173 41.5806 22.7073C41.5806 32.3973 34.5006 40.3473 25.3206 41.7123C24.6306 41.8173 24.1056 42.4173 24.1056 43.1223C24.1056 44.0073 24.8856 44.6673 25.7556 44.5473C36.3156 42.9723 44.4306 33.7773 44.4306 22.7073C44.4306 11.6373 36.2256 2.35227 25.6056 0.852266C25.5306 0.852266 25.4706 0.852266 25.3956 0.852266C24.6156 0.852266 23.9706 1.48227 23.9706 2.29227M19.6806 0.837266C19.6806 0.837266 19.5456 0.837266 19.4856 0.837266C8.86564 2.35227 0.660645 11.5773 0.660645 22.7073C0.660645 33.8373 8.95564 43.1673 19.6656 44.5923C20.5056 44.6973 21.2556 44.0223 21.2556 43.1673C21.2556 42.4473 20.7306 41.8473 20.0256 41.7423C10.7106 40.4973 3.51064 32.4423 3.51064 22.7073C3.51064 12.9723 10.6506 4.99227 19.9056 3.68727C20.6106 3.58227 21.1206 2.98227 21.1206 2.26227C21.1206 1.45227 20.4756 0.837266 19.6956 0.822266L19.6806 0.837266Z" fill="white"/>
<path d="M27.483 18.6868C27.018 17.8468 26.388 17.2018 25.578 16.7518C24.768 16.3018 23.823 16.0918 22.743 16.0918C21.543 16.0918 20.493 16.3618 19.563 16.9018C18.633 17.4418 17.913 18.2068 17.403 19.2118C16.878 20.2168 16.623 21.3718 16.623 22.6768C16.623 23.9818 16.893 25.1968 17.418 26.2018C17.943 27.2068 18.678 27.9718 19.623 28.5118C20.568 29.0518 21.663 29.3218 22.923 29.3218C24.468 29.3218 25.728 28.9168 26.703 28.0918C27.678 27.2668 28.323 26.1268 28.638 24.6718H23.013V21.5818H32.628V23.6668C32.628 25.5718 32.043 27.4318 30.918 28.9618C30.918 28.9618 30.903 28.9918 30.888 28.9918C30.003 30.1918 28.863 31.1368 27.468 31.8718C26.073 32.5918 24.513 32.9518 22.773 32.9518C20.823 32.9518 19.068 32.5168 17.493 31.6318C15.918 30.7618 14.688 29.5318 13.788 27.9718C12.888 26.4118 12.438 24.6418 12.438 22.6618C12.438 20.6818 12.888 18.8968 13.788 17.3368C14.688 15.7618 15.918 14.5468 17.493 13.6618C19.068 12.7918 20.808 12.3418 22.743 12.3418C25.008 12.3418 26.988 12.8968 28.668 14.0068C30.348 15.1168 31.503 16.6768 32.133 18.6718H27.483V18.6868Z" fill="white"/>
<path d="M69.029 7.28719C68.609 6.53719 68.054 5.95219 67.319 5.56219C66.599 5.17219 65.759 4.96219 64.784 4.96219C63.719 4.96219 62.774 5.20219 61.949 5.68219C61.124 6.16219 60.479 6.85219 60.014 7.75219C59.549 8.65219 59.324 9.67219 59.324 10.8422C59.324 12.0122 59.564 13.0922 60.029 13.9922C60.509 14.8922 61.154 15.5822 62.009 16.0622C62.849 16.5422 63.839 16.7822 64.949 16.7822C66.329 16.7822 67.454 16.4222 68.324 15.6872C69.209 14.9522 69.779 13.9322 70.049 12.6272H64.979V9.86719H73.619V13.0172C73.379 14.2772 72.869 15.4322 72.074 16.4972C71.279 17.5622 70.259 18.4172 69.014 19.0622C67.769 19.7072 66.374 20.0222 64.814 20.0222C63.074 20.0222 61.499 19.6322 60.104 18.8522C58.694 18.0722 57.599 16.9772 56.804 15.5822C56.009 14.1872 55.604 12.6122 55.604 10.8272C55.604 9.04219 56.009 7.46719 56.804 6.07219C57.599 4.67719 58.709 3.58219 60.104 2.78719C61.514 2.00719 63.074 1.61719 64.784 1.61719C66.809 1.61719 68.579 2.11219 70.079 3.10219C71.579 4.09219 72.614 5.48719 73.169 7.27219H69.014L69.029 7.28719Z" fill="white"/>
<path d="M78.9428 19.1966C77.8478 18.5816 76.9778 17.7266 76.3478 16.6016C75.7178 15.4766 75.4028 14.1866 75.4028 12.7316C75.4028 11.2766 75.7328 9.97156 76.3628 8.86156C77.0078 7.73656 77.8928 6.88156 79.0028 6.26656C80.1278 5.65156 81.3728 5.35156 82.7378 5.35156C84.1028 5.35156 85.3628 5.65156 86.4878 6.26656C87.6128 6.88156 88.4828 7.73656 89.1278 8.86156C89.7728 9.98656 90.0878 11.2766 90.0878 12.7316C90.0878 14.1866 89.7578 15.4916 89.0978 16.6016C88.4378 17.7266 87.5378 18.5816 86.4128 19.1966C85.2878 19.8116 84.0278 20.1116 82.6328 20.1116C81.2378 20.1116 80.0228 19.8116 78.9128 19.1966H78.9428ZM84.5078 16.4816C85.0778 16.1666 85.5428 15.6866 85.8878 15.0566C86.2328 14.4266 86.3978 13.6466 86.3978 12.7316C86.3978 11.3666 86.0378 10.3316 85.3328 9.59656C84.6128 8.86156 83.7428 8.50156 82.7078 8.50156C81.6728 8.50156 80.8028 8.86156 80.1128 9.59656C79.4228 10.3316 79.0628 11.3666 79.0628 12.7316C79.0628 14.0966 79.4078 15.1316 80.0828 15.8666C80.7578 16.6016 81.6128 16.9616 82.6478 16.9616C83.3078 16.9616 83.9228 16.7966 84.4928 16.4816" fill="white"/>
<path d="M95.4135 19.1966C94.3185 18.5816 93.4485 17.7266 92.8185 16.6016C92.1885 15.4766 91.8735 14.1866 91.8735 12.7316C91.8735 11.2766 92.2035 9.97156 92.8335 8.86156C93.4785 7.73656 94.3635 6.88156 95.4735 6.26656C96.5985 5.65156 97.8435 5.35156 99.2085 5.35156C100.574 5.35156 101.834 5.65156 102.944 6.26656C104.069 6.88156 104.939 7.73656 105.584 8.86156C106.229 9.98656 106.544 11.2766 106.544 12.7316C106.544 14.1866 106.214 15.4916 105.554 16.6016C104.894 17.7266 103.994 18.5816 102.869 19.1966C101.744 19.8116 100.484 20.1116 99.0885 20.1116C97.6935 20.1116 96.4785 19.8116 95.3685 19.1966H95.4135ZM100.979 16.4816C101.549 16.1666 102.014 15.6866 102.359 15.0566C102.704 14.4266 102.869 13.6466 102.869 12.7316C102.869 11.3666 102.509 10.3316 101.804 9.59656C101.084 8.86156 100.214 8.50156 99.1785 8.50156C98.1435 8.50156 97.2735 8.86156 96.5835 9.59656C95.8935 10.3316 95.5335 11.3666 95.5335 12.7316C95.5335 14.0966 95.8785 15.1316 96.5535 15.8666C97.2285 16.6016 98.0835 16.9616 99.1185 16.9616C99.7785 16.9616 100.394 16.7966 100.964 16.4816" fill="white"/>
<path d="M109.188 8.83234C109.758 7.70734 110.553 6.85234 111.543 6.25234C112.533 5.65234 113.643 5.35234 114.873 5.35234C115.803 5.35234 116.688 5.54734 117.528 5.95234C118.368 6.35734 119.043 6.89734 119.538 7.57234V0.777344H123.198V19.8723H119.538V17.7573C119.088 18.4623 118.458 19.0323 117.648 19.4673C116.838 19.9023 115.908 20.1123 114.828 20.1123C113.628 20.1123 112.518 19.7973 111.528 19.1823C110.523 18.5673 109.743 17.6973 109.173 16.5573C108.603 15.4323 108.303 14.1423 108.303 12.6723C108.303 11.2023 108.588 9.94234 109.173 8.83234H109.188ZM119.058 10.4673C118.713 9.83734 118.248 9.35734 117.663 9.02734C117.078 8.69734 116.448 8.51734 115.773 8.51734C115.098 8.51734 114.483 8.68234 113.913 9.01234C113.343 9.34234 112.878 9.82234 112.533 10.4523C112.173 11.0823 112.008 11.8173 112.008 12.6873C112.008 13.5573 112.188 14.3073 112.533 14.9523C112.878 15.5973 113.343 16.0923 113.928 16.4373C114.498 16.7823 115.113 16.9473 115.773 16.9473C116.433 16.9473 117.078 16.7823 117.663 16.4373C118.248 16.1073 118.713 15.6273 119.058 14.9973C119.403 14.3673 119.568 13.6173 119.568 12.7323C119.568 11.8473 119.388 11.0973 119.058 10.4673Z" fill="white"/>
<path d="M58.9066 43.5413C57.9016 43.1063 57.1066 42.4913 56.5216 41.6813C55.9366 40.8713 55.6366 39.9113 55.6216 38.8163H59.4916C59.5366 39.5513 59.8066 40.1363 60.2716 40.5713C60.7516 41.0063 61.3966 41.2163 62.2216 41.2163C63.0466 41.2163 63.7216 41.0213 64.2016 40.6163C64.6816 40.2113 64.9216 39.6863 64.9216 39.0263C64.9216 38.4863 64.7566 38.0513 64.4266 37.7063C64.0966 37.3613 63.6916 37.0913 63.1966 36.8963C62.7016 36.7013 62.0266 36.4763 61.1716 36.2363C60.0016 35.8913 59.0566 35.5463 58.3216 35.2163C57.5866 34.8863 56.9566 34.3763 56.4316 33.6863C55.9066 33.0113 55.6516 32.0963 55.6516 30.9713C55.6516 29.9063 55.9216 28.9763 56.4466 28.1813C56.9866 27.3863 57.7216 26.7863 58.6966 26.3663C59.6566 25.9463 60.7666 25.7363 61.9966 25.7363C63.8566 25.7363 65.3716 26.1863 66.5266 27.0863C67.6816 27.9863 68.3266 29.2463 68.4466 30.8663H64.4716C64.4416 30.2513 64.1716 29.7413 63.6766 29.3363C63.1816 28.9313 62.5366 28.7363 61.7266 28.7363C61.0216 28.7363 60.4516 28.9163 60.0316 29.2763C59.6116 29.6363 59.4016 30.1613 59.4016 30.8513C59.4016 31.3313 59.5666 31.7363 59.8816 32.0513C60.1966 32.3663 60.6016 32.6213 61.0666 32.8313C61.5466 33.0263 62.2066 33.2513 63.0616 33.5213C64.2316 33.8663 65.1916 34.2113 65.9266 34.5563C66.6616 34.9013 67.3066 35.4113 67.8316 36.1013C68.3716 36.7913 68.6266 37.6913 68.6266 38.8163C68.6266 39.7763 68.3716 40.6763 67.8766 41.5013C67.3816 42.3263 66.6466 42.9863 65.6866 43.4813C64.7266 43.9763 63.5866 44.2163 62.2516 44.2163C60.9916 44.2163 59.8666 44.0063 58.8616 43.5713" fill="white"/>
<path d="M71.7768 32.9677C72.3768 31.8577 73.2168 31.0027 74.2818 30.3877C75.3468 29.7727 76.5768 29.4727 77.9418 29.4727C79.7118 29.4727 81.1818 29.9227 82.3368 30.8077C83.4918 31.6927 84.2718 32.9377 84.6768 34.5427H80.7768C80.5668 33.9277 80.2218 33.4327 79.7268 33.0877C79.2318 32.7427 78.6318 32.5627 77.9118 32.5627C76.8768 32.5627 76.0668 32.9377 75.4668 33.6877C74.8668 34.4377 74.5668 35.5027 74.5668 36.8677C74.5668 38.2327 74.8668 39.2827 75.4668 40.0327C76.0668 40.7827 76.8918 41.1577 77.9118 41.1577C79.3668 41.1577 80.3268 40.4977 80.7768 39.1927H84.6768C84.2868 40.7377 83.4918 41.9677 82.3218 42.8827C81.1518 43.7977 79.6818 44.2477 77.9268 44.2477C76.5468 44.2477 75.3318 43.9477 74.2668 43.3327C73.2018 42.7177 72.3618 41.8627 71.7618 40.7527C71.1618 39.6427 70.8618 38.3527 70.8618 36.8677C70.8618 35.3827 71.1618 34.0927 71.7618 32.9827L71.7768 32.9677Z" fill="white"/>
<path d="M98.2825 30.2075C99.1225 30.6875 99.7825 31.3775 100.263 32.2925C100.743 33.2075 100.968 34.3175 100.968 35.6075V43.9925H97.3525V36.0875C97.3525 34.9475 97.0675 34.0775 96.4975 33.4625C95.9275 32.8475 95.1625 32.5475 94.1725 32.5475C93.1825 32.5475 92.3875 32.8475 91.8175 33.4625C91.2475 34.0775 90.9475 34.9475 90.9475 36.0875V43.9925H87.3325V24.8975H90.9475V31.4825C91.4125 30.8675 92.0275 30.3725 92.8075 30.0275C93.5875 29.6825 94.4425 29.5025 95.3875 29.5025C96.4675 29.5025 97.4275 29.7425 98.2825 30.2075Z" fill="white"/>
<path d="M107.027 43.3177C105.932 42.7027 105.062 41.8477 104.432 40.7227C103.802 39.5977 103.487 38.3077 103.487 36.8527C103.487 35.3977 103.817 34.0927 104.447 32.9827C105.092 31.8577 105.977 31.0027 107.087 30.3877C108.212 29.7727 109.457 29.4727 110.822 29.4727C112.187 29.4727 113.447 29.7727 114.572 30.3877C115.697 31.0027 116.567 31.8577 117.212 32.9827C117.857 34.1077 118.172 35.3977 118.172 36.8527C118.172 38.3077 117.842 39.6127 117.182 40.7227C116.522 41.8477 115.622 42.7027 114.497 43.3177C113.372 43.9327 112.112 44.2327 110.717 44.2327C109.322 44.2327 108.107 43.9327 106.997 43.3177M112.592 40.6177C113.162 40.3027 113.627 39.8227 113.972 39.1927C114.317 38.5627 114.482 37.7827 114.482 36.8677C114.482 35.5027 114.122 34.4677 113.417 33.7327C112.697 32.9977 111.827 32.6377 110.792 32.6377C109.757 32.6377 108.887 32.9977 108.197 33.7327C107.507 34.4677 107.147 35.5027 107.147 36.8677C107.147 38.2327 107.492 39.2677 108.167 40.0027C108.842 40.7377 109.697 41.0977 110.732 41.0977C111.392 41.0977 112.007 40.9327 112.577 40.6177" fill="white"/>
<path d="M123.498 43.3177C122.403 42.7027 121.533 41.8477 120.903 40.7227C120.273 39.5977 119.958 38.3077 119.958 36.8527C119.958 35.3977 120.288 34.0927 120.918 32.9827C121.563 31.8577 122.448 31.0027 123.558 30.3877C124.683 29.7727 125.928 29.4727 127.308 29.4727C128.688 29.4727 129.933 29.7727 131.043 30.3877C132.168 31.0027 133.038 31.8577 133.683 32.9827C134.328 34.1077 134.643 35.3977 134.643 36.8527C134.643 38.3077 134.313 39.6127 133.653 40.7227C132.993 41.8477 132.093 42.7027 130.968 43.3177C129.843 43.9327 128.583 44.2327 127.188 44.2327C125.793 44.2327 124.578 43.9327 123.468 43.3177M129.063 40.6177C129.633 40.3027 130.098 39.8227 130.443 39.1927C130.788 38.5627 130.953 37.7827 130.953 36.8677C130.953 35.5027 130.593 34.4677 129.888 33.7327C129.168 32.9977 128.298 32.6377 127.263 32.6377C126.228 32.6377 125.373 32.9977 124.668 33.7327C123.978 34.4677 123.618 35.5027 123.618 36.8677C123.618 38.2327 123.963 39.2677 124.638 40.0027C125.313 40.7377 126.168 41.0977 127.203 41.0977C127.863 41.0977 128.478 40.9327 129.048 40.6177" fill="white"/>
<path d="M140.94 24.8975H137.325V43.9925H140.94V24.8975Z" fill="white"/>
<path d="M146.819 43.602C145.889 43.182 145.154 42.612 144.614 41.892C144.074 41.172 143.774 40.362 143.729 39.492H147.374C147.449 40.047 147.719 40.497 148.184 40.857C148.664 41.217 149.249 41.397 149.954 41.397C150.659 41.397 151.184 41.262 151.574 40.977C151.964 40.707 152.159 40.347 152.159 39.912C152.159 39.447 151.919 39.102 151.454 38.862C150.974 38.637 150.224 38.382 149.204 38.097C148.139 37.842 147.269 37.572 146.579 37.302C145.904 37.032 145.319 36.612 144.824 36.042C144.329 35.472 144.089 34.707 144.089 33.747C144.089 32.952 144.314 32.232 144.779 31.572C145.229 30.912 145.889 30.402 146.744 30.027C147.599 29.652 148.604 29.457 149.744 29.457C151.454 29.457 152.804 29.877 153.824 30.732C154.844 31.587 155.399 32.727 155.504 34.182H152.039C151.994 33.612 151.754 33.162 151.334 32.832C150.914 32.502 150.344 32.322 149.639 32.322C148.979 32.322 148.484 32.442 148.124 32.682C147.779 32.922 147.599 33.252 147.599 33.687C147.599 34.167 147.839 34.527 148.319 34.782C148.799 35.037 149.549 35.292 150.569 35.547C151.604 35.802 152.459 36.072 153.119 36.342C153.794 36.612 154.364 37.047 154.859 37.617C155.354 38.187 155.609 38.952 155.624 39.897C155.624 40.722 155.399 41.457 154.934 42.117C154.484 42.777 153.824 43.287 152.969 43.647C152.114 44.022 151.124 44.202 149.984 44.202C148.844 44.202 147.764 43.992 146.834 43.572L146.819 43.602Z" fill="white"/>
<path d="M65.5073 53.7127C65.1623 52.9327 64.6523 52.3177 63.9473 51.8677C63.2573 51.4177 62.4323 51.1927 61.4873 51.1927C60.6023 51.1927 59.8073 51.4027 59.1023 51.8077C58.3973 52.2127 57.8423 52.7977 57.4373 53.5477C57.0323 54.2977 56.8223 55.1827 56.8223 56.1727C56.8223 57.1627 57.0323 58.0477 57.4373 58.8127C57.8423 59.5777 58.3973 60.1627 59.1023 60.5677C59.8073 60.9727 60.6023 61.1827 61.4873 61.1827C62.3123 61.1827 63.0623 61.0027 63.7223 60.6427C64.3823 60.2827 64.9223 59.7727 65.3273 59.1127C65.7323 58.4527 65.9573 57.6727 66.0173 56.7877H62.4923V55.8127H67.2773V56.6827C67.2173 57.7327 66.9323 58.6627 66.4223 59.5177C65.9123 60.3577 65.2223 61.0327 64.3673 61.5127C63.5123 62.0077 62.5523 62.2477 61.4873 62.2477C60.4223 62.2477 59.3873 61.9927 58.4873 61.4677C57.5873 60.9577 56.8823 60.2377 56.3723 59.3077C55.8623 58.3777 55.5923 57.3427 55.5923 56.1727C55.5923 55.0027 55.8473 53.9527 56.3723 53.0377C56.8823 52.1077 57.5873 51.3877 58.4873 50.8777C59.3873 50.3677 60.3773 50.0977 61.4873 50.0977C62.7623 50.0977 63.8723 50.4127 64.8173 51.0577C65.7773 51.6877 66.4673 52.5727 66.8873 53.7127H65.4923H65.5073Z" fill="white"/>
<path d="M77.1604 52.8425V62.1275H75.9754V60.4925C75.7054 61.0775 75.2854 61.5125 74.7154 61.8125C74.1454 62.1125 73.5154 62.2775 72.8104 62.2775C71.7004 62.2775 70.7854 61.9325 70.0954 61.2425C69.3904 60.5525 69.0454 59.5625 69.0454 58.2575V52.8275H70.2154V58.1225C70.2154 59.1275 70.4704 59.9075 70.9654 60.4325C71.4754 60.9725 72.1654 61.2275 73.0354 61.2275C73.9054 61.2275 74.6404 60.9425 75.1804 60.3725C75.7204 59.8025 75.9754 58.9775 75.9754 57.8675V52.8125H77.1604V52.8425Z" fill="white"/>
<path d="M79.5133 50.8327C79.3483 50.6677 79.2583 50.4577 79.2583 50.2027C79.2583 49.9477 79.3483 49.7527 79.5133 49.5877C79.6783 49.4227 79.8883 49.3477 80.1283 49.3477C80.3683 49.3477 80.5633 49.4227 80.7433 49.5877C80.9083 49.7527 80.9983 49.9627 80.9983 50.2027C80.9983 50.4427 80.9083 50.6677 80.7433 50.8327C80.5783 50.9977 80.3683 51.0877 80.1283 51.0877C79.8883 51.0877 79.6933 50.9977 79.5133 50.8327ZM80.7283 62.1277H79.5433V52.8427H80.7283V62.1277Z" fill="white"/>
<path d="M83.1304 54.957C83.5204 54.237 84.0454 53.682 84.7204 53.292C85.3954 52.902 86.1604 52.707 87.0004 52.707C87.8404 52.707 88.5604 52.902 89.2054 53.307C89.8654 53.697 90.3454 54.222 90.6454 54.852V49.542H91.8304V62.127H90.6454V60.057C90.3604 60.702 89.8954 61.227 89.2504 61.647C88.6054 62.067 87.8404 62.262 86.9704 62.262C86.1004 62.262 85.3504 62.067 84.6904 61.662C84.0154 61.272 83.4904 60.702 83.1154 59.982C82.7404 59.262 82.5454 58.422 82.5454 57.462C82.5454 56.502 82.7404 55.677 83.1304 54.957ZM90.1954 55.512C89.8954 54.942 89.4754 54.507 88.9504 54.207C88.4254 53.907 87.8404 53.742 87.2104 53.742C86.5804 53.742 85.9654 53.892 85.4404 54.177C84.9154 54.477 84.5104 54.897 84.2104 55.467C83.9104 56.037 83.7604 56.697 83.7604 57.462C83.7604 58.227 83.9104 58.887 84.2104 59.457C84.5104 60.027 84.9154 60.462 85.4404 60.762C85.9654 61.062 86.5504 61.212 87.2104 61.212C87.8704 61.212 88.4254 61.062 88.9504 60.747C89.4754 60.447 89.8954 59.997 90.1954 59.442C90.4954 58.872 90.6604 58.212 90.6604 57.462C90.6604 56.712 90.5104 56.052 90.1954 55.482V55.512Z" fill="white"/>
<path d="M102.599 57.942H94.8892C94.9192 58.647 95.0992 59.247 95.3992 59.742C95.6992 60.237 96.1042 60.612 96.6142 60.867C97.1092 61.122 97.6642 61.257 98.2492 61.257C99.0142 61.257 99.6742 61.077 100.199 60.702C100.724 60.327 101.069 59.817 101.249 59.187H102.509C102.284 60.087 101.804 60.837 101.054 61.407C100.304 61.977 99.3742 62.262 98.2642 62.262C97.3942 62.262 96.6142 62.067 95.9242 61.677C95.2342 61.287 94.6942 60.732 94.3042 60.012C93.9142 59.292 93.7192 58.452 93.7192 57.492C93.7192 56.532 93.9142 55.677 94.3042 54.957C94.6942 54.237 95.2342 53.682 95.9242 53.292C96.6142 52.902 97.4092 52.707 98.2942 52.707C99.1792 52.707 99.9442 52.902 100.619 53.292C101.279 53.682 101.789 54.192 102.149 54.852C102.509 55.497 102.689 56.232 102.689 57.027C102.689 57.432 102.689 57.747 102.659 57.957M101.009 55.197C100.724 54.717 100.319 54.342 99.8242 54.087C99.3292 53.832 98.7742 53.712 98.1892 53.712C97.3042 53.712 96.5542 53.997 95.9242 54.567C95.2942 55.137 94.9492 55.932 94.8892 56.967H101.414C101.414 56.277 101.279 55.692 100.994 55.197" fill="white"/>
</g>
<defs>
<clipPath id="clip0_8272_3730">
<rect width="154.935" height="61.5" fill="white" transform="translate(0.660645 0.777344)"/>
</clipPath>
</defs>
</svg>
