<svg width="1432" height="120" viewBox="0 0 1432 120" fill="none" xmlns="http://www.w3.org/2000/svg">
<path d="M1.96367 117C-0.436328 117 -1.18633 115.95 -1.03633 115.05C-0.886328 114.3 0.163672 113.4 1.96367 113.25C10.0637 112.35 14.1137 108.9 16.6637 100.5C18.4637 94.35 21.7637 81.6 26.7137 62.1C30.7637 45.6 35.7137 25.35 36.6137 20.85C38.1137 13.05 35.7137 9.29999 28.3637 8.25C26.1137 7.79999 25.3637 7.04999 25.5137 6.15C25.6637 5.24999 26.8637 4.34999 29.2637 4.49999C34.9637 4.65 39.4637 5.69999 47.8637 5.69999C58.0637 5.69999 63.1637 4.94999 67.9637 4.65C70.3637 4.49999 71.1137 5.4 70.9637 6.29999C70.8137 7.04999 69.4637 7.94999 67.3637 8.25C58.3637 9.45 54.7637 13.65 52.6637 21C48.9137 34.2 45.0137 48.6 41.7137 62.1C37.0637 80.7 34.0637 94.05 32.5637 101.55C31.0637 108.6 33.7637 112.95 43.5137 112.95C56.5637 112.95 69.0137 103.2 81.0137 88.95C82.8137 87.15 84.1637 86.1 85.0637 86.1C85.9637 86.1 86.1137 87.3 84.7637 89.7C75.4637 110.55 71.7137 117 60.6137 117C35.8637 117 31.2137 115.95 21.3137 115.95C11.8637 115.95 7.21367 117 1.96367 117ZM78.3043 117C76.0543 117 75.0043 116.25 75.1543 115.35C75.4543 114.45 76.3543 113.85 78.3043 113.25C86.8543 110.4 94.8043 97.05 99.3043 89.1C105.754 77.7 122.404 45.6 134.404 22.35C135.904 19.65 136.954 16.95 136.354 13.05C136.204 11.4 136.504 9.74999 138.154 8.25C141.004 6.15 145.504 3.59999 150.154 1.2C150.904 0.599997 151.654 0.449998 152.104 0.449998C152.704 0.449998 153.304 0.899993 153.304 2.1L155.254 64.8C155.554 72.75 156.754 92.25 157.354 100.65C157.954 107.4 160.354 112.05 165.304 113.1C167.554 113.55 168.304 114.75 168.004 115.65C167.704 116.55 166.504 117 164.104 116.85C160.204 116.4 157.204 115.95 149.254 115.95C141.304 115.95 134.404 117 126.604 117C124.354 117 123.454 116.1 123.754 115.2C123.904 114.45 124.804 113.55 126.904 113.4C138.154 112.35 141.604 108.9 141.604 100.5L141.004 80.1C140.854 77.25 139.054 76.8 136.054 76.8H114.454C112.504 76.8 111.604 77.1 110.254 79.35C108.454 82.35 106.504 85.8 105.154 88.65C100.954 97.35 96.4543 111.3 107.854 113.4C110.404 113.85 111.004 114.75 110.704 115.65C110.554 116.4 109.504 117 107.404 117C100.654 117 96.6043 115.95 91.0543 115.95C86.1043 115.95 80.8543 116.85 78.3043 117ZM117.754 72.3H135.154C138.604 72.3 140.554 70.95 140.404 67.5C140.404 64.5 139.804 41.7 139.354 30.9C139.354 28.5 139.054 27.6 138.154 27.45C137.404 27.45 136.804 28.05 135.754 30C130.354 40.2 122.704 55.5 115.804 68.55C114.604 70.95 115.504 72.3 117.754 72.3ZM173.019 117C170.619 117 169.869 115.95 170.019 115.05C170.169 114.3 171.219 113.4 173.019 113.25C183.219 112.2 187.869 107.85 189.969 100.65C192.369 92.7 196.569 75.3 200.469 60.3C205.269 41.7 208.719 26.55 210.369 18.9C211.719 12.15 210.219 9.14999 205.869 9.14999C196.569 9.14999 186.219 21.9 178.119 34.8C176.769 36.9 175.419 38.1 174.669 38.1C173.919 38.1 173.619 36.9 174.519 34.65C177.369 26.1 180.969 16.5 184.419 9.29999C187.119 4.05 189.819 0.899993 191.769 0.899993C194.469 0.899993 196.419 4.94999 208.869 5.4C216.069 5.69999 233.469 5.84999 240.519 5.4C251.169 4.8 255.369 0.899993 258.219 0.899993C260.619 0.899993 260.169 4.8 258.369 14.55C257.319 20.55 255.819 28.5 254.019 36C253.569 37.95 252.519 39.15 251.619 39.15C251.019 39.15 250.419 38.25 250.269 36C250.119 20.85 248.469 9.14999 237.369 9.14999C231.819 9.14999 228.519 12.15 226.119 19.8C224.169 26.55 220.419 41.1 215.469 60.3C210.969 77.55 207.369 93.3 205.869 100.65C204.369 108.45 207.369 112.35 216.669 113.55C218.919 113.85 219.819 114.9 219.669 115.65C219.369 116.55 218.169 117.15 215.919 117C208.569 116.85 203.919 115.95 193.869 115.95C184.719 115.95 178.719 117 173.019 117ZM236.104 117C233.704 117 232.954 115.95 233.104 115.05C233.254 114.3 234.304 113.4 236.104 113.25C244.204 112.35 248.254 108.9 250.804 100.5C252.604 94.35 255.904 81.6 260.854 62.1C264.904 45.6 269.854 25.2 270.754 20.7C272.404 12.9 269.854 9.14999 262.654 8.25C260.254 7.79999 259.504 7.04999 259.654 6.15C259.804 5.24999 261.004 4.34999 263.404 4.49999C269.104 4.65 273.754 5.69999 282.004 5.69999C297.754 5.69999 305.554 4.49999 312.754 4.49999C318.604 4.49999 322.954 5.09999 326.704 6C329.404 6.44999 330.454 8.69999 329.854 12.45C328.654 20.7 327.454 28.35 326.254 34.5C325.804 36.9 324.904 37.8 323.854 37.65C323.254 37.65 322.654 37.2 322.504 35.55C320.704 19.35 317.254 8.69999 302.854 8.85C292.954 9 288.754 13.2 286.654 20.85C284.704 27.6 281.254 41.25 278.704 51C277.354 56.25 279.154 57.75 284.104 57.75C288.904 57.6 289.654 57.6 292.054 57.3C299.254 56.4 304.954 51.75 308.854 42.9C309.604 40.8 310.954 39.6 311.704 39.6C312.454 39.6 313.054 40.8 312.604 42.9C310.954 49.5 307.804 57.3 307.204 60C306.154 64.05 304.954 71.4 303.904 77.55C303.454 79.65 302.554 80.4 301.654 80.4C300.754 80.4 300.004 79.35 300.154 77.55C301.054 66.3 296.854 62.85 291.154 62.4C287.104 62.1 285.904 61.95 282.904 61.95C278.104 61.95 275.404 63.75 274.204 68.7C271.204 80.55 268.504 91.95 266.854 100.65C265.354 107.4 266.854 112.8 277.054 112.95C292.204 113.1 304.654 104.25 315.904 92.55C317.704 90.75 319.354 89.55 320.104 89.55C321.154 89.4 321.004 91.05 319.654 93.75C310.954 111 306.904 117 295.054 117C267.454 117 273.154 115.95 255.304 115.95C245.854 115.95 241.354 117 236.104 117ZM352.072 119.25C340.372 119.25 332.572 116.25 327.922 113.7C324.772 111.9 324.472 110.55 324.922 108.3C326.872 99 328.522 91.65 330.322 85.05C331.072 82.05 331.972 80.4 332.872 80.4C333.772 80.4 334.222 81.75 334.372 84.3C336.172 103.2 341.422 114.15 355.072 114.15C365.872 114.15 373.372 106.95 375.622 98.25C379.072 84.15 370.672 75 360.172 63.3C349.672 51.6 341.272 42.45 345.022 27.45C348.772 12.3 362.422 2.55 381.772 2.55C390.472 2.55 397.672 4.49999 402.022 7.04999C403.522 7.94999 404.122 9.29999 403.822 10.8C403.072 16.65 400.822 27.75 399.322 34.05C398.722 36.45 397.672 37.5 396.772 37.5C396.022 37.5 395.422 36.75 395.272 34.65C393.772 15.45 388.522 7.65 378.922 7.65C369.922 7.65 361.672 12.45 358.972 23.25C356.272 34.2 363.022 42.15 371.722 51.45C382.072 62.4 394.522 73.2 389.722 92.25C385.522 109.05 370.822 119.25 352.072 119.25ZM404.962 117C402.562 117 401.812 115.95 401.962 115.05C402.112 114.3 403.162 113.4 404.962 113.25C415.162 112.2 419.812 107.85 421.912 100.65C424.312 92.7 428.512 75.3 432.412 60.3C437.212 41.7 440.662 26.55 442.312 18.9C443.662 12.15 442.162 9.14999 437.812 9.14999C428.512 9.14999 418.162 21.9 410.062 34.8C408.712 36.9 407.362 38.1 406.612 38.1C405.862 38.1 405.562 36.9 406.462 34.65C409.312 26.1 412.912 16.5 416.362 9.29999C419.062 4.05 421.762 0.899993 423.712 0.899993C426.412 0.899993 428.362 4.94999 440.812 5.4C448.012 5.69999 465.412 5.84999 472.462 5.4C483.112 4.8 487.312 0.899993 490.162 0.899993C492.562 0.899993 492.112 4.8 490.312 14.55C489.262 20.55 487.762 28.5 485.962 36C485.512 37.95 484.462 39.15 483.562 39.15C482.962 39.15 482.362 38.25 482.212 36C482.062 20.85 480.412 9.14999 469.312 9.14999C463.762 9.14999 460.462 12.15 458.062 19.8C456.112 26.55 452.362 41.1 447.412 60.3C442.912 77.55 439.312 93.3 437.812 100.65C436.312 108.45 439.312 112.35 448.612 113.55C450.862 113.85 451.762 114.9 451.612 115.65C451.312 116.55 450.112 117.15 447.862 117C440.512 116.85 435.862 115.95 425.812 115.95C416.662 115.95 410.662 117 404.962 117ZM496.436 117C494.036 117 493.286 115.95 493.436 115.05C493.586 114.3 494.486 113.4 496.436 113.25C505.286 112.05 510.536 103.8 516.986 80.1C521.336 64.5 528.986 31.8 530.786 23.4C532.736 15 530.636 9.74999 522.986 8.25C520.886 7.79999 519.986 6.75 520.136 6C520.286 5.24999 521.636 4.49999 523.736 4.49999H543.686C546.836 4.49999 548.186 5.69999 549.236 8.69999C558.536 37.05 565.586 57.6 573.086 78.45C573.836 80.4 574.586 81.3 575.486 81.3C576.386 81.3 577.136 80.25 577.736 77.85C583.736 56.1 585.536 47.7 587.636 39C591.686 21.3 590.936 10.2 580.886 8.25C578.786 7.79999 577.886 7.04999 578.036 6.15C578.186 5.24999 579.536 4.49999 581.636 4.49999C588.836 4.65 593.036 5.69999 598.886 5.69999C602.336 5.69999 608.036 4.8 612.536 4.49999C614.786 4.34999 615.536 5.24999 615.386 6.15C615.236 6.9 614.186 7.79999 611.936 8.25C602.936 9.6 597.386 22.65 593.036 39L587.036 61.95C583.736 75.6 578.336 94.05 572.936 115.8C572.336 118.35 571.736 118.95 570.986 118.95C570.086 118.95 569.636 118.2 569.186 116.85C561.986 93.3 541.136 33.9 538.586 27.75C537.836 25.95 537.386 25.5 536.786 25.5C536.186 25.5 535.736 26.4 535.436 27.75C529.136 52.8 526.736 62.1 522.386 80.4C517.136 102.75 518.936 111.9 529.286 113.55C531.086 113.85 531.986 114.6 531.836 115.5C531.836 116.25 530.486 117.15 528.386 117C521.786 116.55 515.036 115.8 511.286 115.8C507.536 115.8 501.836 117 496.436 117ZM593.087 117C590.687 117 589.937 115.95 590.087 115.05C590.237 114.3 591.287 113.4 593.087 113.25C601.187 112.35 605.237 108.9 607.787 100.5C609.587 94.35 612.887 81.6 617.837 62.1C621.887 45.6 626.837 25.2 627.737 20.7C629.387 12.9 626.837 9.14999 619.637 8.25C617.237 7.79999 616.487 7.04999 616.637 6.15C616.787 5.24999 617.987 4.34999 620.387 4.49999C626.087 4.65 630.737 5.69999 638.987 5.69999C654.737 5.69999 662.537 4.49999 669.737 4.49999C675.587 4.49999 679.937 5.09999 683.687 6C686.387 6.44999 687.437 8.69999 686.837 12.45C685.637 20.7 684.437 28.35 683.237 34.5C682.787 36.9 681.887 37.8 680.837 37.65C680.237 37.65 679.637 37.2 679.487 35.55C677.687 19.35 674.237 8.69999 659.837 8.85C649.937 9 645.737 13.2 643.637 20.85C641.687 27.6 638.237 41.25 635.687 51C634.337 56.25 636.137 57.75 641.087 57.75C645.887 57.6 646.637 57.6 649.037 57.3C656.237 56.4 661.937 51.75 665.837 42.9C666.587 40.8 667.937 39.6 668.687 39.6C669.437 39.6 670.037 40.8 669.587 42.9C667.937 49.5 664.787 57.3 664.187 60C663.137 64.05 661.937 71.4 660.887 77.55C660.437 79.65 659.537 80.4 658.637 80.4C657.737 80.4 656.987 79.35 657.137 77.55C658.037 66.3 653.837 62.85 648.137 62.4C644.087 62.1 642.887 61.95 639.887 61.95C635.087 61.95 632.387 63.75 631.187 68.7C628.187 80.55 625.487 91.95 623.837 100.65C622.337 107.4 623.837 112.8 634.037 112.95C649.187 113.1 661.637 104.25 672.887 92.55C674.687 90.75 676.337 89.55 677.087 89.55C678.137 89.4 677.987 91.05 676.637 93.75C667.937 111 663.887 117 652.037 117C624.437 117 630.137 115.95 612.287 115.95C602.837 115.95 598.337 117 593.087 117ZM711.501 118.95C710.901 118.95 710.301 118.35 710.151 115.95C709.101 94.5 704.751 44.25 702.351 22.8C701.301 13.2 700.551 9.29999 692.751 8.25C690.801 7.94999 689.751 7.04999 690.051 6C690.201 5.24999 691.851 4.49999 693.951 4.49999C699.201 4.65 702.501 5.69999 708.951 5.69999C716.451 5.69999 720.201 4.8 728.901 4.8C735.801 4.8 743.001 5.84999 747.351 5.84999C755.301 5.84999 761.751 4.49999 767.751 4.65C773.601 4.94999 779.001 5.55 782.451 5.55C785.601 5.55 788.301 4.8 791.751 4.65C794.151 4.49999 795.051 5.09999 794.901 6.15C794.751 7.04999 793.701 7.94999 791.451 8.25C782.451 9.6 779.151 14.4 774.951 21C769.551 29.85 764.751 37.2 761.151 43.05C758.901 47.1 758.451 48 758.751 51.9L761.151 86.1C761.301 88.35 761.751 89.1 762.501 89.1C763.251 89.1 764.001 88.65 765.201 86.55C776.001 67.05 784.401 51.9 797.601 26.7C804.051 14.55 804.201 9.74999 799.551 8.1C797.451 7.35 796.851 6.59999 797.001 5.84999C797.151 5.09999 798.201 4.49999 800.451 4.49999C802.401 4.49999 808.251 5.69999 811.851 5.69999C815.001 5.69999 817.101 4.65 821.751 4.49999C824.001 4.49999 825.051 4.94999 824.901 6C824.751 6.59999 823.851 7.5 821.301 8.25C814.551 10.35 809.901 14.85 802.551 27.6C780.201 66.45 764.151 98.4 753.951 116.25C752.901 118.35 752.001 119.1 751.101 119.1C750.201 119.1 749.751 118.2 749.601 116.55C748.551 103.5 747.051 83.85 745.251 67.8C745.101 65.55 744.651 65.55 744.201 65.55C743.751 65.55 742.851 66.9 741.951 68.4C733.701 82.35 726.501 93.15 714.501 115.5C713.301 118.05 712.551 118.95 711.501 118.95ZM723.051 84.6C723.201 86.85 723.801 87.45 724.401 87.45C725.151 87.45 726.201 86.85 729.201 81.3C733.101 75 738.201 66.9 741.051 61.2C743.751 56.1 744.201 54.3 744.051 50.7C743.151 38.55 742.101 28.5 740.901 19.95C739.851 11.85 737.451 7.94999 730.701 7.94999C722.751 7.94999 718.551 13.2 718.701 22.65C718.851 32.7 721.401 64.95 723.051 84.6ZM757.551 37.8C757.551 38.85 757.851 39.45 758.451 39.45C759.051 39.45 759.651 38.55 760.851 36.45C764.301 30.9 767.151 25.8 770.001 20.85C775.701 10.65 772.701 7.94999 766.551 7.94999C758.901 7.94999 756.051 12 756.351 21.15C756.501 24.9 756.951 30.6 757.551 37.8ZM826.798 119.25C815.098 119.25 807.298 116.25 802.648 113.7C799.498 111.9 799.198 110.55 799.648 108.3C801.598 99 803.248 91.65 805.048 85.05C805.798 82.05 806.698 80.4 807.598 80.4C808.498 80.4 808.948 81.75 809.098 84.3C810.898 103.2 816.148 114.15 829.798 114.15C840.598 114.15 848.098 106.95 850.348 98.25C853.798 84.15 845.398 75 834.898 63.3C824.398 51.6 815.998 42.45 819.748 27.45C823.498 12.3 837.148 2.55 856.498 2.55C865.198 2.55 872.398 4.49999 876.748 7.04999C878.248 7.94999 878.848 9.29999 878.548 10.8C877.798 16.65 875.548 27.75 874.048 34.05C873.448 36.45 872.398 37.5 871.498 37.5C870.748 37.5 870.148 36.75 869.998 34.65C868.498 15.45 863.248 7.65 853.648 7.65C844.648 7.65 836.398 12.45 833.698 23.25C830.998 34.2 837.748 42.15 846.448 51.45C856.798 62.4 869.248 73.2 864.448 92.25C860.248 109.05 845.548 119.25 826.798 119.25ZM947.677 58.8H977.527V69.45H947.677V100.35H936.877V69.45H907.027V58.8H936.877V27.75H947.677V58.8ZM1001.46 117C999.056 117 998.306 115.95 998.456 115.05C998.606 114.3 999.656 113.4 1001.46 113.25C1009.71 112.2 1013.61 108.9 1016.16 100.5C1017.96 94.35 1021.26 81.6 1026.21 62.1C1030.26 45.6 1035.21 25.35 1036.11 20.85C1037.61 13.05 1035.21 9.14999 1028.01 8.25C1025.76 7.94999 1024.86 7.04999 1025.01 6.15C1025.16 5.24999 1026.36 4.34999 1028.76 4.49999C1034.46 4.65 1038.51 5.69999 1047.51 5.69999C1053.21 5.69999 1060.86 4.49999 1068.81 4.49999C1087.56 4.65 1097.61 15.9 1093.26 30.9C1088.91 45.6 1076.31 53.25 1064.76 55.95C1062.51 56.55 1062.06 57.75 1064.01 58.05C1079.46 59.85 1088.76 70.95 1084.41 87.6C1079.31 107.4 1064.76 117.15 1044.81 117.15C1037.01 117.15 1028.76 115.95 1020.81 115.95C1011.66 115.95 1006.71 117 1001.46 117ZM1050.06 54.9C1061.16 54.75 1072.86 49.05 1077.36 31.05C1080.81 17.25 1074.96 9 1064.76 8.85C1058.76 8.85 1054.26 12.6 1052.01 21L1044.66 48.45C1043.46 53.1 1044.81 54.9 1050.06 54.9ZM1043.16 112.5C1055.16 112.5 1064.46 102.75 1068.06 88.05C1072.41 70.65 1067.31 60 1048.11 59.55C1044.36 59.4 1041.51 61.35 1040.46 65.25C1037.91 76.35 1033.56 94.35 1032.51 99.75C1030.41 109.5 1034.91 112.5 1043.16 112.5ZM1083.9 117C1081.5 117 1080.75 115.95 1080.9 115.05C1081.05 114.3 1082.1 113.4 1083.9 113.25C1092 112.35 1096.05 108.9 1098.6 100.5C1100.4 94.35 1103.7 81.6 1108.65 62.1C1112.7 45.6 1117.65 25.35 1118.55 20.85C1120.05 13.05 1117.65 9.29999 1110.3 8.25C1108.05 7.79999 1107.3 7.04999 1107.45 6.15C1107.6 5.24999 1108.8 4.34999 1111.2 4.49999C1116.9 4.65 1121.4 5.69999 1129.8 5.69999C1140 5.69999 1145.1 4.94999 1149.9 4.65C1152.3 4.49999 1153.05 5.4 1152.9 6.29999C1152.75 7.04999 1151.4 7.94999 1149.3 8.25C1140.3 9.45 1136.7 13.65 1134.6 21C1130.85 34.2 1126.95 48.6 1123.65 62.1C1119 80.7 1116 94.05 1114.5 101.55C1113 108.6 1115.7 112.95 1125.45 112.95C1138.5 112.95 1150.95 103.2 1162.95 88.95C1164.75 87.15 1166.1 86.1 1167 86.1C1167.9 86.1 1168.05 87.3 1166.7 89.7C1157.4 110.55 1153.65 117 1142.55 117C1117.8 117 1113.15 115.95 1103.25 115.95C1093.8 115.95 1089.15 117 1083.9 117ZM1202.6 119.25C1177.4 119.25 1164.05 96.15 1172.9 60.3C1182.05 24 1205 2.24999 1229.9 2.24999C1255.25 2.24999 1268.75 24.75 1259.75 60.75C1250.75 96.9 1227.5 119.25 1202.6 119.25ZM1203.95 113.85C1219.4 113.85 1233.35 96.15 1242.65 59.4C1251.2 25.35 1244 7.65 1228.55 7.65C1213.1 7.65 1199.3 24.9 1190 61.65C1181.45 95.7 1188.5 113.85 1203.95 113.85ZM1300.88 119.25C1274.48 119.25 1260.98 99.6 1270.73 60.45C1279.73 24.45 1303.58 2.24999 1330.43 2.24999C1340.78 2.24999 1350.38 6 1354.73 9.14999C1356.08 10.2 1356.53 11.55 1356.53 13.05C1356.68 18 1355.63 27.6 1354.13 34.05C1353.68 36.3 1352.78 37.05 1352.03 37.05C1351.43 37.05 1350.68 36.3 1350.38 34.8C1346.03 16.95 1340.03 7.79999 1327.73 7.79999C1312.28 7.79999 1296.53 25.95 1287.83 60.45C1279.58 94.05 1284.83 113.7 1303.58 113.7C1313.18 113.7 1321.58 109.05 1324.13 99.45C1326.83 89.55 1328.18 83.7 1328.93 79.65C1330.58 71.1 1327.58 67.5 1315.13 66.6C1312.73 66.3 1312.13 65.1 1312.43 64.2C1312.73 63.45 1314.08 62.55 1316.18 62.55C1324.73 62.55 1330.13 63.6 1340.03 63.6C1346.93 63.6 1351.58 63 1354.43 62.7C1356.23 62.55 1357.28 63.15 1357.13 64.2C1357.13 65.1 1356.08 66.45 1353.38 66.9C1347.23 67.8 1344.53 72.3 1342.88 79.05L1337.33 100.65C1336.58 103.95 1338.08 106.8 1337.33 109.65C1336.73 112.05 1332.98 112.95 1328.33 114.6C1320.83 117.15 1311.83 119.25 1300.88 119.25ZM1379.4 119.25C1367.7 119.25 1359.9 116.25 1355.25 113.7C1352.1 111.9 1351.8 110.55 1352.25 108.3C1354.2 99 1355.85 91.65 1357.65 85.05C1358.4 82.05 1359.3 80.4 1360.2 80.4C1361.1 80.4 1361.55 81.75 1361.7 84.3C1363.5 103.2 1368.75 114.15 1382.4 114.15C1393.2 114.15 1400.7 106.95 1402.95 98.25C1406.4 84.15 1398 75 1387.5 63.3C1377 51.6 1368.6 42.45 1372.35 27.45C1376.1 12.3 1389.75 2.55 1409.1 2.55C1417.8 2.55 1425 4.49999 1429.35 7.04999C1430.85 7.94999 1431.45 9.29999 1431.15 10.8C1430.4 16.65 1428.15 27.75 1426.65 34.05C1426.05 36.45 1425 37.5 1424.1 37.5C1423.35 37.5 1422.75 36.75 1422.6 34.65C1421.1 15.45 1415.85 7.65 1406.25 7.65C1397.25 7.65 1389 12.45 1386.3 23.25C1383.6 34.2 1390.35 42.15 1399.05 51.45C1409.4 62.4 1421.85 73.2 1417.05 92.25C1412.85 109.05 1398.15 119.25 1379.4 119.25Z" fill="#101820"/>
</svg>
