<svg width="80" height="71" viewBox="0 0 80 71" fill="none" xmlns="http://www.w3.org/2000/svg">
<g clip-path="url(#clip0_8272_3789)">
<path d="M79.1294 0.318222C78.7855 0.240175 72.8835 1.82221 72.2929 2.07533C71.1243 2.57736 69.9177 4.86814 68.8082 5.76252C68.4412 6.05783 66.1778 7.4226 65.8403 7.45846C64.5135 7.59346 63.2816 4.88713 62.151 4.41674C61.3347 4.07713 59.0418 3.9126 58.063 3.86197C56.9873 3.80502 53.7325 3.69955 52.874 3.96533C52.064 4.21424 50.6486 6.43752 50.0369 6.6126H0.998118V44.4759C0.998118 44.5328 0.801946 44.6699 0.825149 44.8661C0.879993 45.3597 3.70234 46.4587 4.27609 46.4903C5.44468 46.5536 7.89788 45.0032 8.58554 45.3133L14.0045 50.3505C14.9179 51.4073 15.5169 53.4365 16.4999 54.2908C17.466 55.1303 24.5324 59.2331 25.5723 59.3512C27.0109 59.5136 28.7343 59.2668 30.2214 59.3428C32.008 59.4313 34.1343 59.7646 35.8977 59.7815C37.9586 59.8005 39.9414 59.2499 41.9917 59.3849C42.6266 59.6022 44.4301 64.6563 45.3034 65.3545L56.7869 70.7418C57.118 70.4824 57.1054 70.4781 57.0147 70.1027C56.6603 68.6282 55.458 67.0884 55.8946 65.4135C58.9574 54.9742 63.7626 45.2985 67.9877 35.3212C68.8567 34.0767 72.6705 32.7878 73.1556 31.6298C73.8095 27.0672 76.5939 22.3338 75.5055 17.7395C76.6888 13.2719 78.6294 8.8865 79.6651 4.38932C79.8423 3.61517 80.0132 0.522831 79.1294 0.322441V0.318222ZM36.3344 24.3377C35.613 22.7599 30.2446 23.3526 29.0992 20.1738C28.228 17.7564 29.5464 14.9067 32.1641 14.4679C33.0543 14.3181 34.9633 14.3287 35.8598 14.4679C36.3977 14.5502 38.8234 15.5943 38.9521 16.031C39.0618 16.398 37.8278 18.3365 37.5684 18.4124C37.138 18.539 33.5859 16.012 32.4151 17.6699C30.9892 19.6907 35.1152 20.0345 36.2226 20.4332C38.2434 21.161 39.663 22.3063 39.6187 24.6456C39.5216 29.7841 32.1578 29.801 29.1604 27.2866C28.5191 26.7487 28.5001 26.5251 28.9621 25.8185C29.095 25.6138 30.1054 24.5866 30.2446 24.5634C30.4007 24.536 31.9637 25.5527 32.432 25.7003C33.569 26.061 37.2836 26.407 36.3365 24.3356L36.3344 24.3377ZM13.6544 14.9446C13.6544 14.9214 13.9476 14.6282 13.9708 14.6282H17.0294C17.0568 14.6282 17.0589 14.9742 17.234 15.1535C19.4172 17.3873 21.1785 19.7772 23.2499 22.0153C23.503 22.2895 23.7773 22.6966 24.2012 22.646V14.7358C24.2012 14.257 27.5762 14.257 27.5762 14.7358V28.5522H24.3067C23.9945 28.5522 22.7479 26.6517 22.4399 26.3057C20.8094 24.4811 19.2674 22.2958 17.5609 20.5324C17.3394 20.3045 17.1918 20.0409 16.8184 20.1147V28.5522H13.6544V14.9467V14.9446ZM21.0372 47.7454H17.2403C17.196 46.4144 18.9932 44.2565 18.8392 43.0963C17.5651 39.8648 15.7848 36.7366 14.4623 33.5451C14.1923 32.8933 13.8252 32.2246 13.8653 31.5053C14.7934 31.6741 16.5484 31.2754 17.3458 31.5053C18.1684 31.7416 20.3348 38.4663 20.7229 38.4684C21.0878 38.4684 21.1448 38.2385 21.2903 37.9811C21.7734 37.1331 23.7309 31.5053 24.3067 31.5053H27.5762L21.0372 47.7475V47.7454ZM40.6544 44.7923C39.7094 44.7881 38.758 44.8007 37.8088 44.7923C37.3996 44.7881 36.9988 44.5223 36.558 44.5813C36.2795 44.6193 36.0623 44.8999 35.8429 44.9399C24.0641 47.1105 24.7855 29.0838 35.6383 31.5623C36.058 31.6572 36.501 32.0728 36.7879 32.0981C37.0895 32.1234 37.4987 31.6024 38.0282 31.5138C38.8276 31.3809 39.8254 31.5855 40.6544 31.5032V44.7923ZM55.0656 42.4213C54.9897 42.6154 53.1693 44.227 52.9309 44.3535C47.1555 47.3868 40.3886 42.3834 42.4115 35.8992C43.9007 31.1235 50.946 29.6934 54.3632 33.3004C55.633 34.6399 54.1206 35.125 52.9752 36.0299C52.8297 36.146 52.952 36.5256 52.4015 36.3274C51.6948 36.07 51.4016 34.9499 49.9905 34.7221C45.392 33.9754 44.2002 40.1833 47.8241 41.5291C49.9251 42.3096 51.1928 41.4131 52.6019 39.9766C53.5089 40.4428 55.5255 41.2295 55.0635 42.4256L55.0656 42.4213ZM53.9223 28.529H50.5874L48.5624 20.3214L46.5501 28.5417C45.9531 28.4594 43.3839 28.742 43.1603 28.4256C42.9747 28.162 42.5739 26.5019 42.4431 26.021C41.4243 22.2473 40.5616 18.4145 39.5976 14.6282H42.9726L44.9744 22.435L46.8222 14.9995C47.0985 14.0946 49.8744 14.2063 50.2394 14.8497L51.9923 22.1671L52.4626 22.435L54.1501 14.6303H57.3142L53.9181 28.5311L53.9223 28.529ZM57.0463 45.3808C55.5191 44.9273 55.633 41.6092 56.8333 41.2464C57.2404 41.1241 58.4216 41.1515 58.8583 41.2506C61.1469 41.7674 60.2526 46.3321 57.0463 45.3808Z" fill="white"/>
<path d="M31.8687 35.5845C30.2656 37.1075 30.6664 40.4108 32.702 41.4592C34.3599 42.3135 37.0958 41.7249 37.2898 39.6345C37.3531 38.9553 37.3848 36.2258 37.0852 35.8124C35.9799 34.2978 33.2019 34.321 31.8709 35.5845H31.8687Z" fill="white"/>
</g>
<defs>
<clipPath id="clip0_8272_3789">
<rect width="78.9855" height="70.4236" fill="white" transform="translate(0.823242 0.31543)"/>
</clipPath>
</defs>
</svg>
