<svg width="74" height="106" viewBox="0 0 74 106" fill="none" xmlns="http://www.w3.org/2000/svg">
<path d="M28.2629 7.30486L33.1821 10.9378L31.4014 16.6825L36.482 13.2669L41.5625 16.6825L39.7818 10.9378L44.701 7.30486L38.5186 7.1767L36.482 1.51L34.4453 7.1767L28.2629 7.30486Z" fill="#F6E500"/>
<path d="M36.5379 0C36.5379 0 38.6136 5.95644 38.8584 6.65294C39.5929 6.66966 45.8922 6.80896 45.8922 6.80896C45.8922 6.80896 40.8784 10.6258 40.2941 11.0715C40.5055 11.7736 42.3196 17.8192 42.3196 17.8192C42.3196 17.8192 37.1445 14.2253 36.5379 13.8018C35.9369 14.2197 30.7562 17.8192 30.7562 17.8192C30.7562 17.8192 32.5703 11.7792 32.7818 11.0715C32.1975 10.6258 27.1837 6.80896 27.1837 6.80896C27.1837 6.80896 33.4829 6.66966 34.2175 6.65294C34.4623 5.95644 35.9536 1.67717 35.9536 1.67717L36.5379 0ZM28.97 7.38844L33.4996 10.8375L31.858 16.298L36.5379 13.0496L41.2178 16.298L39.5762 10.8375L44.1059 7.38844L38.4132 7.26586L36.5379 1.88333L34.6626 7.26586L28.97 7.38844Z" fill="#84754E"/>
<path d="M62.5029 45.5175V67.4432L57.6393 61.4478L55.7919 61.7932V45.5175H62.5029Z" fill="#27251F"/>
<path d="M66.9267 52.7945V35.9838C66.9267 34.3067 65.9083 33.4709 63.7437 32.4066L60.0376 35.8111V48.6601L66.9267 52.7945Z" fill="#27251F"/>
<path d="M65.7802 32.4066L60.5272 37.5551C60.5272 37.5551 57.5 33.9891 51.1618 30.8297C44.8237 27.6704 40.1938 27.1467 40.1938 27.1467L43.2767 20.36C43.2767 20.36 47.2777 20.36 54.8122 24.3941C61.8293 28.1496 65.7802 32.4066 65.7802 32.4066Z" fill="#27251F"/>
<path d="M36.538 25.698C32.6705 25.698 31.8525 26.088 30.9733 26.088C30.0941 26.088 29.8715 25.1018 29.2761 23.7032C28.6807 22.299 28.063 20.4213 28.063 20.0647C28.063 19.0784 29.0257 18.6605 29.5042 18.6605C29.9828 18.6605 32.4146 19.5855 36.538 19.5855C40.6614 19.5855 43.0876 18.6605 43.5717 18.6605C44.0559 18.6605 45.013 19.0784 45.013 20.0647C45.013 20.4213 44.3897 22.3046 43.7999 23.7032C43.2045 25.1073 42.9819 26.088 42.1082 26.088C41.2346 26.088 40.411 25.698 36.5436 25.698H36.538Z" fill="#27251F"/>
<path d="M7.54053 31.7881L12.8214 37.6889C12.8214 37.6889 15.7762 34.1116 21.9697 30.9412C28.1632 27.7707 32.6762 27.247 32.6762 27.247L29.6657 20.438C29.6657 20.438 25.5478 20.2374 18.1857 24.2882C11.3301 28.0549 7.54053 31.7881 7.54053 31.7881Z" fill="#27251F"/>
<path d="M6.26025 52.7722V35.9615C6.26025 34.2844 7.27302 33.4486 9.40985 32.3899L13.077 35.7944V48.6378L6.26025 52.7722Z" fill="#27251F"/>
<path d="M10.6903 45.6568V67.4599L15.4258 61.5035L17.2232 61.8434V45.6568H10.6903Z" fill="#27251F"/>
<path d="M16.8 38.1346L19.1538 41.0265V80.2643L15.4088 84.0143C15.4088 84.0143 25.2583 92.5896 36.3932 91.8373C47.5281 91.0851 57.7003 83.9028 57.7003 83.9028L53.844 81.1168V41.6672L56.0921 38.129C56.0921 38.129 47.0996 30.6236 36.7159 30.9468C26.3323 31.2699 16.8 38.129 16.8 38.129V38.1346Z" fill="#10069F"/>
<path d="M59.954 87.324L72.2909 94.6623C72.2909 94.6623 68.1564 97.9665 67.7613 98.2785C67.995 98.7187 70.6883 103.8 70.6883 103.8L58.8133 97.348C58.8133 97.348 59.2028 90.6895 59.2251 90.2883C58.8689 90.0933 58.0843 89.6587 57.756 89.4247C57.5334 89.2687 57.3943 89.0179 57.3442 88.7115C57.3331 88.6335 57.3275 88.561 57.3275 88.483C57.3275 88.1097 57.4555 87.7196 57.6837 87.4188C58.0231 86.9619 58.6964 86.5774 59.954 87.3352V87.324Z" fill="#27251F"/>
<path d="M13.1496 87.2683L0.935181 94.5954C0.935181 94.5954 5.03078 97.8941 5.42031 98.2061C5.18659 98.6463 2.52112 103.717 2.52112 103.717L14.2737 97.2756C14.2737 97.2756 13.8897 90.6282 13.8675 90.227C14.2236 90.032 14.9971 89.5974 15.3254 89.3634C15.5424 89.2073 15.6871 88.9566 15.7316 88.6501C15.7428 88.5777 15.7483 88.4997 15.7483 88.4217C15.7483 88.0539 15.6204 87.6583 15.3978 87.3574C15.0583 86.9005 14.3961 86.5161 13.1496 87.2739V87.2683Z" fill="#27251F"/>
<path d="M36.3266 104.686C23.4889 104.686 13.1108 97.8495 13.1108 97.8495L12.7825 89.1906C12.7825 89.1906 22.8267 96.9301 36.321 96.9301C49.8154 96.9301 59.8763 89.1906 59.8763 89.1906L59.548 97.8495C59.548 97.8495 49.1699 104.686 36.3322 104.686H36.3266Z" fill="#27251F" stroke="#1C1B1A" stroke-width="0.048235"/>
<path d="M17.2119 46.1137L6.49988 52.9784" stroke="#84754E" stroke-width="0.33041"/>
<path d="M12.6876 34.0726L14.0176 32.9137L14.4572 33.4151L12.5708 35.0589L10.1501 32.2785L10.7066 31.7937L12.6876 34.0726Z" fill="#84754E" stroke="#84754E" stroke-width="0.028941"/>
<path d="M16.1991 30.579C16.7612 31.3702 16.5497 32.0389 15.8207 32.5571C15.5536 32.7465 15.114 32.9582 14.6466 32.8468C14.3572 32.7744 14.1235 32.5738 13.9009 32.2785L12.4819 30.2837L13.0941 29.8435L14.4852 31.7937C14.7857 32.2116 15.1474 32.2283 15.4257 32.0277C15.8374 31.7324 15.8597 31.4037 15.5982 31.0359L14.1847 29.0579L14.7968 28.6177L16.188 30.5734L16.1991 30.579Z" fill="#84754E" stroke="#84754E" stroke-width="0.028941"/>
<path d="M18.202 27.9992C18.0407 27.8376 17.7346 27.5311 17.206 27.8432C16.8999 28.0215 16.5716 28.4951 17.0947 29.3977C17.4285 29.9717 17.9405 30.3617 18.4858 30.0497C18.842 29.8435 18.9644 29.4925 18.8141 29.0579L19.4541 28.6845C19.7268 29.4535 19.5709 30.189 18.803 30.6347C17.9906 31.1083 17.0724 30.8688 16.4325 29.7655C15.787 28.6511 16.0763 27.7206 16.8665 27.2637C17.7847 26.7343 18.5359 27.1745 18.842 27.6259L18.202 27.9992Z" fill="#84754E" stroke="#84754E" stroke-width="0.028941"/>
<path d="M21.5801 25.7035L19.8829 26.5115L20.2168 27.2135L21.7749 26.4725L22.0531 27.0631L20.495 27.8042L20.9068 28.6678L22.6819 27.8265L22.9602 28.4171L20.534 29.5705L18.9536 26.2329L21.3075 25.1185L21.5857 25.7091L21.5801 25.7035Z" fill="#84754E" stroke="#84754E" stroke-width="0.028941"/>
<path d="M23.9172 28.0159L23.1882 28.2945L23.038 24.3941L23.8337 24.0877L26.3267 27.0798L25.5755 27.3695L25.0913 26.7399L23.8727 27.2135L23.9172 28.0103V28.0159ZM23.8281 26.5505L24.6684 26.2273L23.7335 25.0237H23.7224L23.8281 26.5505Z" fill="#84754E" stroke="#84754E" stroke-width="0.028941"/>
<path d="M27.89 26.6173L27.1833 26.8346L26.2874 23.9316L25.2635 24.2492L25.0687 23.6252L27.8177 22.7727L28.0124 23.3967L26.9885 23.7143L27.8844 26.6173H27.89Z" fill="#84754E" stroke="#84754E" stroke-width="0.028941"/>
<path d="M62.1966 66.7077L57.8785 61.0187L56.2369 61.3475V45.8964H59.5757V45.1497H55.4912V62.2557C55.4912 62.2557 57.0883 61.9381 57.5613 61.8434C58.051 62.4897 62.9312 68.9198 62.9312 68.9198V51.0672L62.1855 50.588V66.7077H62.1966Z" fill="#84754E"/>
<path d="M60.3272 45.8964H59.5815V48.8997L62.1969 50.588V49.702L60.3272 48.4929V45.8964Z" fill="#84754E"/>
<path d="M67.3383 36.0786C67.3383 34.5073 66.5704 33.5433 65.5075 32.7911L64.9566 33.3149C66.064 34.0671 66.5926 34.836 66.5926 36.073V52.5382L62.9366 50.1757V51.0616L67.3327 53.9033V36.073L67.3383 36.0786Z" fill="#84754E"/>
<path d="M60.3272 37.7557L60.1547 37.9173L59.6428 37.3322C59.6428 37.3322 59.6205 37.3044 59.5815 37.2654V45.1497H60.3272V37.7501V37.7557Z" fill="#84754E"/>
<path d="M62.1965 49.702V50.588L62.9366 51.0672V50.1812L62.1965 49.702Z" fill="#84754E"/>
<path d="M60.3272 45.1497H59.5815V45.8964H60.3272V45.1497Z" fill="#84754E"/>
<path d="M54.7399 24.5334C61.4509 28.0493 65.2293 32.0277 65.2293 32.0277L64.8676 32.3732C65.0902 32.5069 65.3072 32.6406 65.5076 32.7911L66.2755 32.0556L65.7635 31.5151C65.6077 31.3479 61.8237 27.403 55.0794 23.8759C50.5441 21.5023 47.3111 20.5885 45.4747 20.2374C45.458 20.4102 45.4024 20.6665 45.3134 20.9673C47.0718 21.3017 50.2492 22.1876 54.7344 24.539L54.7399 24.5334Z" fill="#84754E"/>
<path d="M51.2455 30.5512C45.18 27.598 40.756 27.1077 40.756 27.1077L41.1066 26.361C41.051 26.3555 40.9898 26.3443 40.9286 26.3387C40.7561 26.3165 40.5613 26.2886 40.3331 26.2607L39.6487 27.7317L40.6781 27.8487C40.7227 27.8487 45.0631 28.3725 50.9227 31.2254C56.3037 33.8498 59.1529 36.8029 59.5869 37.271V36.2123C58.4406 35.1035 55.7028 32.7298 51.2455 30.5623V30.5512Z" fill="#84754E"/>
<path d="M60.3271 36.7249V37.7557L60.7167 37.3824L64.957 33.3204C64.7566 33.1867 64.5396 33.053 64.3059 32.9137L60.3271 36.7249Z" fill="#84754E"/>
<path d="M64.3055 32.9137C64.5393 33.0474 64.7618 33.1867 64.9566 33.3204L65.5075 32.7967C65.3016 32.6518 65.0902 32.5125 64.8676 32.3788L64.3055 32.9137Z" fill="#84754E"/>
<path d="M60.1546 37.9173L60.3271 37.7557V36.7249L60.2047 36.8419C60.2047 36.8419 59.9988 36.6023 59.587 36.2011V37.2598C59.626 37.2988 59.6427 37.3211 59.6482 37.3267L60.1602 37.9117L60.1546 37.9173Z" fill="#84754E"/>
<path d="M10.9016 49.702V50.588L13.5114 48.8997V45.8964H12.7713V48.4929L10.9016 49.702Z" fill="#84754E"/>
<path d="M12.944 37.9173L12.7715 37.7557V45.1497H13.5171V37.2654C13.4782 37.3044 13.4615 37.3267 13.4559 37.3322L12.944 37.9173Z" fill="#84754E"/>
<path d="M6.49994 52.5437V36.0786C6.49994 34.8416 7.02858 34.0671 8.13595 33.3204L7.58505 32.7967C6.52776 33.5489 5.75427 34.5128 5.75427 36.0841V53.9145L10.1504 51.0727V50.1868L6.49437 52.5493L6.49994 52.5437Z" fill="#84754E"/>
<path d="M16.8559 45.8964V61.3475L15.2144 61.0187L10.8962 66.7077V50.588L10.1505 51.0672V68.9198C10.1505 68.9198 15.0307 62.4897 15.5204 61.8434C15.9934 61.9381 17.5905 62.2557 17.5905 62.2557V45.1497H13.506V45.8964H16.8448H16.8559Z" fill="#84754E"/>
<path d="M10.9017 49.702L10.156 50.1812V51.0672L10.9017 50.588V49.702Z" fill="#84754E"/>
<path d="M13.5171 45.1497H12.7715V45.8964H13.5171V45.1497Z" fill="#84754E"/>
<path d="M31.9915 26.3555L32.3365 27.1021C32.3365 27.1021 27.9126 27.5924 21.8471 30.5456C17.3953 32.7131 14.6519 35.0867 13.5056 36.1956V37.2598C13.9397 36.7918 16.7888 33.8386 22.1698 31.2142C28.0294 28.3614 32.3754 27.8432 32.4144 27.8376L33.4383 27.7206L33.0042 26.7845L32.7538 26.2496C32.5257 26.2774 32.3309 26.3053 32.1584 26.3276C32.0972 26.3387 32.0415 26.3443 31.9803 26.3499L31.9915 26.3555Z" fill="#84754E"/>
<path d="M7.86886 32.0277C7.86886 32.0277 11.6473 28.0493 18.3583 24.5334C22.849 22.182 26.0208 21.2961 27.7793 20.9618C27.6902 20.6609 27.629 20.4046 27.6179 20.2318C25.7815 20.5829 22.5485 21.4967 18.0133 23.8703C11.2689 27.403 7.49046 31.3424 7.32909 31.5095L6.81714 32.05L7.58506 32.7855C7.79095 32.6406 8.00241 32.5013 8.225 32.3732L7.86329 32.0277H7.86886Z" fill="#84754E"/>
<path d="M8.13611 33.3149L12.7715 37.7557V36.7249L8.79274 32.9137C8.55903 33.0474 8.33643 33.1867 8.14167 33.3204L8.13611 33.3149Z" fill="#84754E"/>
<path d="M12.8939 36.8419L12.7715 36.7249V37.7557L12.944 37.9173L13.4559 37.3322C13.4559 37.3322 13.4782 37.3044 13.5171 37.2654V36.2011C13.1054 36.6023 12.8995 36.8419 12.8995 36.8419H12.8939Z" fill="#84754E"/>
<path d="M8.78705 32.9137L8.22503 32.3788C8.00244 32.5125 7.78541 32.6462 7.58508 32.7911L8.13599 33.3149C8.33632 33.1811 8.55334 33.0474 8.78705 32.9081V32.9137Z" fill="#84754E"/>
<path d="M36.5492 25.3302C34.3845 25.3302 33.2104 25.4472 32.4369 25.5475L32.7652 26.2552C33.522 26.166 34.6349 26.0713 36.5492 26.0713C38.4634 26.0713 39.5764 26.166 40.3332 26.2552L40.6615 25.5475C39.888 25.4472 38.7138 25.3302 36.5492 25.3302Z" fill="#84754E"/>
<path d="M29.7488 18.8723C30.2107 18.8723 32.5646 19.7192 36.5489 19.7192C40.5332 19.7192 42.887 18.8723 43.3489 18.8723C43.8108 18.8723 44.7067 19.24 44.7401 20.1093C44.9515 20.1427 45.2019 20.1817 45.4802 20.2318C45.4802 20.204 45.4802 20.1761 45.4802 20.1538C45.4802 18.8277 44.2393 18.1256 43.3433 18.1256C43.143 18.1256 42.8982 18.1814 42.4641 18.2817C41.4068 18.5213 39.4369 18.9726 36.5433 18.9726C33.6497 18.9726 31.6853 18.5213 30.6225 18.2817C30.1829 18.1814 29.9436 18.1256 29.7433 18.1256C28.8474 18.1256 27.6064 18.8333 27.6064 20.1538C27.6064 20.1761 27.6064 20.204 27.6064 20.2318C27.8847 20.1761 28.1351 20.1371 28.3465 20.1093C28.3799 19.24 29.2814 18.8723 29.7377 18.8723H29.7488Z" fill="#84754E"/>
<path d="M44.0001 24.3718L44.2449 23.7979C44.5454 23.1237 45.0518 21.8477 45.3134 20.9618C45.0296 20.9061 44.7847 20.8671 44.5733 20.8392C44.3562 21.5413 43.9556 22.6167 43.5605 23.4915C42.9873 24.7786 42.7703 25.6812 41.9189 25.6812C41.7575 25.6812 41.5962 25.6701 41.4237 25.6478L41.0953 26.3555C41.3958 26.3945 41.6518 26.4279 41.9245 26.4279C43.1264 26.4279 43.5661 25.3859 43.9945 24.3718H44.0001Z" fill="#84754E"/>
<path d="M41.101 26.3555L41.4293 25.6478C41.2123 25.62 40.9675 25.5865 40.6558 25.5475L40.3275 26.2552C40.5557 26.283 40.7504 26.3109 40.9229 26.3332C40.9841 26.3443 41.0398 26.3499 41.101 26.3555Z" fill="#84754E"/>
<path d="M44.7401 20.1594C44.7401 20.2653 44.6789 20.5104 44.5787 20.8392C44.7902 20.8671 45.035 20.9061 45.3188 20.9618C45.4079 20.6609 45.4691 20.4046 45.4802 20.2318C45.202 20.1761 44.9516 20.1371 44.7401 20.1093C44.7401 20.126 44.7401 20.1427 44.7401 20.1538V20.1594Z" fill="#84754E"/>
<path d="M29.5267 23.497C29.1372 22.6222 28.7309 21.5468 28.5139 20.8448C28.3024 20.8726 28.0576 20.9116 27.7738 20.9674C28.0353 21.8533 28.5417 23.1293 28.8422 23.8035L29.0871 24.3774C29.5155 25.3859 29.9552 26.4335 31.1571 26.4335C31.4298 26.4335 31.6858 26.4056 31.9863 26.361L31.658 25.6534C31.4799 25.6757 31.3185 25.6868 31.1627 25.6868C30.3169 25.6868 30.0998 24.7842 29.5211 23.497H29.5267Z" fill="#84754E"/>
<path d="M28.5193 20.8392C28.4191 20.5104 28.3579 20.2597 28.3579 20.1594C28.3579 20.1427 28.3579 20.126 28.3579 20.1148C28.1409 20.1427 27.896 20.1873 27.6178 20.2374C27.6345 20.4102 27.6901 20.6665 27.7792 20.9674C28.063 20.9116 28.3078 20.8726 28.5193 20.8448V20.8392Z" fill="#84754E"/>
<path d="M31.6631 25.6478L31.9914 26.3555C32.047 26.3499 32.1083 26.3387 32.1695 26.3332C32.342 26.3109 32.5367 26.283 32.7649 26.2552L32.4366 25.5475C32.125 25.5865 31.8801 25.6255 31.6631 25.6478Z" fill="#84754E"/>
<path d="M53.6716 59.0239L36.5491 45.9242L19.3932 59.2134" stroke="#84754E" stroke-width="0.0940583"/>
<path d="M20.1055 40.7813L18.0299 38.2628C18.0299 38.2628 25.1304 31.9163 36.5491 31.9163C47.9678 31.9163 55.0684 38.2628 55.0684 38.2628L52.9927 40.7813V78.9661L54.7901 80.3423V41.4276C55.3188 40.7869 57.5558 38.0733 57.5558 38.0733L56.2648 36.9199C55.9531 36.6413 48.5132 30.1165 36.5491 30.1165C24.5851 30.1165 17.1451 36.6413 16.8335 36.9199L15.5425 38.0733C15.5425 38.0733 17.7795 40.7869 18.3081 41.4276V80.4092L20.1055 79.0162V40.7813Z" fill="#84754E"/>
<path d="M55.8864 46.1137L66.5928 52.9784" stroke="#84754E" stroke-width="0.33041"/>
<path d="M47.6117 23.4469L48.3407 23.6753L46.1037 26.8458L45.4359 26.6396L45.4081 22.7615L46.1593 22.9955L46.0425 25.8874H46.0536L47.6117 23.4469Z" fill="#84754E" stroke="#84754E" stroke-width="0.028941"/>
<path d="M51.1288 25.4695L49.4037 24.7842L49.1199 25.5085L50.7059 26.1381L50.4666 26.7455L48.8807 26.1159L48.5301 27.0074L50.333 27.7262L50.0938 28.3335L47.623 27.3528L48.9808 23.9205L51.3736 24.8733L51.1344 25.4806L51.1288 25.4695Z" fill="#84754E" stroke="#84754E" stroke-width="0.028941"/>
<path d="M51.5348 27.7484C51.4514 27.9379 51.3679 28.3279 51.9466 28.6065C52.2582 28.757 52.6422 28.8461 52.8147 28.4951C52.9371 28.2332 52.7368 28.0493 52.4419 27.8097L52.1414 27.5646C51.6906 27.1968 51.2566 26.8346 51.6072 26.1047C51.7852 25.7314 52.2861 25.1686 53.31 25.6645C54.2782 26.127 54.217 26.9238 54.0278 27.3305L53.3934 27.0241C53.4491 26.8681 53.5604 26.4892 52.9872 26.2106C52.7368 26.088 52.3918 26.0434 52.2471 26.3443C52.1247 26.6062 52.2972 26.7566 52.414 26.8514L53.0874 27.4197C53.4658 27.7373 53.7718 28.1162 53.488 28.7124C53.0095 29.7153 51.9967 29.3365 51.724 29.2027C50.5721 28.6511 50.7113 27.8543 50.906 27.442L51.5404 27.7484H51.5348Z" fill="#84754E" stroke="#84754E" stroke-width="0.028941"/>
<path d="M54.7291 30.7016L54.0947 30.3338L55.6083 27.7039L54.6902 27.1745L55.0185 26.6062L57.4892 28.0326L57.1609 28.601L56.2427 28.0716L54.7291 30.7016Z" fill="#84754E" stroke="#84754E" stroke-width="0.028941"/>
<path d="M58.0676 28.3948L59.5199 29.4089C60.2823 29.9438 60.0096 30.6347 59.826 30.8966C59.5923 31.2309 59.2361 31.4037 58.88 31.3089C59.0414 31.582 59.1026 31.7658 58.7075 32.3286C58.4014 32.7688 58.3235 32.8802 58.4181 33.0195L58.3625 33.0975L57.7003 32.6351C57.7615 32.4623 57.845 32.2896 58.062 31.9776C58.3514 31.5652 58.4404 31.3869 57.9952 31.0749L57.3775 30.6403L56.554 31.8271L55.9641 31.4148L58.0731 28.3892L58.0676 28.3948ZM58.4293 30.6292C58.7409 30.8465 58.9746 30.8409 59.1805 30.54C59.2918 30.3784 59.3864 30.0942 59.0358 29.8491L58.2901 29.3253L57.7281 30.1332L58.4348 30.6236L58.4293 30.6292Z" fill="#84754E" stroke="#84754E" stroke-width="0.028941"/>
<path d="M59.1251 33.7383L58.5464 33.2313L61.913 31.2755L62.5474 31.8327L61.0505 35.4266L60.4495 34.9029L60.7834 34.1841L59.8096 33.3316L59.1251 33.7439V33.7383ZM60.3716 32.975L61.0449 33.5656L61.6793 32.1782H61.6737L60.3772 32.975H60.3716Z" fill="#84754E" stroke="#84754E" stroke-width="0.028941"/>
<path d="M32.5984 23.8648L34.4236 23.6865L34.4904 24.3495L31.8972 24.6058L31.5355 20.9339L32.3034 20.8559L32.5984 23.8648Z" fill="#84754E" stroke="#84754E" stroke-width="0.028941"/>
<path d="M37.9351 23.0513C37.9351 24.0208 37.3508 24.4387 36.4215 24.4443C36.0821 24.4443 35.5813 24.3663 35.2474 23.9985C35.047 23.7701 34.9691 23.4747 34.958 23.107V20.6609H35.7371V23.0568C35.7426 23.5695 36.0431 23.7979 36.4048 23.7979C36.9335 23.7979 37.1505 23.5416 37.1449 23.0903V20.6609H37.924V23.0624L37.9351 23.0513Z" fill="#84754E" stroke="#84754E" stroke-width="0.028941"/>
<path d="M41.6078 24.6226L40.6729 24.539L40.0942 23.2184L39.2372 24.4053L38.3413 24.3217L39.6991 22.5498L38.742 20.6497L39.6546 20.7333L40.1999 21.9814L40.979 20.8559L41.8637 20.9395L40.5839 22.5999L41.6022 24.617L41.6078 24.6226Z" fill="#84754E" stroke="#84754E" stroke-width="0.028941"/>
<path d="M19.0813 97.6489C19.0034 97.8495 18.9422 98.2674 19.5877 98.5404C19.9383 98.6909 20.3612 98.7689 20.5226 98.3955C20.6394 98.1169 20.4057 97.9331 20.0663 97.6823L19.7268 97.4316C19.2093 97.0583 18.714 96.6905 19.0424 95.9104C19.2093 95.5148 19.7157 94.9075 20.862 95.3978C21.9471 95.8603 21.936 96.6905 21.7579 97.1307L21.0456 96.8298C21.0902 96.6626 21.1903 96.2615 20.5448 95.9884C20.2666 95.8714 19.8826 95.8324 19.7491 96.15C19.6322 96.4286 19.8325 96.5791 19.9661 96.6794L20.7396 97.2589C21.1736 97.582 21.5298 97.9665 21.2627 98.6073C20.8119 99.6715 19.6879 99.3093 19.3762 99.1756C18.0852 98.6296 18.1798 97.7882 18.3635 97.348L19.0757 97.6489H19.0813Z" fill="#84754E"/>
<path d="M23.1158 100.479L22.3534 100.218L23.3773 97.2199L22.2755 96.8465L22.4981 96.2002L25.4585 97.2143L25.2415 97.8606L24.1397 97.4873L23.1158 100.485V100.479Z" fill="#84754E"/>
<path d="M25.8203 97.3202L27.7012 97.8049C28.6917 98.0612 28.6861 98.8413 28.6027 99.1589C28.4969 99.5712 28.202 99.8665 27.8014 99.9C28.074 100.112 28.2076 100.273 28.0295 100.964C27.8904 101.51 27.857 101.644 28.0072 101.75L27.9794 101.85L27.1169 101.627C27.1113 101.438 27.128 101.237 27.2282 100.853C27.3562 100.346 27.3784 100.14 26.8053 99.9891L26.004 99.783L25.6311 101.243L24.8688 101.048L25.8259 97.3202H25.8203ZM27.0724 99.3929C27.4786 99.4988 27.7123 99.4096 27.8069 99.0363C27.857 98.8413 27.8459 98.5237 27.3896 98.4067L26.4213 98.1559L26.1653 99.1533L27.0779 99.3874L27.0724 99.3929Z" fill="#84754E"/>
<path d="M29.17 102.073L28.3353 101.934L30.3163 98.3621L31.229 98.5126L31.9357 102.53L31.0731 102.385L30.9619 101.56L29.5651 101.326L29.17 102.067V102.073ZM29.8823 100.713L30.8506 100.875L30.628 99.2926H30.6168L29.8823 100.713Z" fill="#84754E"/>
<path d="M33.8664 102.686L33.0651 102.619L33.3266 99.4598L32.1692 99.3651L32.2248 98.6853L35.3411 98.9472L35.2854 99.627L34.128 99.5322L33.8664 102.692V102.686Z" fill="#84754E"/>
<path d="M36.5043 101.065L36.5377 102.792L35.7364 102.809L35.6584 98.9583L36.4598 98.9416L36.4876 100.401L37.9845 100.374L37.9567 98.9137L38.758 98.897L38.8359 102.747L38.0346 102.764L38.0012 101.037L36.5043 101.065Z" fill="#84754E"/>
<path d="M40.7947 102.547L39.9989 102.641L39.5315 98.819L42.2471 98.4847L42.3305 99.1589L40.4107 99.3929L40.5164 100.257L42.197 100.05L42.2804 100.725L40.5999 100.931L40.7947 102.536V102.547Z" fill="#84754E"/>
<path d="M44.2281 102.017L43.4379 102.162L42.7312 98.3788L43.5214 98.234L44.2281 102.017Z" fill="#84754E"/>
<path d="M47.1996 98.0668L45.2186 98.5627L45.4133 99.3483L47.233 98.8914L47.3999 99.5545L45.5803 100.011L45.8251 100.981L47.8896 100.463L48.0565 101.12L45.2241 101.833L44.2837 98.1002L47.0271 97.4093L47.194 98.0724L47.1996 98.0668Z" fill="#84754E"/>
<path d="M49.52 99.9167L51.3341 99.3093L51.5567 99.9724L48.9858 100.836L47.7616 97.1864L48.524 96.9301L49.5256 99.9167H49.52Z" fill="#84754E"/>
<path d="M50.7663 96.1556L52.33 95.4981C53.5264 94.9966 54.1997 95.9104 54.4779 96.5791C54.7951 97.3424 54.9565 98.5627 53.7879 99.0586L52.2521 99.705L50.7607 96.1556H50.7663ZM52.7251 98.7856L53.4429 98.4847C54.0439 98.234 53.9938 97.5375 53.749 96.958C53.3094 95.9104 52.7751 96.0386 52.458 96.1667L51.7457 96.4676L52.7195 98.7912L52.7251 98.7856Z" fill="#84754E"/>
<path d="M53.6716 59.0239L36.5491 45.9242L19.3932 59.2134" stroke="#84754E" stroke-width="0.711467"/>
<path d="M30.6169 47.919C28.697 45.98 26.2764 44.821 24.1285 44.821H23.4885L20.9343 44.6594L22.8486 46.3756L22.8152 69.9172V70.3183L22.7929 70.8588L22.114 73.3161L24.6682 71.3993L25.4528 70.8031V70.7864L26.4378 70.0676L25.4528 69.6831L25.4417 64.6851C30.7393 62.59 33.2545 59.7762 33.7943 55.3576L33.8054 55.2852V55.2127C33.8332 52.6552 32.6702 49.9973 30.6169 47.9134V47.919ZM25.4417 61.9214L25.4083 47.5791C26.5546 47.919 27.7733 48.6768 28.8028 49.7188C30.3609 51.2956 31.2512 53.2625 31.2512 55.118C30.845 58.2773 29.17 60.2721 25.4361 61.9214H25.4417Z" fill="#84754E" stroke="#28337C" stroke-width="0.0940583"/>
<path d="M34.8074 50.5378L34.8408 50.5601L34.8797 50.5824L34.9687 50.6326C39.1422 52.9784 39.554 53.2068 40.7059 54.9731C41.1511 55.9928 41.0899 57.1573 40.5278 57.9597C40.2329 58.3776 38.6414 60.4727 36.0538 60.5451C33.1825 60.6231 32.2866 60.1773 31.4018 59.6926L29.5933 58.2662L30.8731 63.0636L32.0195 62.6736C32.8208 63.0358 33.6889 63.1695 36.1262 63.1026C39.8378 63.0023 42.0359 60.2609 42.6202 59.4251C43.7164 57.8538 43.8666 55.7142 42.9986 53.8364L42.9596 53.7529L42.9095 53.6749C41.3625 51.29 40.5779 50.8499 36.2152 48.4038L36.1707 48.3759" fill="#84754E"/>
<path d="M34.8074 50.5378L34.8408 50.5601L34.8797 50.5824L34.9687 50.6326C39.1422 52.9784 39.554 53.2068 40.7059 54.9731C41.1511 55.9928 41.0899 57.1573 40.5278 57.9597C40.2329 58.3776 38.6414 60.4727 36.0538 60.5451C33.1825 60.6231 32.2866 60.1773 31.4018 59.6926L29.5933 58.2662L30.8731 63.0636L32.0195 62.6736C32.8208 63.0358 33.6889 63.1695 36.1262 63.1026C39.8378 63.0023 42.0359 60.2609 42.6202 59.4251C43.7164 57.8538 43.8666 55.7142 42.9986 53.8364L42.9596 53.7529L42.9095 53.6749C41.3625 51.29 40.5779 50.8499 36.2152 48.4038L36.1707 48.3759" stroke="#28337C" stroke-width="0.0940583"/>
<path d="M51.0675 65.3091L51.1176 62.1164L50.9395 62.434L50.5389 63.0135L50.0047 63.5595L49.4593 63.983L49.2868 64.1446C49.2033 64.2505 49.2312 64.1502 49.1199 64.2505C49.042 64.3173 48.9641 64.3786 48.875 64.4399C47.7788 65.2033 45.859 65.5487 44.0115 64.8634C42.3532 64.2449 39.5876 62.3281 39.749 56.4386C39.8658 52.1258 41.4518 49.1114 44.0004 48.3648C45.5362 47.9134 47.1722 48.3815 48.4187 49.5627L49.0698 50.3094L49.1199 50.3651L49.2979 50.549L49.5873 50.8499L50.0269 51.1898L50.6669 51.6299V47.451L50.3274 47.6905L50.116 47.6571C48.2184 45.9131 45.6531 45.2166 43.2825 45.9075C39.6154 46.9829 37.3395 50.8889 37.1948 56.3661C36.9889 64.1279 41.2737 66.5684 43.1212 67.2538C45.9424 68.3069 49.2423 67.733 51.0508 65.9443L51.0675 65.9332C51.0675 65.7549 51.0286 65.8329 51.0675 65.6156L51.0786 65.3036L51.0675 65.3091Z" fill="#84754E" stroke="#28337C" stroke-width="0.0940583"/>
<path d="M42.9984 53.8364L42.9594 53.7529L42.9093 53.6749C41.3624 51.29 40.5777 50.8499 36.215 48.4038L36.1705 48.3759C33.633 46.7155 32.3365 45.4005 32.3142 42.9265C32.4589 41.606 33.2101 40.4748 34.4399 39.7393C36.1037 38.7475 38.3463 38.6751 40.4386 39.561L42.6923 41.6338L41.1509 35.9838L39.7987 36.658C37.4337 36.0785 35.0743 36.3794 33.1322 37.544C31.1957 38.7029 29.9715 40.5974 29.7656 42.7371V42.7984L29.76 42.8596C29.76 46.8993 32.253 48.8662 34.8127 50.5378L34.8461 50.5601L34.8851 50.5824L34.9741 50.6326C39.1476 52.9784 39.5594 53.2068 40.7113 54.9731" fill="#84754E"/>
<path d="M42.9984 53.8364L42.9594 53.7529L42.9093 53.6749C41.3624 51.29 40.5777 50.8499 36.215 48.4038L36.1705 48.3759C33.633 46.7155 32.3365 45.4005 32.3142 42.9265C32.4589 41.606 33.2101 40.4748 34.4399 39.7393C36.1037 38.7475 38.3463 38.6751 40.4386 39.561L42.6923 41.6338L41.1509 35.9838L39.7987 36.658C37.4337 36.0785 35.0743 36.3794 33.1322 37.544C31.1957 38.7029 29.9715 40.5974 29.7656 42.7371V42.7984L29.76 42.8596C29.76 46.8993 32.253 48.8662 34.8127 50.5378L34.8461 50.5601L34.8851 50.5824L34.9741 50.6326C39.1476 52.9784 39.5594 53.2068 40.7113 54.9731" stroke="#28337C" stroke-width="0.0940583"/>
<path d="M12.604 98.1448L12.5817 97.6043C9.9719 99.0252 4.5686 101.956 3.02162 102.797C3.86745 101.204 5.72605 97.6935 5.72605 97.6935C5.72605 97.6935 2.31491 94.9688 1.53585 94.3503C2.36499 93.8544 9.79383 89.4358 12.1978 88.0094V87.8589L12.3035 87.9481C12.7097 87.7085 12.9434 87.5692 12.9434 87.5692C13.8783 87.0064 14.585 87.0343 15.0413 87.6472C15.2472 87.9202 15.3696 88.2935 15.3696 88.639L15.3529 88.8452C15.3084 89.1238 15.1749 89.3578 14.9745 89.5027C14.9078 89.5528 14.8132 89.6141 14.6963 89.6865C14.9356 89.8426 15.2083 90.0097 15.5087 90.1936C15.8871 89.9094 16.1376 89.4804 16.2155 88.9789L16.2433 88.639C16.2433 88.1041 16.0596 87.5525 15.7425 87.1234C15.3919 86.6554 14.3735 85.6914 12.4983 86.817L0 94.25C0 94.25 4.11786 97.5375 4.61311 97.9331C4.30706 98.507 0.884785 104.959 0.884785 104.959L12.9768 98.39C12.9768 98.39 12.9379 98.3677 12.9267 98.3565L12.5984 98.1448H12.604Z" fill="#84754E"/>
<path d="M13.8614 90.1657L13.6221 90.2995C13.6221 90.2995 13.9727 96.3283 14.0061 96.8354C13.9449 96.8688 13.6944 97.0025 13.316 97.2143L13.3383 97.7269C13.3383 97.7269 13.483 97.8161 13.7501 97.9721L14.9131 97.3369C14.9131 97.3369 14.557 91.2968 14.5291 90.7954C14.6293 90.7396 14.7239 90.6839 14.8129 90.6338C14.4958 90.4388 14.2231 90.2549 13.9838 90.0989C13.9448 90.1211 13.9059 90.1434 13.8614 90.1657Z" fill="#84754E"/>
<path d="M59.7644 97.699V97.7269C59.7644 97.7269 49.3863 104.291 36.5486 104.291C25.2078 104.291 15.7868 99.17 13.7446 97.9721L12.9878 98.3844C13.8614 98.9305 23.9558 105.032 36.5542 105.032C49.1526 105.032 59.7366 98.624 60.1707 98.351L60.499 98.1392V98.0891L59.7756 97.6935L59.7644 97.699Z" fill="#84754E"/>
<path d="M14.8132 90.6338C18.2856 92.8068 26.4545 97.1251 36.5488 97.1251C46.6432 97.1251 55.5021 92.4335 58.7018 90.3719C58.4458 90.227 58.1787 90.071 57.984 89.9428C54.6285 92.0491 46.4985 96.3841 36.5488 96.3841C26.5992 96.3841 19.0925 92.3722 15.5199 90.1936C15.5088 90.1992 15.5033 90.2103 15.4921 90.2159C15.3474 90.3217 15.1137 90.461 14.8132 90.6393V90.6338Z" fill="#84754E"/>
<path d="M13.3331 97.7213L13.3109 97.2087C13.105 97.3201 12.8601 97.4539 12.5819 97.6043L12.6042 98.1448L12.9325 98.3565C12.9325 98.3565 12.9603 98.3733 12.9826 98.39L13.7394 97.9776C13.4723 97.8216 13.3276 97.7325 13.3276 97.7325L13.3331 97.7213Z" fill="#84754E"/>
<path d="M13.9839 90.0989C14.2176 90.2549 14.4958 90.4332 14.813 90.6338C15.1191 90.4555 15.3472 90.3162 15.4919 90.2103C15.503 90.2047 15.5086 90.1936 15.5197 90.188C15.2192 90.0041 14.9466 89.8314 14.7073 89.681C14.5237 89.798 14.2732 89.9373 13.9839 90.1044V90.0989Z" fill="#84754E"/>
<path d="M12.1976 87.8589V88.0094C12.2421 87.9871 12.2755 87.9648 12.3089 87.9481L12.1976 87.8589Z" fill="#84754E"/>
<path d="M57.3442 87.1123C57.027 87.5357 56.8434 88.0929 56.8434 88.6279L56.8712 88.9677C56.9491 89.4804 57.2106 89.9206 57.6057 90.2047L57.7449 90.2994L58.485 90.7452C58.485 90.7452 58.5239 90.7675 58.5684 90.7954C58.5406 91.2968 58.1845 97.3369 58.1845 97.3369L72.2019 104.954C72.2019 104.954 68.7796 98.5014 68.4736 97.9275C68.9688 97.5319 73.0867 94.2444 73.0867 94.2444L60.5828 86.8058C58.7075 85.6803 57.6892 86.6442 57.3386 87.1123H57.3442ZM59.4588 90.5725L59.4755 90.2994L58.919 89.9874L58.2234 89.5695L58.1121 89.4971C57.9118 89.3522 57.7783 89.1182 57.7337 88.8396L57.717 88.6334C57.717 88.288 57.8395 87.9202 58.0454 87.6416C58.5017 87.0287 59.2084 87.0008 60.1432 87.5636C60.1432 87.5636 69.2248 92.9629 71.5564 94.3558C70.7773 94.9799 67.3662 97.699 67.3662 97.699C67.3662 97.699 69.2248 101.209 70.0706 102.803C68.0952 101.728 59.4198 97.0192 59.0915 96.8354C59.1193 96.3283 59.4588 90.5725 59.4588 90.5725Z" fill="#84754E"/>
<path d="M36.5491 67.967V92.1995" stroke="#84754E" stroke-width="0.75729"/>
<path d="M30.5947 71.9064V91.8708" stroke="#84754E" stroke-width="0.75729"/>
<path d="M24.6405 76.4475V90.0654" stroke="#84754E" stroke-width="0.75729"/>
<path d="M42.5028 71.9064V91.8708" stroke="#84754E" stroke-width="0.75729"/>
<path d="M48.4572 76.4475V90.0654" stroke="#84754E" stroke-width="0.75729"/>
<path d="M35.9646 66.7021L13.8562 83.8248L14.6353 84.5492C14.997 84.8835 23.6055 92.7456 36.5156 92.7456C49.4256 92.7456 58.1454 84.7776 58.5071 84.4377L59.2918 83.7078L36.51 66.2787L35.9646 66.7021ZM36.5211 68.552C37.5228 69.3154 54.8511 82.5767 56.4538 83.8025C54.0387 85.7137 46.5208 90.9347 36.5156 90.9347C26.5103 90.9347 19.087 85.7973 16.6886 83.9084C18.2745 82.677 35.525 69.321 36.5211 68.5465V68.552Z" fill="#84754E"/>
</svg>
