<svg width="30" height="30" viewBox="0 0 30 30" fill="none" xmlns="http://www.w3.org/2000/svg">
<path d="M21 12.75C21 8.20312 17.2969 4.5 12.75 4.5C8.20312 4.5 4.5 8.20312 4.5 12.75C4.5 17.2969 8.20312 21 12.75 21C17.2969 21 21 17.2969 21 12.75ZM19.0781 20.1562C17.3906 21.6094 15.1875 22.5 12.75 22.5C7.35938 22.5 3 18.1406 3 12.75C3 7.35938 7.35938 3 12.75 3C18.1406 3 22.5 7.35938 22.5 12.75C22.5 15.1875 21.6094 17.3906 20.1562 19.0781L26.7656 25.7344C27.0938 26.0156 27.0938 26.4844 26.7656 26.7656C26.4844 27.0938 26.0156 27.0938 25.7344 26.7656L19.0781 20.1562Z" fill="#27251F"/>
</svg>
